<?xml version="1.0" encoding="utf-8"?>
<!-- Generator: Adobe Illustrator 28.3.0, SVG Export Plug-In . SVG Version: 6.00 Build 0)  -->
<svg version="1.1" id="Layer_1" xmlns="http://www.w3.org/2000/svg" xmlns:xlink="http://www.w3.org/1999/xlink" x="0px" y="0px"
	 viewBox="0 0 500 750" style="enable-background:new 0 0 500 750;" xml:space="preserve">
<style type="text/css">
	.st0{fill:#29609C;}
	.st1{fill:#FFFFFF;}
	.st2{fill:none;stroke:#FFFFFF;stroke-width:0.75;stroke-miterlimit:10;}
	.st3{fill:none;stroke:#FFFFFF;stroke-width:0.75;stroke-miterlimit:10;stroke-dasharray:9.5987,9.5987;}
	.st4{opacity:0.54;}
	.st5{fill:none;stroke:#FFFFFF;stroke-width:1.5717;stroke-linecap:round;stroke-linejoin:round;}
</style>
<rect class="st0" width="500" height="750"/>
<path class="st1" d="M-42.91,790v-82.81h3.76v-8.91h12.28v8.91h4.95v-9.11h7.13v-6.34h12.08v6.34h1.98v9.11h3.76v16.24h4.95v6.34
	h2.97v35.66h3.57v-21.59h1.78v-6.14h8.12v5.15h1.98v-4.56h3.37v-3.17h7.53v8.52h3.76v-18.62h13.27v15.85h2.18v-56.26h3.17v-16.05
	h6.74v16.05h2.58v80.63h2.58v-56.26h2.38v-7.73h9.51v7.53h3.57v-12.08l1.78-1.78l2.28,2.28v11.59h2.48v16.64h4.16v6.93h3.17v-6.54
	h5.15v-4.75h12.28v46.95h6.93v-3.76h6.14v-4.75h10.5v5.94h5.15v15.85h6.54v-15.65h9.31v-5.15h5.35v-11.69h14.46v-29.32h3.37v-3.17
	h6.14v-4.95h4.56v-3.76l3.37-1.98l2.18,1.98v-4.16l2.38-2.38l2.97,2.58v49.92h3.76v-16.84h13.47v6.74h2.97v-4.75h7.92v-9.51h16.84
	v-8.32h17.83v8.52h4.36v-8.72l2.97-2.18l2.77,2.18v3.37h9.71v5.55h1.98v35.46h4.16v-67.95h3.76v-4.95h-1.58v-8.32l3.57-2.38
	l3.37,2.38v8.32h-1.58v4.75h4.95v-8.32h11.09v8.32h2.77v2.77h-1.39v72.11h2.58v-28.13h16.44v-5.35h7.33v5.15h1.78v2.58h-1.19v36.65
	h3.76v-39.42h15.85v-4.56h7.53v4.75h6.14v-40.41h2.38v-7.33h3.17v-5.55l2.38-2.38l2.48,2.48v4.26h3.86v8.52h8.72v40.61v25.16h16.05
	v-93.31h2.77v-2.87h5.75v-10.8h3.17v-6.34l2.38-2.38l2.87,2.87v5.84h2.87v10.8h3.17v38.33h8.12v-14.07h2.18v-9.11h9.51v8.72h2.97
	v-14.07l2.18-2.18l2.28,2.28v13.37h3.07v27.93h3.76v5.94h11.69v-20.21h12.48v-9.91h15.65v7.53h4.16v43.98h2.77V695.3h8.91v-9.11
	h9.51v8.52V790C542.91,790-42.91,789.8-42.91,790z"/>
<g>
	<g>
		<line class="st2" x1="137.18" y1="561.71" x2="137.18" y2="566.71"/>
		<line class="st3" x1="137.18" y1="576.31" x2="137.18" y2="782.68"/>
		<line class="st2" x1="137.18" y1="787.48" x2="137.18" y2="792.48"/>
	</g>
</g>
<g>
	<g>
		<line class="st2" x1="432.36" y1="588.82" x2="432.36" y2="593.82"/>
		<line class="st3" x1="432.36" y1="603.42" x2="432.36" y2="809.79"/>
		<line class="st2" x1="432.36" y1="814.59" x2="432.36" y2="819.59"/>
	</g>
</g>
<g>
	<g>
		<line class="st2" x1="356.58" y1="625.11" x2="356.58" y2="630.11"/>
		<line class="st3" x1="356.58" y1="639.71" x2="356.58" y2="846.08"/>
		<line class="st2" x1="356.58" y1="850.88" x2="356.58" y2="855.88"/>
	</g>
</g>
<g>
	<g>
		<line class="st2" x1="37.78" y1="639.2" x2="37.78" y2="644.2"/>
		<line class="st3" x1="37.78" y1="653.8" x2="37.78" y2="860.17"/>
		<line class="st2" x1="37.78" y1="864.97" x2="37.78" y2="869.97"/>
	</g>
</g>
<g>
	<path class="st1" d="M38.77,614.78c2.47-9.14,7.39-10.33,9.42-13.44c2.93-4.5,2.07-8.5,2.07-8.5c-0.89,7.06-5.72,8.15-10.15,13.92
		c-1.09,1.41-1.83,3.28-2.33,5.36c-0.5-2.09-1.25-3.96-2.33-5.36c-4.43-5.76-9.26-6.87-10.15-13.92c0,0-0.87,3.99,2.07,8.5
		c2.03,3.11,6.93,4.34,9.42,13.44"/>
	<path class="st1" d="M48.92,591.76c-0.79,6.31-5.11,7.29-9.06,12.43c-0.96,1.25-1.63,2.92-2.09,4.79
		c-0.45-1.86-1.12-3.53-2.09-4.79c-3.96-5.15-8.27-6.13-9.06-12.43c0,0-0.77,3.57,1.85,7.59c2.47,3.8,8.13,4.38,9.3,24.29
		c1.18-19.91,6.83-20.49,9.3-24.29C49.69,595.33,48.92,591.76,48.92,591.76L48.92,591.76z"/>
	<path class="st1" d="M32.14,592.57c-0.09,0.06-0.17,0.17-0.17,0.29c0,0.15,0.09,0.27,0.22,0.32l-0.47,1.32h1.2l-0.47-1.32
		c0.13-0.05,0.22-0.18,0.22-0.32c0-0.13-0.06-0.23-0.17-0.29v-1.71l2.26-0.91l-1.9,1.06l1.61,0.71v0.98
		c-0.52,0.71-0.84,1.6-0.84,2.55c0,2.38,1.93,4.31,4.31,4.31s4.31-1.93,4.31-4.31c0-0.96-0.31-1.85-0.85-2.56v-0.96l3.78-1.8
		l-7.11-3.48l-7.78,3.45l1.82,0.8v1.88L32.14,592.57z"/>
</g>
<g>
	<path class="st1" d="M137.7,538.29c1.28-4.73,3.83-5.34,4.87-6.95c1.52-2.33,1.07-4.4,1.07-4.4c-0.46,3.65-2.96,4.22-5.25,7.2
		c-0.56,0.73-0.95,1.7-1.2,2.77c-0.26-1.08-0.65-2.05-1.2-2.77c-2.29-2.98-4.79-3.56-5.25-7.2c0,0-0.45,2.06,1.07,4.4
		c1.05,1.61,3.59,2.25,4.87,6.95"/>
	<path class="st1" d="M142.95,526.38c-0.41,3.26-2.64,3.77-4.69,6.43c-0.5,0.65-0.84,1.51-1.08,2.48c-0.23-0.96-0.58-1.83-1.08-2.48
		c-2.05-2.66-4.28-3.17-4.69-6.43c0,0-0.4,1.85,0.96,3.93c1.28,1.97,4.21,2.27,4.81,12.57c0.61-10.3,3.53-10.61,4.81-12.57
		C143.35,528.22,142.95,526.38,142.95,526.38L142.95,526.38z"/>
	<path class="st1" d="M134.27,526.8c-0.05,0.03-0.09,0.09-0.09,0.15c0,0.08,0.05,0.14,0.11,0.17l-0.24,0.68h0.62l-0.24-0.68
		c0.06-0.03,0.11-0.09,0.11-0.17c0-0.06-0.03-0.12-0.09-0.15v-0.89l1.17-0.47l-0.98,0.55l0.83,0.37v0.51
		c-0.27,0.37-0.43,0.83-0.43,1.32c0,1.23,1,2.23,2.23,2.23c1.23,0,2.23-1,2.23-2.23c0-0.5-0.16-0.96-0.44-1.32v-0.5l1.96-0.93
		l-3.68-1.8l-4.03,1.78l0.94,0.42v0.97L134.27,526.8z"/>
</g>
<g>
	<path class="st1" d="M356.4,600.2c1.28-4.73,3.83-5.34,4.87-6.95c1.52-2.33,1.07-4.4,1.07-4.4c-0.46,3.65-2.96,4.22-5.25,7.2
		c-0.56,0.73-0.95,1.7-1.2,2.77c-0.26-1.08-0.65-2.05-1.2-2.77c-2.29-2.98-4.79-3.56-5.25-7.2c0,0-0.45,2.06,1.07,4.4
		c1.05,1.61,3.59,2.25,4.87,6.95"/>
	<path class="st1" d="M361.65,588.28c-0.41,3.26-2.64,3.77-4.69,6.43c-0.5,0.65-0.84,1.51-1.08,2.48c-0.23-0.96-0.58-1.83-1.08-2.48
		c-2.05-2.66-4.28-3.17-4.69-6.43c0,0-0.4,1.85,0.96,3.93c1.28,1.97,4.21,2.27,4.81,12.57c0.61-10.3,3.53-10.61,4.81-12.57
		C362.05,590.13,361.65,588.28,361.65,588.28L361.65,588.28z"/>
	<path class="st1" d="M352.97,588.71c-0.05,0.03-0.09,0.09-0.09,0.15c0,0.08,0.05,0.14,0.11,0.17l-0.24,0.68h0.62l-0.24-0.68
		c0.06-0.03,0.11-0.09,0.11-0.17c0-0.06-0.03-0.12-0.09-0.15v-0.89l1.17-0.47l-0.98,0.55l0.83,0.37v0.51
		c-0.27,0.37-0.43,0.83-0.43,1.32c0,1.23,1,2.23,2.23,2.23s2.23-1,2.23-2.23c0-0.5-0.16-0.96-0.44-1.32v-0.5l1.96-0.93l-3.68-1.8
		l-4.03,1.78l0.94,0.42v0.97L352.97,588.71z"/>
</g>
<g>
	<path class="st1" d="M433.02,572.13c1.65-6.08,4.92-6.87,6.26-8.94c1.95-2.99,1.38-5.65,1.38-5.65c-0.59,4.69-3.81,5.42-6.75,9.26
		c-0.72,0.94-1.22,2.18-1.55,3.56c-0.33-1.39-0.83-2.63-1.55-3.56c-2.94-3.83-6.16-4.57-6.75-9.26c0,0-0.58,2.65,1.38,5.65
		c1.35,2.07,4.61,2.89,6.26,8.94"/>
	<path class="st1" d="M439.77,556.81c-0.53,4.19-3.4,4.85-6.03,8.27c-0.64,0.83-1.08,1.94-1.39,3.19c-0.3-1.24-0.74-2.35-1.39-3.19
		c-2.63-3.42-5.5-4.08-6.03-8.27c0,0-0.51,2.38,1.23,5.05c1.65,2.53,5.41,2.92,6.19,16.16c0.78-13.24,4.54-13.63,6.19-16.16
		C440.28,559.19,439.77,556.81,439.77,556.81L439.77,556.81z"/>
	<path class="st1" d="M428.61,557.36c-0.06,0.04-0.11,0.11-0.11,0.19c0,0.1,0.06,0.18,0.15,0.22l-0.31,0.88h0.8l-0.31-0.88
		c0.08-0.03,0.15-0.12,0.15-0.22c0-0.08-0.04-0.15-0.11-0.19v-1.14l1.5-0.6l-1.26,0.71l1.07,0.47v0.65
		c-0.35,0.47-0.56,1.06-0.56,1.69c0,1.58,1.28,2.87,2.87,2.87s2.87-1.28,2.87-2.87c0-0.64-0.21-1.23-0.56-1.7v-0.64l2.51-1.19
		l-4.73-2.31l-5.17,2.29l1.21,0.53v1.25L428.61,557.36z"/>
</g>
<g class="st4">
	<g>
		<g>
			<path class="st5" d="M26.62,294.31c0.03,0.05,4.57-2.7,4.6-2.66c0.18,0.3,4.88,2.63,5.06,2.93c0.03,0.05,4.56-2.69,4.58-2.65"/>
			<path class="st5" d="M5.66,294.31c0.03,0.05,4.57-2.7,4.6-2.66c0.18,0.3,4.88,2.63,5.06,2.93c0.03,0.05,4.56-2.69,4.58-2.65"/>
			<path class="st5" d="M-15.29,294.31c0.03,0.05,4.57-2.7,4.6-2.66c0.18,0.3,4.88,2.63,5.06,2.93c0.03,0.05,4.56-2.69,4.58-2.65"/>
			<path class="st5" d="M-36.25,294.31c0.03,0.05,4.57-2.7,4.6-2.66c0.09,0.16,0.67,2.79,0.76,2.94c0.05,0.08,5.08-3.04,5.13-2.96
				c0.09,0.16-0.92,2.79-0.83,2.95c0.03,0.05,4.56-2.69,4.58-2.65"/>
			<path class="st5" d="M-57.21,294.31c0.03,0.05,4.57-2.7,4.6-2.66c0.18,0.3,4.88,2.63,5.06,2.93c0.03,0.05,4.56-2.69,4.58-2.65"/>
			<path class="st5" d="M-78.16,294.31c0.03,0.05,4.57-2.7,4.6-2.66c0.18,0.3,4.88,2.63,5.06,2.93c0.03,0.05,4.56-2.69,4.58-2.65"/>
			<path class="st5" d="M-99.12,294.31c0.03,0.05,4.57-2.7,4.6-2.66c0.18,0.3,4.88,2.63,5.06,2.93c0.03,0.05,4.56-2.69,4.58-2.65"/>
			<path class="st5" d="M-120.08,294.31c0.03,0.05,4.57-2.7,4.6-2.66c0.18,0.3,4.88,2.63,5.06,2.93c0.03,0.05,4.56-2.69,4.58-2.65"
				/>
			<path class="st5" d="M-141.03,294.31c0.03,0.05,4.57-2.7,4.6-2.66c0.11,0.2-2.53,2.75-2.41,2.95c0.05,0.08,5.08-3.04,5.13-2.96
				c0.18,0.3-5.24,2.66-5.07,2.96c0.05,0.08,5.08-3.04,5.13-2.96c0.11,0.19,2.17,2.75,2.28,2.94c0.03,0.05,4.56-2.69,4.58-2.65"/>
			<path class="st5" d="M-161.99,294.31c0.03,0.05,4.57-2.7,4.6-2.66c0.18,0.3,4.88,2.63,5.06,2.93c0.03,0.05,4.56-2.69,4.58-2.65"
				/>
			<path class="st5" d="M-182.95,294.31c0.03,0.05,4.57-2.7,4.6-2.66c0.18,0.3,4.88,2.63,5.06,2.93c0.03,0.05,4.56-2.69,4.58-2.65"
				/>
			<path class="st5" d="M-203.9,294.31c0.03,0.05,4.57-2.7,4.6-2.66c0.18,0.3,4.88,2.63,5.06,2.93c0.03,0.05,4.56-2.69,4.58-2.65"/>
		</g>
	</g>
</g>
<g class="st4">
	<g>
		<g>
			<path class="st5" d="M22.6,303.78c0.03,0.05,4.57-2.7,4.6-2.66c0.09,0.16,0.86,2.78,0.95,2.94c0.05,0.08,5.08-3.04,5.13-2.96
				c0.09,0.16-1.11,2.79-1.02,2.95c0.03,0.05,4.56-2.69,4.58-2.65"/>
			<path class="st5" d="M1.65,303.78c0.03,0.05,4.57-2.7,4.6-2.66c0.18,0.3,4.88,2.63,5.06,2.93c0.03,0.05,4.56-2.69,4.58-2.65"/>
			<path class="st5" d="M-19.31,303.78c0.03,0.05,4.57-2.7,4.6-2.66c0.18,0.3,4.88,2.63,5.06,2.93c0.03,0.05,4.56-2.69,4.58-2.65"/>
			<path class="st5" d="M-40.27,303.78c0.03,0.05,4.57-2.7,4.6-2.66c0.18,0.3,4.88,2.63,5.06,2.93c0.03,0.05,4.56-2.69,4.58-2.65"/>
			<path class="st5" d="M-61.22,303.78c0.03,0.05,4.57-2.7,4.6-2.66c0.18,0.3,4.88,2.63,5.06,2.93c0.03,0.05,4.56-2.69,4.58-2.65"/>
			<path class="st5" d="M-82.18,303.78c0.03,0.05,4.57-2.7,4.6-2.66c0.11,0.19-2.34,2.76-2.22,2.95c0.05,0.08,5.08-3.04,5.13-2.96
				c0.11,0.19,2.05,2.75,2.16,2.94c0.03,0.05,4.56-2.69,4.58-2.65"/>
			<path class="st5" d="M-103.14,303.78c0.03,0.05,4.57-2.7,4.6-2.66c0.18,0.3,4.88,2.63,5.06,2.93c0.03,0.05,4.56-2.69,4.58-2.65"
				/>
			<path class="st5" d="M-124.09,303.78c0.03,0.05,4.57-2.7,4.6-2.66c0.18,0.3,4.88,2.63,5.06,2.93c0.03,0.05,4.56-2.69,4.58-2.65"
				/>
			<path class="st5" d="M-145.05,303.78c0.03,0.05,4.57-2.7,4.6-2.66c0.18,0.3,4.88,2.63,5.06,2.93c0.03,0.05,4.56-2.69,4.58-2.65"
				/>
			<path class="st5" d="M-166.01,303.78c0.03,0.05,4.57-2.7,4.6-2.66c0.18,0.3,4.88,2.63,5.06,2.93c0.03,0.05,4.56-2.69,4.58-2.65"
				/>
			<path class="st5" d="M-186.96,303.78c0.03,0.05,4.57-2.7,4.6-2.66c0.18,0.3,4.88,2.63,5.06,2.93c0.03,0.05,4.56-2.69,4.58-2.65"
				/>
			<path class="st5" d="M-207.92,303.78c0.03,0.05,4.57-2.7,4.6-2.66c0.18,0.3,4.88,2.63,5.06,2.93c0.03,0.05,4.56-2.69,4.58-2.65"
				/>
		</g>
	</g>
</g>
<g class="st4">
	<g>
		<g>
			<path class="st5" d="M26.62,314.44c0.03,0.05,4.57-2.7,4.6-2.66c0.18,0.3,4.88,2.63,5.06,2.93c0.03,0.05,4.56-2.69,4.58-2.65"/>
			<path class="st5" d="M5.66,314.44c0.03,0.05,4.57-2.7,4.6-2.66c0.18,0.3,4.88,2.63,5.06,2.93c0.03,0.05,4.56-2.69,4.58-2.65"/>
			<path class="st5" d="M-15.29,314.44c0.03,0.05,4.57-2.7,4.6-2.66c0.16,0.28,4.47,2.65,4.63,2.93c0.04,0.07,4.96-2.96,5-2.89
				c0.16,0.28-4.74,2.61-4.57,2.89c0.03,0.05,4.56-2.69,4.58-2.65"/>
			<path class="st5" d="M-36.25,314.44c0.03,0.05,4.57-2.7,4.6-2.66c0.18,0.3,4.88,2.63,5.06,2.93c0.03,0.05,4.56-2.69,4.58-2.65"/>
			<path class="st5" d="M-57.21,314.44c0.03,0.05,4.57-2.7,4.6-2.66c0.18,0.3,4.88,2.63,5.06,2.93c0.03,0.05,4.56-2.69,4.58-2.65"/>
			<path class="st5" d="M-78.16,314.44c0.03,0.05,4.57-2.7,4.6-2.66c0.18,0.3,4.88,2.63,5.06,2.93c0.03,0.05,4.56-2.69,4.58-2.65"/>
			<path class="st5" d="M-99.12,314.44c0.03,0.05,4.57-2.7,4.6-2.66c0.18,0.3,4.88,2.63,5.06,2.93c0.03,0.05,4.56-2.69,4.58-2.65"/>
			<path class="st5" d="M-120.08,314.44c0.03,0.05,4.57-2.7,4.6-2.66c0.1,0.17,1.36,2.77,1.45,2.94c0.05,0.08,5.08-3.04,5.13-2.96
				c0.1,0.17-1.62,2.78-1.52,2.95c0.03,0.05,4.56-2.69,4.58-2.65"/>
			<path class="st5" d="M-141.03,314.44c0.03,0.05,4.57-2.7,4.6-2.66c0.18,0.3,4.88,2.63,5.06,2.93c0.03,0.05,4.56-2.69,4.58-2.65"
				/>
			<path class="st5" d="M-161.99,314.44c0.03,0.05,4.57-2.7,4.6-2.66c0.18,0.3,4.88,2.63,5.06,2.93c0.03,0.05,4.56-2.69,4.58-2.65"
				/>
			<path class="st5" d="M-182.95,314.44c0.03,0.05,4.57-2.7,4.6-2.66c0.18,0.3,4.88,2.63,5.06,2.93c0.03,0.05,4.56-2.69,4.58-2.65"
				/>
			<path class="st5" d="M-203.9,314.44c0.03,0.05,4.57-2.7,4.6-2.66c0.18,0.3,4.88,2.63,5.06,2.93c0.03,0.05,4.56-2.69,4.58-2.65"/>
		</g>
	</g>
</g>
<g class="st4">
	<g>
		<g>
			<path class="st5" d="M26.62,325.1c0.03,0.05,4.57-2.7,4.6-2.66c0.18,0.3,4.88,2.63,5.06,2.93c0.03,0.05,4.56-2.69,4.58-2.65"/>
			<path class="st5" d="M5.66,325.1c0.03,0.05,4.57-2.7,4.6-2.66c0.18,0.3,4.88,2.63,5.06,2.93c0.03,0.05,4.56-2.69,4.58-2.65"/>
			<path class="st5" d="M-15.29,325.1c0.03,0.05,4.57-2.7,4.6-2.66c0.18,0.3,4.88,2.63,5.06,2.93c0.03,0.05,4.56-2.69,4.58-2.65"/>
			<path class="st5" d="M-36.25,325.1c0.03,0.05,4.57-2.7,4.6-2.66c0.12,0.21,2.69,2.73,2.82,2.94c0.05,0.08,5.08-3.04,5.13-2.96
				c0.12,0.21-3.01,2.74-2.89,2.95c0.03,0.05,4.56-2.69,4.58-2.65"/>
			<path class="st5" d="M-57.21,325.1c0.03,0.05,4.57-2.7,4.6-2.66c0.18,0.3,4.88,2.63,5.06,2.93c0.03,0.05,4.56-2.69,4.58-2.65"/>
			<path class="st5" d="M-78.16,325.1c0.03,0.05,4.57-2.7,4.6-2.66c0.18,0.3,4.88,2.63,5.06,2.93c0.03,0.05,4.56-2.69,4.58-2.65"/>
			<path class="st5" d="M-99.12,325.1c0.03,0.05,4.57-2.7,4.6-2.66c0.18,0.3,4.88,2.63,5.06,2.93c0.03,0.05,4.56-2.69,4.58-2.65"/>
			<path class="st5" d="M-120.08,325.1c0.03,0.05,4.57-2.7,4.6-2.66c0.18,0.3,4.88,2.63,5.06,2.93c0.03,0.05,4.56-2.69,4.58-2.65"/>
			<path class="st5" d="M-141.03,325.1c0.03,0.05,4.57-2.7,4.6-2.66c0.09,0.15-0.45,2.79-0.36,2.95c0.05,0.08,5.08-3.04,5.13-2.96
				c0.09,0.15,0.2,2.79,0.29,2.94c0.03,0.05,4.56-2.69,4.58-2.65"/>
			<path class="st5" d="M-161.99,325.1c0.03,0.05,4.57-2.7,4.6-2.66c0.18,0.3,4.88,2.63,5.06,2.93c0.03,0.05,4.56-2.69,4.58-2.65"/>
			<path class="st5" d="M-182.95,325.1c0.03,0.05,4.57-2.7,4.6-2.66c0.18,0.3,4.88,2.63,5.06,2.93c0.03,0.05,4.56-2.69,4.58-2.65"/>
			<path class="st5" d="M-203.9,325.1c0.03,0.05,4.57-2.7,4.6-2.66c0.18,0.3,4.88,2.63,5.06,2.93c0.03,0.05,4.56-2.69,4.58-2.65"/>
		</g>
	</g>
</g>
<g class="st4">
	<g>
		<g>
			<path class="st5" d="M26.62,335.76c0.03,0.05,4.57-2.7,4.6-2.66c0.18,0.3,4.88,2.63,5.06,2.93c0.03,0.05,4.56-2.69,4.58-2.65"/>
			<path class="st5" d="M5.66,335.77c0.03,0.05,4.57-2.7,4.6-2.66c0.1,0.18,1.69,2.76,1.79,2.94c0.05,0.08,5.08-3.04,5.13-2.96
				c0.1,0.18-1.96,2.77-1.86,2.95c0.03,0.05,4.56-2.69,4.58-2.65"/>
			<path class="st5" d="M-15.29,335.77c0.03,0.05,4.57-2.7,4.6-2.66c0.18,0.3,4.88,2.63,5.06,2.93c0.03,0.05,4.56-2.69,4.58-2.65"/>
			<path class="st5" d="M-36.25,335.76c0.03,0.05,4.57-2.7,4.6-2.66c0.18,0.3,4.88,2.63,5.06,2.93c0.03,0.05,4.56-2.69,4.58-2.65"/>
			<path class="st5" d="M-57.21,335.77c0.03,0.05,4.57-2.7,4.6-2.66c0.18,0.3,4.88,2.63,5.06,2.93c0.03,0.05,4.56-2.69,4.58-2.65"/>
			<path class="st5" d="M-78.16,335.76c0.03,0.05,4.57-2.7,4.6-2.66c0.18,0.3,4.88,2.63,5.06,2.93c0.03,0.05,4.56-2.69,4.58-2.65"/>
			<path class="st5" d="M-99.12,335.76c0.03,0.05,4.57-2.7,4.6-2.66c0.1,0.17-1.48,2.78-1.39,2.95c0.05,0.08,5.08-3.04,5.13-2.96
				c0.09,0.16,0.76,2.78,0.85,2.94c0.04,0.07,5-2.98,5.04-2.91c0.16,0.28-4.74,2.63-4.57,2.91c0.03,0.05,4.56-2.69,4.58-2.65"/>
			<path class="st5" d="M-120.08,335.76c0.03,0.05,4.57-2.7,4.6-2.66c0.18,0.3,4.88,2.63,5.06,2.93c0.03,0.05,4.56-2.69,4.58-2.65"
				/>
			<path class="st5" d="M-141.03,335.76c0.03,0.05,4.57-2.7,4.6-2.66c0.18,0.3,4.88,2.63,5.06,2.93c0.03,0.05,4.56-2.69,4.58-2.65"
				/>
			<path class="st5" d="M-161.99,335.76c0.03,0.05,4.57-2.7,4.6-2.66c0.18,0.3,4.88,2.63,5.06,2.93c0.03,0.05,4.56-2.69,4.58-2.65"
				/>
			<path class="st5" d="M-182.95,335.76c0.03,0.05,4.57-2.7,4.6-2.66c0.18,0.3,4.88,2.63,5.06,2.93c0.03,0.05,4.56-2.69,4.58-2.65"
				/>
			<path class="st5" d="M-203.9,335.76c0.03,0.05,4.57-2.7,4.6-2.66c0.16,0.28-4.72,2.68-4.56,2.96c0.05,0.08,5.08-3.04,5.13-2.96
				c0.16,0.28,4.33,2.65,4.49,2.93c0.03,0.05,4.56-2.69,4.58-2.65"/>
		</g>
	</g>
</g>
<g class="st4">
	<g>
		<g>
			<path class="st5" d="M694.32,293.71c0.03,0.05,4.57-2.7,4.6-2.66c0.1,0.18,1.55,2.77,1.65,2.94c0.05,0.08,5.08-3.04,5.13-2.96
				c0.1,0.18-1.82,2.77-1.72,2.95c0.03,0.05,4.56-2.69,4.58-2.65"/>
			<path class="st5" d="M673.36,293.71c0.03,0.05,4.57-2.7,4.6-2.66c0.18,0.3,4.88,2.63,5.06,2.93c0.03,0.05,4.56-2.69,4.58-2.65"/>
			<path class="st5" d="M652.4,293.72c0.03,0.05,4.57-2.7,4.6-2.66c0.18,0.3,4.88,2.63,5.06,2.93c0.03,0.05,4.56-2.69,4.58-2.65"/>
			<path class="st5" d="M631.45,293.71c0.03,0.05,4.57-2.7,4.6-2.66c0.18,0.3,4.88,2.63,5.06,2.93c0.03,0.05,4.56-2.69,4.58-2.65"/>
			<path class="st5" d="M610.49,293.72c0.03,0.05,4.57-2.7,4.6-2.66c0.18,0.3,4.88,2.63,5.06,2.93c0.03,0.05,4.56-2.69,4.58-2.65"/>
			<path class="st5" d="M589.53,293.71c0.03,0.05,4.57-2.7,4.6-2.66c0.1,0.17-1.62,2.78-1.52,2.95c0.05,0.08,5.08-3.04,5.13-2.96
				c0.1,0.17,1.36,2.77,1.45,2.94c0.03,0.05,4.56-2.69,4.58-2.65"/>
			<path class="st5" d="M568.58,293.72c0.03,0.05,4.57-2.7,4.6-2.66c0.18,0.3,4.88,2.63,5.06,2.93c0.03,0.05,4.56-2.69,4.58-2.65"/>
			<path class="st5" d="M547.62,293.72c0.03,0.05,4.57-2.7,4.6-2.66c0.18,0.3,4.88,2.63,5.06,2.93c0.03,0.05,4.56-2.69,4.58-2.65"/>
			<path class="st5" d="M526.66,293.72c0.03,0.05,4.57-2.7,4.6-2.66c0.18,0.3,4.88,2.63,5.06,2.93c0.03,0.05,4.56-2.69,4.58-2.65"/>
			<path class="st5" d="M505.71,293.72c0.03,0.05,4.57-2.7,4.6-2.66c0.18,0.3,4.88,2.63,5.06,2.93c0.03,0.05,4.56-2.69,4.58-2.65"/>
			<path class="st5" d="M484.75,293.72c0.03,0.05,4.57-2.7,4.6-2.66c0.16,0.28-4.76,2.62-4.6,2.9c0.04,0.07,4.99-2.98,5.03-2.9
				c0.16,0.28,4.46,2.65,4.63,2.93c0.03,0.05,4.56-2.69,4.58-2.65"/>
			<path class="st5" d="M463.79,293.72c0.03,0.05,4.57-2.7,4.6-2.66c0.18,0.3,4.88,2.63,5.06,2.93c0.03,0.05,4.56-2.69,4.58-2.65"/>
		</g>
	</g>
</g>
<g class="st4">
	<g>
		<g>
			<path class="st5" d="M690.3,303.19c0.03,0.05,4.57-2.7,4.6-2.66c0.18,0.3,4.88,2.63,5.06,2.93c0.03,0.05,4.56-2.69,4.58-2.65"/>
			<path class="st5" d="M669.34,303.19c0.03,0.05,4.57-2.7,4.6-2.66c0.18,0.3,4.88,2.63,5.06,2.93c0.03,0.05,4.56-2.69,4.58-2.65"/>
			<path class="st5" d="M648.39,303.19c0.03,0.05,4.57-2.7,4.6-2.66c0.18,0.3,4.88,2.63,5.06,2.93c0.03,0.05,4.56-2.69,4.58-2.65"/>
			<path class="st5" d="M627.43,303.19c0.03,0.05,4.57-2.7,4.6-2.66c0.18,0.3,4.88,2.63,5.06,2.93c0.03,0.05,4.56-2.69,4.58-2.65"/>
			<path class="st5" d="M606.47,303.19c0.03,0.05,4.57-2.7,4.6-2.66c0.18,0.3,4.88,2.63,5.06,2.93c0.03,0.05,4.56-2.69,4.58-2.65"/>
			<path class="st5" d="M585.52,303.19c0.03,0.05,4.57-2.7,4.6-2.66c0.18,0.3,4.88,2.63,5.06,2.93c0.03,0.05,4.56-2.69,4.58-2.65"/>
			<path class="st5" d="M564.56,303.19c0.03,0.05,4.57-2.7,4.6-2.66c0.18,0.3,4.88,2.63,5.06,2.93c0.03,0.05,4.56-2.69,4.58-2.65"/>
			<path class="st5" d="M543.6,303.19c0.03,0.05,4.57-2.7,4.6-2.66c0.11,0.19,2.16,2.75,2.27,2.94c0.05,0.08,5.08-3.04,5.13-2.96
				c0.13,0.23-3.43,2.72-3.29,2.95c0.05,0.08,5.08-3.04,5.13-2.96c0.15,0.27-4.32,2.69-4.17,2.96c0.03,0.05,4.56-2.69,4.58-2.65"/>
			<path class="st5" d="M522.65,303.19c0.03,0.05,4.57-2.7,4.6-2.66c0.18,0.3,4.88,2.63,5.06,2.93c0.03,0.05,4.56-2.69,4.58-2.65"/>
			<path class="st5" d="M501.69,303.19c0.03,0.05,4.57-2.7,4.6-2.66c0.18,0.3,4.88,2.63,5.06,2.93c0.03,0.05,4.56-2.69,4.58-2.65"/>
			<path class="st5" d="M480.74,303.19c0.03,0.05,4.57-2.7,4.6-2.66c0.18,0.3,4.88,2.63,5.06,2.93c0.03,0.05,4.56-2.69,4.58-2.65"/>
			<path class="st5" d="M459.78,303.19c0.03,0.05,4.57-2.7,4.6-2.66c0.18,0.3,4.88,2.63,5.06,2.93c0.03,0.05,4.56-2.69,4.58-2.65"/>
		</g>
	</g>
</g>
<g class="st4">
	<g>
		<g>
			<path class="st5" d="M694.32,313.85c0.03,0.05,4.57-2.7,4.6-2.66c0.18,0.3,4.88,2.63,5.06,2.93c0.03,0.05,4.56-2.69,4.58-2.65"/>
			<path class="st5" d="M673.36,313.85c0.03,0.05,4.57-2.7,4.6-2.66c0.18,0.3,4.88,2.63,5.06,2.93c0.03,0.05,4.56-2.69,4.58-2.65"/>
			<path class="st5" d="M652.4,313.85c0.03,0.05,4.57-2.7,4.6-2.66c0.18,0.3,4.88,2.63,5.06,2.93c0.03,0.05,4.56-2.69,4.58-2.65"/>
			<path class="st5" d="M631.45,313.85c0.03,0.05,4.57-2.7,4.6-2.66c0.18,0.3,4.88,2.63,5.06,2.93c0.03,0.05,4.56-2.69,4.58-2.65"/>
			<path class="st5" d="M610.49,313.85c0.03,0.05,4.57-2.7,4.6-2.66c0.1,0.18,1.66,2.76,1.76,2.94c0.05,0.08,5.08-3.04,5.13-2.96
				c0.1,0.18-1.94,2.77-1.83,2.95c0.03,0.05,4.56-2.69,4.58-2.65"/>
			<path class="st5" d="M589.53,313.85c0.03,0.05,4.57-2.7,4.6-2.66c0.18,0.3,4.88,2.63,5.06,2.93c0.03,0.05,4.56-2.69,4.58-2.65"/>
			<path class="st5" d="M568.58,313.85c0.03,0.05,4.57-2.7,4.6-2.66c0.18,0.3,4.88,2.63,5.06,2.93c0.03,0.05,4.56-2.69,4.58-2.65"/>
			<path class="st5" d="M547.62,313.85c0.03,0.05,4.57-2.7,4.6-2.66c0.18,0.3,4.88,2.63,5.06,2.93c0.03,0.05,4.56-2.69,4.58-2.65"/>
			<path class="st5" d="M526.66,313.85c0.03,0.05,4.57-2.7,4.6-2.66c0.18,0.3,4.88,2.63,5.06,2.93c0.03,0.05,4.56-2.69,4.58-2.65"/>
			<path class="st5" d="M505.71,313.85c0.03,0.05,4.57-2.7,4.6-2.66c0.1,0.17-1.51,2.78-1.41,2.95c0.05,0.08,5.08-3.04,5.13-2.96
				c0.1,0.17,1.24,2.77,1.34,2.94c0.03,0.05,4.56-2.69,4.58-2.65"/>
			<path class="st5" d="M484.75,313.85c0.03,0.05,4.57-2.7,4.6-2.66c0.18,0.3,4.88,2.63,5.06,2.93c0.03,0.05,4.56-2.69,4.58-2.65"/>
			<path class="st5" d="M463.79,313.85c0.03,0.05,4.57-2.7,4.6-2.66c0.18,0.3,4.88,2.63,5.06,2.93c0.03,0.05,4.56-2.69,4.58-2.65"/>
		</g>
	</g>
</g>
<g class="st4">
	<g>
		<g>
			<path class="st5" d="M694.32,324.51c0.03,0.05,4.57-2.7,4.6-2.66c0.18,0.3,4.88,2.63,5.06,2.93c0.03,0.05,4.56-2.69,4.58-2.65"/>
			<path class="st5" d="M673.36,324.51c0.03,0.05,4.57-2.7,4.6-2.66c0.13,0.23,3.19,2.71,3.33,2.94c0.05,0.08,5.08-3.04,5.13-2.96
				c0.14,0.23-3.53,2.72-3.4,2.96c0.03,0.05,4.56-2.69,4.58-2.65"/>
			<path class="st5" d="M652.4,324.51c0.03,0.05,4.57-2.7,4.6-2.66c0.18,0.3,4.88,2.63,5.06,2.93c0.03,0.05,4.56-2.69,4.58-2.65"/>
			<path class="st5" d="M631.45,324.51c0.03,0.05,4.57-2.7,4.6-2.66c0.18,0.3,4.88,2.63,5.06,2.93c0.03,0.05,4.56-2.69,4.58-2.65"/>
			<path class="st5" d="M610.49,324.51c0.03,0.05,4.57-2.7,4.6-2.66c0.18,0.3,4.88,2.63,5.06,2.93c0.03,0.05,4.56-2.69,4.58-2.65"/>
			<path class="st5" d="M589.53,324.51c0.03,0.05,4.57-2.7,4.6-2.66c0.18,0.3,4.88,2.63,5.06,2.93c0.03,0.05,4.56-2.69,4.58-2.65"/>
			<path class="st5" d="M568.58,324.51c0.03,0.05,4.57-2.7,4.6-2.66c0.09,0.15,0.06,2.79,0.15,2.94c0.05,0.08,5.08-3.04,5.13-2.96
				c0.12,0.21-2.84,2.74-2.72,2.95c0.05,0.08,5.08-3.04,5.13-2.96c0.12,0.21-2.75,2.75-2.63,2.95c0.03,0.05,4.56-2.69,4.58-2.65"/>
			<path class="st5" d="M547.62,324.51c0.03,0.05,4.57-2.7,4.6-2.66c0.18,0.3,4.88,2.63,5.06,2.93c0.03,0.05,4.56-2.69,4.58-2.65"/>
			<path class="st5" d="M526.66,324.51c0.03,0.05,4.57-2.7,4.6-2.66c0.18,0.3,4.88,2.63,5.06,2.93c0.03,0.05,4.56-2.69,4.58-2.65"/>
			<path class="st5" d="M505.71,324.51c0.03,0.05,4.57-2.7,4.6-2.66c0.18,0.3,4.88,2.63,5.06,2.93c0.03,0.05,4.56-2.69,4.58-2.65"/>
			<path class="st5" d="M484.75,324.51c0.03,0.05,4.57-2.7,4.6-2.66c0.18,0.3,4.88,2.63,5.06,2.93c0.03,0.05,4.56-2.69,4.58-2.65"/>
			<path class="st5" d="M463.79,324.51c0.03,0.05,4.57-2.7,4.6-2.66c0.13,0.22-3.15,2.73-3.02,2.95c0.05,0.08,5.08-3.04,5.13-2.96
				c0.12,0.22,2.83,2.72,2.95,2.94c0.03,0.05,4.56-2.69,4.58-2.65"/>
		</g>
	</g>
</g>
<g class="st4">
	<g>
		<g>
			<path class="st5" d="M694.32,335.17c0.03,0.05,4.57-2.7,4.6-2.66c0.11,0.2-2.49,2.76-2.38,2.95c0.05,0.08,5.08-3.04,5.13-2.96
				c0.11,0.19,2.2,2.74,2.31,2.94c0.03,0.05,4.56-2.69,4.58-2.65"/>
			<path class="st5" d="M673.36,335.17c0.03,0.05,4.57-2.7,4.6-2.66c0.18,0.3,4.88,2.63,5.06,2.93c0.03,0.05,4.56-2.69,4.58-2.65"/>
			<path class="st5" d="M652.4,335.17c0.03,0.05,4.57-2.7,4.6-2.66c0.18,0.3,4.88,2.63,5.06,2.93c0.03,0.05,4.56-2.69,4.58-2.65"/>
			<path class="st5" d="M631.45,335.17c0.03,0.05,4.57-2.7,4.6-2.66c0.18,0.3,4.88,2.63,5.06,2.93c0.03,0.05,4.56-2.69,4.58-2.65"/>
			<path class="st5" d="M610.49,335.17c0.03,0.05,4.57-2.7,4.6-2.66c0.18,0.3,4.88,2.63,5.06,2.93c0.03,0.05,4.56-2.69,4.58-2.65"/>
			<path class="st5" d="M589.53,335.17c0.03,0.05,4.57-2.7,4.6-2.66c0.18,0.3,4.88,2.63,5.06,2.93c0.03,0.05,4.56-2.69,4.58-2.65"/>
			<path class="st5" d="M568.58,335.17c0.03,0.05,4.57-2.7,4.6-2.66c0.18,0.3,4.88,2.63,5.06,2.93c0.03,0.05,4.56-2.69,4.58-2.65"/>
			<path class="st5" d="M547.62,335.17c0.03,0.05,4.57-2.7,4.6-2.66c0.18,0.3,4.88,2.63,5.06,2.93c0.03,0.05,4.56-2.69,4.58-2.65"/>
			<path class="st5" d="M526.66,335.17c0.03,0.05,4.57-2.7,4.6-2.66c0.18,0.3,4.88,2.63,5.06,2.93c0.03,0.05,4.56-2.69,4.58-2.65"/>
			<path class="st5" d="M505.71,335.17c0.03,0.05,4.57-2.7,4.6-2.66c0.11,0.19,1.91,2.75,2.01,2.94c0.05,0.08,5.08-3.04,5.13-2.96
				c0.18,0.3-5.24,2.66-5.07,2.96c0.05,0.08,5.08-3.04,5.13-2.96c0.12,0.2-2.62,2.75-2.5,2.95c0.04,0.07,4.89-2.91,4.93-2.85
				c0.16,0.28-4.74,2.57-4.58,2.85c0.03,0.05,4.56-2.69,4.58-2.65"/>
			<path class="st5" d="M484.75,335.17c0.03,0.05,4.57-2.7,4.6-2.66c0.18,0.3,4.88,2.63,5.06,2.93c0.03,0.05,4.56-2.69,4.58-2.65"/>
			<path class="st5" d="M463.79,335.17c0.03,0.05,4.57-2.7,4.6-2.66c0.18,0.3,4.88,2.63,5.06,2.93c0.03,0.05,4.56-2.69,4.58-2.65"/>
		</g>
	</g>
</g>
<g class="st4">
	<g>
		<g>
			<path class="st5" d="M26.62,242.78c0.03,0.05,4.57-2.7,4.6-2.66c0.18,0.3,4.88,2.63,5.06,2.93c0.03,0.05,4.56-2.69,4.58-2.65"/>
			<path class="st5" d="M5.66,242.78c0.03,0.05,4.57-2.7,4.6-2.66c0.18,0.3,4.88,2.63,5.06,2.93c0.03,0.05,4.56-2.69,4.58-2.65"/>
			<path class="st5" d="M-15.29,242.78c0.03,0.05,4.57-2.7,4.6-2.66c0.18,0.3,4.88,2.63,5.06,2.93c0.03,0.05,4.56-2.69,4.58-2.65"/>
			<path class="st5" d="M-36.25,242.78c0.03,0.05,4.57-2.7,4.6-2.66c0.09,0.16,0.67,2.79,0.76,2.94c0.05,0.08,5.08-3.04,5.13-2.96
				c0.09,0.16-0.92,2.79-0.83,2.95c0.03,0.05,4.56-2.69,4.58-2.65"/>
			<path class="st5" d="M-57.21,242.78c0.03,0.05,4.57-2.7,4.6-2.66c0.18,0.3,4.88,2.63,5.06,2.93c0.03,0.05,4.56-2.69,4.58-2.65"/>
			<path class="st5" d="M-78.16,242.78c0.03,0.05,4.57-2.7,4.6-2.66c0.18,0.3,4.88,2.63,5.06,2.93c0.03,0.05,4.56-2.69,4.58-2.65"/>
			<path class="st5" d="M-99.12,242.78c0.03,0.05,4.57-2.7,4.6-2.66c0.18,0.3,4.88,2.63,5.06,2.93c0.03,0.05,4.56-2.69,4.58-2.65"/>
			<path class="st5" d="M-120.08,242.78c0.03,0.05,4.57-2.7,4.6-2.66c0.18,0.3,4.88,2.63,5.06,2.93c0.03,0.05,4.56-2.69,4.58-2.65"
				/>
			<path class="st5" d="M-141.03,242.78c0.03,0.05,4.57-2.7,4.6-2.66c0.11,0.2-2.53,2.75-2.41,2.95c0.05,0.08,5.08-3.04,5.13-2.96
				c0.18,0.3-5.24,2.66-5.07,2.96c0.05,0.08,5.08-3.04,5.13-2.96c0.11,0.19,2.17,2.75,2.28,2.94c0.03,0.05,4.56-2.69,4.58-2.65"/>
			<path class="st5" d="M-161.99,242.78c0.03,0.05,4.57-2.7,4.6-2.66c0.18,0.3,4.88,2.63,5.06,2.93c0.03,0.05,4.56-2.69,4.58-2.65"
				/>
			<path class="st5" d="M-182.95,242.78c0.03,0.05,4.57-2.7,4.6-2.66c0.18,0.3,4.88,2.63,5.06,2.93c0.03,0.05,4.56-2.69,4.58-2.65"
				/>
			<path class="st5" d="M-203.9,242.78c0.03,0.05,4.57-2.7,4.6-2.66c0.18,0.3,4.88,2.63,5.06,2.93c0.03,0.05,4.56-2.69,4.58-2.65"/>
		</g>
	</g>
</g>
<g class="st4">
	<g>
		<g>
			<path class="st5" d="M22.6,252.26c0.03,0.05,4.57-2.7,4.6-2.66c0.09,0.16,0.86,2.78,0.95,2.94c0.05,0.08,5.08-3.04,5.13-2.96
				c0.09,0.16-1.11,2.79-1.02,2.95c0.03,0.05,4.56-2.69,4.58-2.65"/>
			<path class="st5" d="M1.65,252.26c0.03,0.05,4.57-2.7,4.6-2.66c0.18,0.3,4.88,2.63,5.06,2.93c0.03,0.05,4.56-2.69,4.58-2.65"/>
			<path class="st5" d="M-19.31,252.26c0.03,0.05,4.57-2.7,4.6-2.66c0.18,0.3,4.88,2.63,5.06,2.93c0.03,0.05,4.56-2.69,4.58-2.65"/>
			<path class="st5" d="M-40.27,252.26c0.03,0.05,4.57-2.7,4.6-2.66c0.18,0.3,4.88,2.63,5.06,2.93c0.03,0.05,4.56-2.69,4.58-2.65"/>
			<path class="st5" d="M-61.22,252.26c0.03,0.05,4.57-2.7,4.6-2.66c0.18,0.3,4.88,2.63,5.06,2.93c0.03,0.05,4.56-2.69,4.58-2.65"/>
			<path class="st5" d="M-82.18,252.26c0.03,0.05,4.57-2.7,4.6-2.66c0.11,0.19-2.34,2.76-2.22,2.95c0.05,0.08,5.08-3.04,5.13-2.96
				c0.11,0.19,2.05,2.75,2.16,2.94c0.03,0.05,4.56-2.69,4.58-2.65"/>
			<path class="st5" d="M-103.14,252.26c0.03,0.05,4.57-2.7,4.6-2.66c0.18,0.3,4.88,2.63,5.06,2.93c0.03,0.05,4.56-2.69,4.58-2.65"
				/>
			<path class="st5" d="M-124.09,252.26c0.03,0.05,4.57-2.7,4.6-2.66c0.18,0.3,4.88,2.63,5.06,2.93c0.03,0.05,4.56-2.69,4.58-2.65"
				/>
			<path class="st5" d="M-145.05,252.26c0.03,0.05,4.57-2.7,4.6-2.66c0.18,0.3,4.88,2.63,5.06,2.93c0.03,0.05,4.56-2.69,4.58-2.65"
				/>
			<path class="st5" d="M-166.01,252.26c0.03,0.05,4.57-2.7,4.6-2.66c0.18,0.3,4.88,2.63,5.06,2.93c0.03,0.05,4.56-2.69,4.58-2.65"
				/>
			<path class="st5" d="M-186.96,252.26c0.03,0.05,4.57-2.7,4.6-2.66c0.18,0.3,4.88,2.63,5.06,2.93c0.03,0.05,4.56-2.69,4.58-2.65"
				/>
			<path class="st5" d="M-207.92,252.26c0.03,0.05,4.57-2.7,4.6-2.66c0.18,0.3,4.88,2.63,5.06,2.93c0.03,0.05,4.56-2.69,4.58-2.65"
				/>
		</g>
	</g>
</g>
<g class="st4">
	<g>
		<g>
			<path class="st5" d="M26.62,262.92c0.03,0.05,4.57-2.7,4.6-2.66c0.18,0.3,4.88,2.63,5.06,2.93c0.03,0.05,4.56-2.69,4.58-2.65"/>
			<path class="st5" d="M5.66,262.92c0.03,0.05,4.57-2.7,4.6-2.66c0.18,0.3,4.88,2.63,5.06,2.93c0.03,0.05,4.56-2.69,4.58-2.65"/>
			<path class="st5" d="M-15.29,262.92c0.03,0.05,4.57-2.7,4.6-2.66c0.16,0.28,4.47,2.65,4.63,2.93c0.04,0.07,4.96-2.96,5-2.89
				c0.16,0.28-4.74,2.61-4.57,2.89c0.03,0.05,4.56-2.69,4.58-2.65"/>
			<path class="st5" d="M-36.25,262.92c0.03,0.05,4.57-2.7,4.6-2.66c0.18,0.3,4.88,2.63,5.06,2.93c0.03,0.05,4.56-2.69,4.58-2.65"/>
			<path class="st5" d="M-57.21,262.92c0.03,0.05,4.57-2.7,4.6-2.66c0.18,0.3,4.88,2.63,5.06,2.93c0.03,0.05,4.56-2.69,4.58-2.65"/>
			<path class="st5" d="M-78.16,262.92c0.03,0.05,4.57-2.7,4.6-2.66c0.18,0.3,4.88,2.63,5.06,2.93c0.03,0.05,4.56-2.69,4.58-2.65"/>
			<path class="st5" d="M-99.12,262.92c0.03,0.05,4.57-2.7,4.6-2.66c0.18,0.3,4.88,2.63,5.06,2.93c0.03,0.05,4.56-2.69,4.58-2.65"/>
			<path class="st5" d="M-120.08,262.92c0.03,0.05,4.57-2.7,4.6-2.66c0.1,0.17,1.36,2.77,1.45,2.94c0.05,0.08,5.08-3.04,5.13-2.96
				c0.1,0.17-1.62,2.78-1.52,2.95c0.03,0.05,4.56-2.69,4.58-2.65"/>
			<path class="st5" d="M-141.03,262.92c0.03,0.05,4.57-2.7,4.6-2.66c0.18,0.3,4.88,2.63,5.06,2.93c0.03,0.05,4.56-2.69,4.58-2.65"
				/>
			<path class="st5" d="M-161.99,262.92c0.03,0.05,4.57-2.7,4.6-2.66c0.18,0.3,4.88,2.63,5.06,2.93c0.03,0.05,4.56-2.69,4.58-2.65"
				/>
			<path class="st5" d="M-182.95,262.92c0.03,0.05,4.57-2.7,4.6-2.66c0.18,0.3,4.88,2.63,5.06,2.93c0.03,0.05,4.56-2.69,4.58-2.65"
				/>
			<path class="st5" d="M-203.9,262.92c0.03,0.05,4.57-2.7,4.6-2.66c0.18,0.3,4.88,2.63,5.06,2.93c0.03,0.05,4.56-2.69,4.58-2.65"/>
		</g>
	</g>
</g>
<g class="st4">
	<g>
		<g>
			<path class="st5" d="M26.62,273.58c0.03,0.05,4.57-2.7,4.6-2.66c0.18,0.3,4.88,2.63,5.06,2.93c0.03,0.05,4.56-2.69,4.58-2.65"/>
			<path class="st5" d="M5.66,273.58c0.03,0.05,4.57-2.7,4.6-2.66c0.18,0.3,4.88,2.63,5.06,2.93c0.03,0.05,4.56-2.69,4.58-2.65"/>
			<path class="st5" d="M-15.29,273.58c0.03,0.05,4.57-2.7,4.6-2.66c0.18,0.3,4.88,2.63,5.06,2.93c0.03,0.05,4.56-2.69,4.58-2.65"/>
			<path class="st5" d="M-36.25,273.58c0.03,0.05,4.57-2.7,4.6-2.66c0.12,0.21,2.69,2.73,2.82,2.94c0.05,0.08,5.08-3.04,5.13-2.96
				c0.12,0.21-3.01,2.74-2.89,2.95c0.03,0.05,4.56-2.69,4.58-2.65"/>
			<path class="st5" d="M-57.21,273.58c0.03,0.05,4.57-2.7,4.6-2.66c0.18,0.3,4.88,2.63,5.06,2.93c0.03,0.05,4.56-2.69,4.58-2.65"/>
			<path class="st5" d="M-78.16,273.58c0.03,0.05,4.57-2.7,4.6-2.66c0.18,0.3,4.88,2.63,5.06,2.93c0.03,0.05,4.56-2.69,4.58-2.65"/>
			<path class="st5" d="M-99.12,273.58c0.03,0.05,4.57-2.7,4.6-2.66c0.18,0.3,4.88,2.63,5.06,2.93c0.03,0.05,4.56-2.69,4.58-2.65"/>
			<path class="st5" d="M-120.08,273.58c0.03,0.05,4.57-2.7,4.6-2.66c0.18,0.3,4.88,2.63,5.06,2.93c0.03,0.05,4.56-2.69,4.58-2.65"
				/>
			<path class="st5" d="M-141.03,273.58c0.03,0.05,4.57-2.7,4.6-2.66c0.09,0.15-0.45,2.79-0.36,2.95c0.05,0.08,5.08-3.04,5.13-2.96
				c0.09,0.15,0.2,2.79,0.29,2.94c0.03,0.05,4.56-2.69,4.58-2.65"/>
			<path class="st5" d="M-161.99,273.58c0.03,0.05,4.57-2.7,4.6-2.66c0.18,0.3,4.88,2.63,5.06,2.93c0.03,0.05,4.56-2.69,4.58-2.65"
				/>
			<path class="st5" d="M-182.95,273.58c0.03,0.05,4.57-2.7,4.6-2.66c0.18,0.3,4.88,2.63,5.06,2.93c0.03,0.05,4.56-2.69,4.58-2.65"
				/>
			<path class="st5" d="M-203.9,273.58c0.03,0.05,4.57-2.7,4.6-2.66c0.18,0.3,4.88,2.63,5.06,2.93c0.03,0.05,4.56-2.69,4.58-2.65"/>
		</g>
	</g>
</g>
<g class="st4">
	<g>
		<g>
			<path class="st5" d="M26.62,284.24c0.03,0.05,4.57-2.7,4.6-2.66c0.18,0.3,4.88,2.63,5.06,2.93c0.03,0.05,4.56-2.69,4.58-2.65"/>
			<path class="st5" d="M5.66,284.24c0.03,0.05,4.57-2.7,4.6-2.66c0.1,0.18,1.69,2.76,1.79,2.94c0.05,0.08,5.08-3.04,5.13-2.96
				c0.1,0.18-1.96,2.77-1.86,2.95c0.03,0.05,4.56-2.69,4.58-2.65"/>
			<path class="st5" d="M-15.29,284.24c0.03,0.05,4.57-2.7,4.6-2.66c0.18,0.3,4.88,2.63,5.06,2.93c0.03,0.05,4.56-2.69,4.58-2.65"/>
			<path class="st5" d="M-36.25,284.24c0.03,0.05,4.57-2.7,4.6-2.66c0.18,0.3,4.88,2.63,5.06,2.93c0.03,0.05,4.56-2.69,4.58-2.65"/>
			<path class="st5" d="M-57.21,284.24c0.03,0.05,4.57-2.7,4.6-2.66c0.18,0.3,4.88,2.63,5.06,2.93c0.03,0.05,4.56-2.69,4.58-2.65"/>
			<path class="st5" d="M-78.16,284.24c0.03,0.05,4.57-2.7,4.6-2.66c0.18,0.3,4.88,2.63,5.06,2.93c0.03,0.05,4.56-2.69,4.58-2.65"/>
			<path class="st5" d="M-99.12,284.24c0.03,0.05,4.57-2.7,4.6-2.66c0.1,0.17-1.48,2.78-1.39,2.95c0.05,0.08,5.08-3.04,5.13-2.96
				c0.09,0.16,0.76,2.78,0.85,2.94c0.04,0.07,5-2.98,5.04-2.91c0.16,0.28-4.74,2.63-4.57,2.91c0.03,0.05,4.56-2.69,4.58-2.65"/>
			<path class="st5" d="M-120.08,284.24c0.03,0.05,4.57-2.7,4.6-2.66c0.18,0.3,4.88,2.63,5.06,2.93c0.03,0.05,4.56-2.69,4.58-2.65"
				/>
			<path class="st5" d="M-141.03,284.24c0.03,0.05,4.57-2.7,4.6-2.66c0.18,0.3,4.88,2.63,5.06,2.93c0.03,0.05,4.56-2.69,4.58-2.65"
				/>
			<path class="st5" d="M-161.99,284.24c0.03,0.05,4.57-2.7,4.6-2.66c0.18,0.3,4.88,2.63,5.06,2.93c0.03,0.05,4.56-2.69,4.58-2.65"
				/>
			<path class="st5" d="M-182.95,284.24c0.03,0.05,4.57-2.7,4.6-2.66c0.18,0.3,4.88,2.63,5.06,2.93c0.03,0.05,4.56-2.69,4.58-2.65"
				/>
			<path class="st5" d="M-203.9,284.24c0.03,0.05,4.57-2.7,4.6-2.66c0.16,0.28-4.72,2.68-4.56,2.96c0.05,0.08,5.08-3.04,5.13-2.96
				c0.16,0.28,4.33,2.65,4.49,2.93c0.03,0.05,4.56-2.69,4.58-2.65"/>
		</g>
	</g>
</g>
<g class="st4">
	<g>
		<g>
			<path class="st5" d="M694.32,242.19c0.03,0.05,4.57-2.7,4.6-2.66c0.1,0.18,1.55,2.77,1.65,2.94c0.05,0.08,5.08-3.04,5.13-2.96
				c0.1,0.18-1.82,2.77-1.72,2.95c0.03,0.05,4.56-2.69,4.58-2.65"/>
			<path class="st5" d="M673.36,242.19c0.03,0.05,4.57-2.7,4.6-2.66c0.18,0.3,4.88,2.63,5.06,2.93c0.03,0.05,4.56-2.69,4.58-2.65"/>
			<path class="st5" d="M652.4,242.19c0.03,0.05,4.57-2.7,4.6-2.66c0.18,0.3,4.88,2.63,5.06,2.93c0.03,0.05,4.56-2.69,4.58-2.65"/>
			<path class="st5" d="M631.45,242.19c0.03,0.05,4.57-2.7,4.6-2.66c0.18,0.3,4.88,2.63,5.06,2.93c0.03,0.05,4.56-2.69,4.58-2.65"/>
			<path class="st5" d="M610.49,242.19c0.03,0.05,4.57-2.7,4.6-2.66c0.18,0.3,4.88,2.63,5.06,2.93c0.03,0.05,4.56-2.69,4.58-2.65"/>
			<path class="st5" d="M589.53,242.19c0.03,0.05,4.57-2.7,4.6-2.66c0.1,0.17-1.62,2.78-1.52,2.95c0.05,0.08,5.08-3.04,5.13-2.96
				c0.1,0.17,1.36,2.77,1.45,2.94c0.03,0.05,4.56-2.69,4.58-2.65"/>
			<path class="st5" d="M568.58,242.19c0.03,0.05,4.57-2.7,4.6-2.66c0.18,0.3,4.88,2.63,5.06,2.93c0.03,0.05,4.56-2.69,4.58-2.65"/>
			<path class="st5" d="M547.62,242.19c0.03,0.05,4.57-2.7,4.6-2.66c0.18,0.3,4.88,2.63,5.06,2.93c0.03,0.05,4.56-2.69,4.58-2.65"/>
			<path class="st5" d="M526.66,242.19c0.03,0.05,4.57-2.7,4.6-2.66c0.18,0.3,4.88,2.63,5.06,2.93c0.03,0.05,4.56-2.69,4.58-2.65"/>
			<path class="st5" d="M505.71,242.19c0.03,0.05,4.57-2.7,4.6-2.66c0.18,0.3,4.88,2.63,5.06,2.93c0.03,0.05,4.56-2.69,4.58-2.65"/>
			<path class="st5" d="M484.75,242.19c0.03,0.05,4.57-2.7,4.6-2.66c0.16,0.28-4.76,2.62-4.6,2.9c0.04,0.07,4.99-2.98,5.03-2.9
				c0.16,0.28,4.46,2.65,4.63,2.93c0.03,0.05,4.56-2.69,4.58-2.65"/>
			<path class="st5" d="M463.79,242.19c0.03,0.05,4.57-2.7,4.6-2.66c0.18,0.3,4.88,2.63,5.06,2.93c0.03,0.05,4.56-2.69,4.58-2.65"/>
		</g>
	</g>
</g>
<g class="st4">
	<g>
		<g>
			<path class="st5" d="M690.3,251.66c0.03,0.05,4.57-2.7,4.6-2.66c0.18,0.3,4.88,2.63,5.06,2.93c0.03,0.05,4.56-2.69,4.58-2.65"/>
			<path class="st5" d="M669.34,251.66c0.03,0.05,4.57-2.7,4.6-2.66c0.18,0.3,4.88,2.63,5.06,2.93c0.03,0.05,4.56-2.69,4.58-2.65"/>
			<path class="st5" d="M648.39,251.66c0.03,0.05,4.57-2.7,4.6-2.66c0.18,0.3,4.88,2.63,5.06,2.93c0.03,0.05,4.56-2.69,4.58-2.65"/>
			<path class="st5" d="M627.43,251.66c0.03,0.05,4.57-2.7,4.6-2.66c0.18,0.3,4.88,2.63,5.06,2.93c0.03,0.05,4.56-2.69,4.58-2.65"/>
			<path class="st5" d="M606.47,251.66c0.03,0.05,4.57-2.7,4.6-2.66c0.18,0.3,4.88,2.63,5.06,2.93c0.03,0.05,4.56-2.69,4.58-2.65"/>
			<path class="st5" d="M585.52,251.66c0.03,0.05,4.57-2.7,4.6-2.66c0.18,0.3,4.88,2.63,5.06,2.93c0.03,0.05,4.56-2.69,4.58-2.65"/>
			<path class="st5" d="M564.56,251.66c0.03,0.05,4.57-2.7,4.6-2.66c0.18,0.3,4.88,2.63,5.06,2.93c0.03,0.05,4.56-2.69,4.58-2.65"/>
			<path class="st5" d="M543.6,251.66c0.03,0.05,4.57-2.7,4.6-2.66c0.11,0.19,2.16,2.75,2.27,2.94c0.05,0.08,5.08-3.04,5.13-2.96
				c0.13,0.23-3.43,2.72-3.29,2.95c0.05,0.08,5.08-3.04,5.13-2.96c0.15,0.27-4.32,2.69-4.17,2.96c0.03,0.05,4.56-2.69,4.58-2.65"/>
			<path class="st5" d="M522.65,251.66c0.03,0.05,4.57-2.7,4.6-2.66c0.18,0.3,4.88,2.63,5.06,2.93c0.03,0.05,4.56-2.69,4.58-2.65"/>
			<path class="st5" d="M501.69,251.66c0.03,0.05,4.57-2.7,4.6-2.66c0.18,0.3,4.88,2.63,5.06,2.93c0.03,0.05,4.56-2.69,4.58-2.65"/>
			<path class="st5" d="M480.74,251.66c0.03,0.05,4.57-2.7,4.6-2.66c0.18,0.3,4.88,2.63,5.06,2.93c0.03,0.05,4.56-2.69,4.58-2.65"/>
			<path class="st5" d="M459.78,251.66c0.03,0.05,4.57-2.7,4.6-2.66c0.18,0.3,4.88,2.63,5.06,2.93c0.03,0.05,4.56-2.69,4.58-2.65"/>
		</g>
	</g>
</g>
<g class="st4">
	<g>
		<g>
			<path class="st5" d="M694.32,262.33c0.03,0.05,4.57-2.7,4.6-2.66c0.18,0.3,4.88,2.63,5.06,2.93c0.03,0.05,4.56-2.69,4.58-2.65"/>
			<path class="st5" d="M673.36,262.33c0.03,0.05,4.57-2.7,4.6-2.66c0.18,0.3,4.88,2.63,5.06,2.93c0.03,0.05,4.56-2.69,4.58-2.65"/>
			<path class="st5" d="M652.4,262.33c0.03,0.05,4.57-2.7,4.6-2.66c0.18,0.3,4.88,2.63,5.06,2.93c0.03,0.05,4.56-2.69,4.58-2.65"/>
			<path class="st5" d="M631.45,262.33c0.03,0.05,4.57-2.7,4.6-2.66c0.18,0.3,4.88,2.63,5.06,2.93c0.03,0.05,4.56-2.69,4.58-2.65"/>
			<path class="st5" d="M610.49,262.33c0.03,0.05,4.57-2.7,4.6-2.66c0.1,0.18,1.66,2.76,1.76,2.94c0.05,0.08,5.08-3.04,5.13-2.96
				c0.1,0.18-1.94,2.77-1.83,2.95c0.03,0.05,4.56-2.69,4.58-2.65"/>
			<path class="st5" d="M589.53,262.32c0.03,0.05,4.57-2.7,4.6-2.66c0.18,0.3,4.88,2.63,5.06,2.93c0.03,0.05,4.56-2.69,4.58-2.65"/>
			<path class="st5" d="M568.58,262.33c0.03,0.05,4.57-2.7,4.6-2.66c0.18,0.3,4.88,2.63,5.06,2.93c0.03,0.05,4.56-2.69,4.58-2.65"/>
			<path class="st5" d="M547.62,262.33c0.03,0.05,4.57-2.7,4.6-2.66c0.18,0.3,4.88,2.63,5.06,2.93c0.03,0.05,4.56-2.69,4.58-2.65"/>
			<path class="st5" d="M526.66,262.33c0.03,0.05,4.57-2.7,4.6-2.66c0.18,0.3,4.88,2.63,5.06,2.93c0.03,0.05,4.56-2.69,4.58-2.65"/>
			<path class="st5" d="M505.71,262.33c0.03,0.05,4.57-2.7,4.6-2.66c0.1,0.17-1.51,2.78-1.41,2.95c0.05,0.08,5.08-3.04,5.13-2.96
				c0.1,0.17,1.24,2.77,1.34,2.94c0.03,0.05,4.56-2.69,4.58-2.65"/>
			<path class="st5" d="M484.75,262.33c0.03,0.05,4.57-2.7,4.6-2.66c0.18,0.3,4.88,2.63,5.06,2.93c0.03,0.05,4.56-2.69,4.58-2.65"/>
			<path class="st5" d="M463.79,262.33c0.03,0.05,4.57-2.7,4.6-2.66c0.18,0.3,4.88,2.63,5.06,2.93c0.03,0.05,4.56-2.69,4.58-2.65"/>
		</g>
	</g>
</g>
<g class="st4">
	<g>
		<g>
			<path class="st5" d="M694.32,272.99c0.03,0.05,4.57-2.7,4.6-2.66c0.18,0.3,4.88,2.63,5.06,2.93c0.03,0.05,4.56-2.69,4.58-2.65"/>
			<path class="st5" d="M673.36,272.99c0.03,0.05,4.57-2.7,4.6-2.66c0.13,0.23,3.19,2.71,3.33,2.94c0.05,0.08,5.08-3.04,5.13-2.96
				c0.14,0.23-3.53,2.72-3.4,2.96c0.03,0.05,4.56-2.69,4.58-2.65"/>
			<path class="st5" d="M652.4,272.99c0.03,0.05,4.57-2.7,4.6-2.66c0.18,0.3,4.88,2.63,5.06,2.93c0.03,0.05,4.56-2.69,4.58-2.65"/>
			<path class="st5" d="M631.45,272.99c0.03,0.05,4.57-2.7,4.6-2.66c0.18,0.3,4.88,2.63,5.06,2.93c0.03,0.05,4.56-2.69,4.58-2.65"/>
			<path class="st5" d="M610.49,272.99c0.03,0.05,4.57-2.7,4.6-2.66c0.18,0.3,4.88,2.63,5.06,2.93c0.03,0.05,4.56-2.69,4.58-2.65"/>
			<path class="st5" d="M589.53,272.99c0.03,0.05,4.57-2.7,4.6-2.66c0.18,0.3,4.88,2.63,5.06,2.93c0.03,0.05,4.56-2.69,4.58-2.65"/>
			<path class="st5" d="M568.58,272.99c0.03,0.05,4.57-2.7,4.6-2.66c0.09,0.15,0.06,2.79,0.15,2.94c0.05,0.08,5.08-3.04,5.13-2.96
				c0.12,0.21-2.84,2.74-2.72,2.95c0.05,0.08,5.08-3.04,5.13-2.96c0.12,0.21-2.75,2.75-2.63,2.95c0.03,0.05,4.56-2.69,4.58-2.65"/>
			<path class="st5" d="M547.62,272.99c0.03,0.05,4.57-2.7,4.6-2.66c0.18,0.3,4.88,2.63,5.06,2.93c0.03,0.05,4.56-2.69,4.58-2.65"/>
			<path class="st5" d="M526.66,272.99c0.03,0.05,4.57-2.7,4.6-2.66c0.18,0.3,4.88,2.63,5.06,2.93c0.03,0.05,4.56-2.69,4.58-2.65"/>
			<path class="st5" d="M505.71,272.99c0.03,0.05,4.57-2.7,4.6-2.66c0.18,0.3,4.88,2.63,5.06,2.93c0.03,0.05,4.56-2.69,4.58-2.65"/>
			<path class="st5" d="M484.75,272.99c0.03,0.05,4.57-2.7,4.6-2.66c0.18,0.3,4.88,2.63,5.06,2.93c0.03,0.05,4.56-2.69,4.58-2.65"/>
			<path class="st5" d="M463.79,272.99c0.03,0.05,4.57-2.7,4.6-2.66c0.13,0.22-3.15,2.73-3.02,2.95c0.05,0.08,5.08-3.04,5.13-2.96
				c0.12,0.22,2.83,2.72,2.95,2.94c0.03,0.05,4.56-2.69,4.58-2.65"/>
		</g>
	</g>
</g>
<g class="st4">
	<g>
		<g>
			<path class="st5" d="M694.32,283.65c0.03,0.05,4.57-2.7,4.6-2.66c0.11,0.2-2.49,2.76-2.38,2.95c0.05,0.08,5.08-3.04,5.13-2.96
				c0.11,0.19,2.2,2.74,2.31,2.94c0.03,0.05,4.56-2.69,4.58-2.65"/>
			<path class="st5" d="M673.36,283.65c0.03,0.05,4.57-2.7,4.6-2.66c0.18,0.3,4.88,2.63,5.06,2.93c0.03,0.05,4.56-2.69,4.58-2.65"/>
			<path class="st5" d="M652.4,283.65c0.03,0.05,4.57-2.7,4.6-2.66c0.18,0.3,4.88,2.63,5.06,2.93c0.03,0.05,4.56-2.69,4.58-2.65"/>
			<path class="st5" d="M631.45,283.65c0.03,0.05,4.57-2.7,4.6-2.66c0.18,0.3,4.88,2.63,5.06,2.93c0.03,0.05,4.56-2.69,4.58-2.65"/>
			<path class="st5" d="M610.49,283.65c0.03,0.05,4.57-2.7,4.6-2.66c0.18,0.3,4.88,2.63,5.06,2.93c0.03,0.05,4.56-2.69,4.58-2.65"/>
			<path class="st5" d="M589.53,283.65c0.03,0.05,4.57-2.7,4.6-2.66c0.18,0.3,4.88,2.63,5.06,2.93c0.03,0.05,4.56-2.69,4.58-2.65"/>
			<path class="st5" d="M568.58,283.65c0.03,0.05,4.57-2.7,4.6-2.66c0.18,0.3,4.88,2.63,5.06,2.93c0.03,0.05,4.56-2.69,4.58-2.65"/>
			<path class="st5" d="M547.62,283.65c0.03,0.05,4.57-2.7,4.6-2.66c0.18,0.3,4.88,2.63,5.06,2.93c0.03,0.05,4.56-2.69,4.58-2.65"/>
			<path class="st5" d="M526.66,283.65c0.03,0.05,4.57-2.7,4.6-2.66c0.18,0.3,4.88,2.63,5.06,2.93c0.03,0.05,4.56-2.69,4.58-2.65"/>
			<path class="st5" d="M505.71,283.65c0.03,0.05,4.57-2.7,4.6-2.66c0.11,0.19,1.91,2.75,2.01,2.94c0.05,0.08,5.08-3.04,5.13-2.96
				c0.18,0.3-5.24,2.66-5.07,2.96c0.05,0.08,5.08-3.04,5.13-2.96c0.12,0.2-2.62,2.75-2.5,2.95c0.04,0.07,4.89-2.91,4.93-2.85
				c0.16,0.28-4.74,2.57-4.58,2.85c0.03,0.05,4.56-2.69,4.58-2.65"/>
			<path class="st5" d="M484.75,283.65c0.03,0.05,4.57-2.7,4.6-2.66c0.18,0.3,4.88,2.63,5.06,2.93c0.03,0.05,4.56-2.69,4.58-2.65"/>
			<path class="st5" d="M463.79,283.65c0.03,0.05,4.57-2.7,4.6-2.66c0.18,0.3,4.88,2.63,5.06,2.93c0.03,0.05,4.56-2.69,4.58-2.65"/>
		</g>
	</g>
</g>
<g class="st4">
	<g>
		<g>
			<path class="st5" d="M26.62,347.02c0.03,0.05,4.57-2.7,4.6-2.66c0.18,0.3,4.88,2.63,5.06,2.93c0.03,0.05,4.56-2.69,4.58-2.65"/>
			<path class="st5" d="M5.66,347.02c0.03,0.05,4.57-2.7,4.6-2.66c0.18,0.3,4.88,2.63,5.06,2.93c0.03,0.05,4.56-2.69,4.58-2.65"/>
			<path class="st5" d="M-15.29,347.02c0.03,0.05,4.57-2.7,4.6-2.66c0.18,0.3,4.88,2.63,5.06,2.93c0.03,0.05,4.56-2.69,4.58-2.65"/>
			<path class="st5" d="M-36.25,347.02c0.03,0.05,4.57-2.7,4.6-2.66c0.09,0.16,0.67,2.79,0.76,2.94c0.05,0.08,5.08-3.04,5.13-2.96
				c0.09,0.16-0.92,2.79-0.83,2.95c0.03,0.05,4.56-2.69,4.58-2.65"/>
			<path class="st5" d="M-57.21,347.02c0.03,0.05,4.57-2.7,4.6-2.66c0.18,0.3,4.88,2.63,5.06,2.93c0.03,0.05,4.56-2.69,4.58-2.65"/>
			<path class="st5" d="M-78.16,347.02c0.03,0.05,4.57-2.7,4.6-2.66c0.18,0.3,4.88,2.63,5.06,2.93c0.03,0.05,4.56-2.69,4.58-2.65"/>
			<path class="st5" d="M-99.12,347.02c0.03,0.05,4.57-2.7,4.6-2.66c0.18,0.3,4.88,2.63,5.06,2.93c0.03,0.05,4.56-2.69,4.58-2.65"/>
			<path class="st5" d="M-120.08,347.02c0.03,0.05,4.57-2.7,4.6-2.66c0.18,0.3,4.88,2.63,5.06,2.93c0.03,0.05,4.56-2.69,4.58-2.65"
				/>
			<path class="st5" d="M-141.03,347.02c0.03,0.05,4.57-2.7,4.6-2.66c0.11,0.2-2.53,2.75-2.41,2.95c0.05,0.08,5.08-3.04,5.13-2.96
				c0.18,0.3-5.24,2.66-5.07,2.96c0.05,0.08,5.08-3.04,5.13-2.96c0.11,0.19,2.17,2.75,2.28,2.94c0.03,0.05,4.56-2.69,4.58-2.65"/>
			<path class="st5" d="M-161.99,347.02c0.03,0.05,4.57-2.7,4.6-2.66c0.18,0.3,4.88,2.63,5.06,2.93c0.03,0.05,4.56-2.69,4.58-2.65"
				/>
			<path class="st5" d="M-182.95,347.02c0.03,0.05,4.57-2.7,4.6-2.66c0.18,0.3,4.88,2.63,5.06,2.93c0.03,0.05,4.56-2.69,4.58-2.65"
				/>
			<path class="st5" d="M-203.9,347.02c0.03,0.05,4.57-2.7,4.6-2.66c0.18,0.3,4.88,2.63,5.06,2.93c0.03,0.05,4.56-2.69,4.58-2.65"/>
		</g>
	</g>
</g>
<g class="st4">
	<g>
		<g>
			<path class="st5" d="M22.6,356.49c0.03,0.05,4.57-2.7,4.6-2.66c0.09,0.16,0.86,2.78,0.95,2.94c0.05,0.08,5.08-3.04,5.13-2.96
				c0.09,0.16-1.11,2.79-1.02,2.95c0.03,0.05,4.56-2.69,4.58-2.65"/>
			<path class="st5" d="M1.65,356.49c0.03,0.05,4.57-2.7,4.6-2.66c0.18,0.3,4.88,2.63,5.06,2.93c0.03,0.05,4.56-2.69,4.58-2.65"/>
			<path class="st5" d="M-19.31,356.49c0.03,0.05,4.57-2.7,4.6-2.66c0.18,0.3,4.88,2.63,5.06,2.93c0.03,0.05,4.56-2.69,4.58-2.65"/>
			<path class="st5" d="M-40.27,356.49c0.03,0.05,4.57-2.7,4.6-2.66c0.18,0.3,4.88,2.63,5.06,2.93c0.03,0.05,4.56-2.69,4.58-2.65"/>
			<path class="st5" d="M-61.22,356.49c0.03,0.05,4.57-2.7,4.6-2.66c0.18,0.3,4.88,2.63,5.06,2.93c0.03,0.05,4.56-2.69,4.58-2.65"/>
			<path class="st5" d="M-82.18,356.49c0.03,0.05,4.57-2.7,4.6-2.66c0.11,0.19-2.34,2.76-2.22,2.95c0.05,0.08,5.08-3.04,5.13-2.96
				c0.11,0.19,2.05,2.75,2.16,2.94c0.03,0.05,4.56-2.69,4.58-2.65"/>
			<path class="st5" d="M-103.14,356.49c0.03,0.05,4.57-2.7,4.6-2.66c0.18,0.3,4.88,2.63,5.06,2.93c0.03,0.05,4.56-2.69,4.58-2.65"
				/>
			<path class="st5" d="M-124.09,356.49c0.03,0.05,4.57-2.7,4.6-2.66c0.18,0.3,4.88,2.63,5.06,2.93c0.03,0.05,4.56-2.69,4.58-2.65"
				/>
			<path class="st5" d="M-145.05,356.49c0.03,0.05,4.57-2.7,4.6-2.66c0.18,0.3,4.88,2.63,5.06,2.93c0.03,0.05,4.56-2.69,4.58-2.65"
				/>
			<path class="st5" d="M-166.01,356.49c0.03,0.05,4.57-2.7,4.6-2.66c0.18,0.3,4.88,2.63,5.06,2.93c0.03,0.05,4.56-2.69,4.58-2.65"
				/>
			<path class="st5" d="M-186.96,356.49c0.03,0.05,4.57-2.7,4.6-2.66c0.18,0.3,4.88,2.63,5.06,2.93c0.03,0.05,4.56-2.69,4.58-2.65"
				/>
			<path class="st5" d="M-207.92,356.49c0.03,0.05,4.57-2.7,4.6-2.66c0.18,0.3,4.88,2.63,5.06,2.93c0.03,0.05,4.56-2.69,4.58-2.65"
				/>
		</g>
	</g>
</g>
<g class="st4">
	<g>
		<g>
			<path class="st5" d="M26.62,367.15c0.03,0.05,4.57-2.7,4.6-2.66c0.18,0.3,4.88,2.63,5.06,2.93c0.03,0.05,4.56-2.69,4.58-2.65"/>
			<path class="st5" d="M5.66,367.15c0.03,0.05,4.57-2.7,4.6-2.66c0.18,0.3,4.88,2.63,5.06,2.93c0.03,0.05,4.56-2.69,4.58-2.65"/>
			<path class="st5" d="M-15.29,367.15c0.03,0.05,4.57-2.7,4.6-2.66c0.16,0.28,4.47,2.65,4.63,2.93c0.04,0.07,4.96-2.96,5-2.89
				c0.16,0.28-4.74,2.6-4.57,2.89c0.03,0.05,4.56-2.69,4.58-2.65"/>
			<path class="st5" d="M-36.25,367.15c0.03,0.05,4.57-2.7,4.6-2.66c0.18,0.3,4.88,2.63,5.06,2.93c0.03,0.05,4.56-2.69,4.58-2.65"/>
			<path class="st5" d="M-57.21,367.15c0.03,0.05,4.57-2.7,4.6-2.66c0.18,0.3,4.88,2.63,5.06,2.93c0.03,0.05,4.56-2.69,4.58-2.65"/>
			<path class="st5" d="M-78.16,367.15c0.03,0.05,4.57-2.7,4.6-2.66c0.18,0.3,4.88,2.63,5.06,2.93c0.03,0.05,4.56-2.69,4.58-2.65"/>
			<path class="st5" d="M-99.12,367.15c0.03,0.05,4.57-2.7,4.6-2.66c0.18,0.3,4.88,2.63,5.06,2.93c0.03,0.05,4.56-2.69,4.58-2.65"/>
			<path class="st5" d="M-120.08,367.15c0.03,0.05,4.57-2.7,4.6-2.66c0.1,0.17,1.36,2.77,1.45,2.94c0.05,0.08,5.08-3.04,5.13-2.96
				c0.1,0.17-1.62,2.78-1.52,2.95c0.03,0.05,4.56-2.69,4.58-2.65"/>
			<path class="st5" d="M-141.03,367.15c0.03,0.05,4.57-2.7,4.6-2.66c0.18,0.3,4.88,2.63,5.06,2.93c0.03,0.05,4.56-2.69,4.58-2.65"
				/>
			<path class="st5" d="M-161.99,367.15c0.03,0.05,4.57-2.7,4.6-2.66c0.18,0.3,4.88,2.63,5.06,2.93c0.03,0.05,4.56-2.69,4.58-2.65"
				/>
			<path class="st5" d="M-182.95,367.15c0.03,0.05,4.57-2.7,4.6-2.66c0.18,0.3,4.88,2.63,5.06,2.93c0.03,0.05,4.56-2.69,4.58-2.65"
				/>
			<path class="st5" d="M-203.9,367.15c0.03,0.05,4.57-2.7,4.6-2.66c0.18,0.3,4.88,2.63,5.06,2.93c0.03,0.05,4.56-2.69,4.58-2.65"/>
		</g>
	</g>
</g>
<g class="st4">
	<g>
		<g>
			<path class="st5" d="M26.62,377.82c0.03,0.05,4.57-2.7,4.6-2.66c0.18,0.3,4.88,2.63,5.06,2.93c0.03,0.05,4.56-2.69,4.58-2.65"/>
			<path class="st5" d="M5.66,377.82c0.03,0.05,4.57-2.7,4.6-2.66c0.18,0.3,4.88,2.63,5.06,2.93c0.03,0.05,4.56-2.69,4.58-2.65"/>
			<path class="st5" d="M-15.29,377.82c0.03,0.05,4.57-2.7,4.6-2.66c0.18,0.3,4.88,2.63,5.06,2.93c0.03,0.05,4.56-2.69,4.58-2.65"/>
			<path class="st5" d="M-36.25,377.81c0.03,0.05,4.57-2.7,4.6-2.66c0.12,0.21,2.69,2.73,2.82,2.94c0.05,0.08,5.08-3.04,5.13-2.96
				c0.12,0.21-3.01,2.74-2.88,2.95c0.03,0.05,4.56-2.69,4.58-2.65"/>
			<path class="st5" d="M-57.21,377.81c0.03,0.05,4.57-2.7,4.6-2.66c0.18,0.3,4.88,2.63,5.06,2.93c0.03,0.05,4.56-2.69,4.58-2.65"/>
			<path class="st5" d="M-78.16,377.81c0.03,0.05,4.57-2.7,4.6-2.66c0.18,0.3,4.88,2.63,5.06,2.93c0.03,0.05,4.56-2.69,4.58-2.65"/>
			<path class="st5" d="M-99.12,377.81c0.03,0.05,4.57-2.7,4.6-2.66c0.18,0.3,4.88,2.63,5.06,2.93c0.03,0.05,4.56-2.69,4.58-2.65"/>
			<path class="st5" d="M-120.08,377.81c0.03,0.05,4.57-2.7,4.6-2.66c0.18,0.3,4.88,2.63,5.06,2.93c0.03,0.05,4.56-2.69,4.58-2.65"
				/>
			<path class="st5" d="M-141.03,377.81c0.03,0.05,4.57-2.7,4.6-2.66c0.09,0.15-0.45,2.79-0.36,2.95c0.05,0.08,5.08-3.04,5.13-2.96
				c0.09,0.15,0.2,2.79,0.29,2.94c0.03,0.05,4.56-2.69,4.58-2.65"/>
			<path class="st5" d="M-161.99,377.81c0.03,0.05,4.57-2.7,4.6-2.66c0.18,0.3,4.88,2.63,5.06,2.93c0.03,0.05,4.56-2.69,4.58-2.65"
				/>
			<path class="st5" d="M-182.95,377.81c0.03,0.05,4.57-2.7,4.6-2.66c0.18,0.3,4.88,2.63,5.06,2.93c0.03,0.05,4.56-2.69,4.58-2.65"
				/>
			<path class="st5" d="M-203.9,377.81c0.03,0.05,4.57-2.7,4.6-2.66c0.18,0.3,4.88,2.63,5.06,2.93c0.03,0.05,4.56-2.69,4.58-2.65"/>
		</g>
	</g>
</g>
<g class="st4">
	<g>
		<g>
			<path class="st5" d="M26.62,388.48c0.03,0.05,4.57-2.7,4.6-2.66c0.18,0.3,4.88,2.63,5.06,2.93c0.03,0.05,4.56-2.69,4.58-2.65"/>
			<path class="st5" d="M5.66,388.48c0.03,0.05,4.57-2.7,4.6-2.66c0.1,0.18,1.69,2.76,1.79,2.94c0.05,0.08,5.08-3.04,5.13-2.96
				c0.1,0.18-1.96,2.77-1.86,2.95c0.03,0.05,4.56-2.69,4.58-2.65"/>
			<path class="st5" d="M-15.29,388.48c0.03,0.05,4.57-2.7,4.6-2.66c0.18,0.3,4.88,2.63,5.06,2.93c0.03,0.05,4.56-2.69,4.58-2.65"/>
			<path class="st5" d="M-36.25,388.48c0.03,0.05,4.57-2.7,4.6-2.66c0.18,0.3,4.88,2.63,5.06,2.93c0.03,0.05,4.56-2.69,4.58-2.65"/>
			<path class="st5" d="M-57.21,388.48c0.03,0.05,4.57-2.7,4.6-2.66c0.18,0.3,4.88,2.63,5.06,2.93c0.03,0.05,4.56-2.69,4.58-2.65"/>
			<path class="st5" d="M-78.16,388.48c0.03,0.05,4.57-2.7,4.6-2.66c0.18,0.3,4.88,2.63,5.06,2.93c0.03,0.05,4.56-2.69,4.58-2.65"/>
			<path class="st5" d="M-99.12,388.48c0.03,0.05,4.57-2.7,4.6-2.66c0.1,0.17-1.48,2.78-1.39,2.95c0.05,0.08,5.08-3.04,5.13-2.96
				c0.09,0.16,0.76,2.78,0.85,2.94c0.04,0.07,5-2.98,5.04-2.91c0.16,0.28-4.74,2.63-4.57,2.91c0.03,0.05,4.56-2.69,4.58-2.65"/>
			<path class="st5" d="M-120.08,388.48c0.03,0.05,4.57-2.7,4.6-2.66c0.18,0.3,4.88,2.63,5.06,2.93c0.03,0.05,4.56-2.69,4.58-2.65"
				/>
			<path class="st5" d="M-141.03,388.48c0.03,0.05,4.57-2.7,4.6-2.66c0.18,0.3,4.88,2.63,5.06,2.93c0.03,0.05,4.56-2.69,4.58-2.65"
				/>
			<path class="st5" d="M-161.99,388.48c0.03,0.05,4.57-2.7,4.6-2.66c0.18,0.3,4.88,2.63,5.06,2.93c0.03,0.05,4.56-2.69,4.58-2.65"
				/>
			<path class="st5" d="M-182.95,388.48c0.03,0.05,4.57-2.7,4.6-2.66c0.18,0.3,4.88,2.63,5.06,2.93c0.03,0.05,4.56-2.69,4.58-2.65"
				/>
			<path class="st5" d="M-203.9,388.48c0.03,0.05,4.57-2.7,4.6-2.66c0.16,0.28-4.72,2.68-4.56,2.96c0.05,0.08,5.08-3.04,5.13-2.96
				c0.16,0.28,4.33,2.65,4.49,2.93c0.03,0.05,4.56-2.69,4.58-2.65"/>
		</g>
	</g>
</g>
<g class="st4">
	<g>
		<g>
			<path class="st5" d="M694.32,346.42c0.03,0.05,4.57-2.7,4.6-2.66c0.1,0.18,1.55,2.77,1.65,2.94c0.05,0.08,5.08-3.04,5.13-2.96
				c0.1,0.18-1.82,2.77-1.72,2.95c0.03,0.05,4.56-2.69,4.58-2.65"/>
			<path class="st5" d="M673.36,346.43c0.03,0.05,4.57-2.7,4.6-2.66c0.18,0.3,4.88,2.63,5.06,2.93c0.03,0.05,4.56-2.69,4.58-2.65"/>
			<path class="st5" d="M652.4,346.43c0.03,0.05,4.57-2.7,4.6-2.66c0.18,0.3,4.88,2.63,5.06,2.93c0.03,0.05,4.56-2.69,4.58-2.65"/>
			<path class="st5" d="M631.45,346.43c0.03,0.05,4.57-2.7,4.6-2.66c0.18,0.3,4.88,2.63,5.06,2.93c0.03,0.05,4.56-2.69,4.58-2.65"/>
			<path class="st5" d="M610.49,346.43c0.03,0.05,4.57-2.7,4.6-2.66c0.18,0.3,4.88,2.63,5.06,2.93c0.03,0.05,4.56-2.69,4.58-2.65"/>
			<path class="st5" d="M589.53,346.43c0.03,0.05,4.57-2.7,4.6-2.66c0.1,0.17-1.62,2.78-1.52,2.95c0.05,0.08,5.08-3.04,5.13-2.96
				c0.1,0.17,1.36,2.77,1.45,2.94c0.03,0.05,4.56-2.69,4.58-2.65"/>
			<path class="st5" d="M568.58,346.43c0.03,0.05,4.57-2.7,4.6-2.66c0.18,0.3,4.88,2.63,5.06,2.93c0.03,0.05,4.56-2.69,4.58-2.65"/>
			<path class="st5" d="M547.62,346.43c0.03,0.05,4.57-2.7,4.6-2.66c0.18,0.3,4.88,2.63,5.06,2.93c0.03,0.05,4.56-2.69,4.58-2.65"/>
			<path class="st5" d="M526.66,346.43c0.03,0.05,4.57-2.7,4.6-2.66c0.18,0.3,4.88,2.63,5.06,2.93c0.03,0.05,4.56-2.69,4.58-2.65"/>
			<path class="st5" d="M505.71,346.43c0.03,0.05,4.57-2.7,4.6-2.66c0.18,0.3,4.88,2.63,5.06,2.93c0.03,0.05,4.56-2.69,4.58-2.65"/>
			<path class="st5" d="M484.75,346.43c0.03,0.05,4.57-2.7,4.6-2.66c0.16,0.28-4.76,2.62-4.6,2.9c0.04,0.07,4.99-2.98,5.03-2.9
				c0.16,0.28,4.46,2.65,4.63,2.93c0.03,0.05,4.56-2.69,4.58-2.65"/>
			<path class="st5" d="M463.79,346.43c0.03,0.05,4.57-2.7,4.6-2.66c0.18,0.3,4.88,2.63,5.06,2.93c0.03,0.05,4.56-2.69,4.58-2.65"/>
		</g>
	</g>
</g>
<g class="st4">
	<g>
		<g>
			<path class="st5" d="M690.3,355.9c0.03,0.05,4.57-2.7,4.6-2.66c0.18,0.3,4.88,2.63,5.06,2.93c0.03,0.05,4.56-2.69,4.58-2.65"/>
			<path class="st5" d="M669.34,355.9c0.03,0.05,4.57-2.7,4.6-2.66c0.18,0.3,4.88,2.63,5.06,2.93c0.03,0.05,4.56-2.69,4.58-2.65"/>
			<path class="st5" d="M648.39,355.9c0.03,0.05,4.57-2.7,4.6-2.66c0.18,0.3,4.88,2.63,5.06,2.93c0.03,0.05,4.56-2.69,4.58-2.65"/>
			<path class="st5" d="M627.43,355.9c0.03,0.05,4.57-2.7,4.6-2.66c0.18,0.3,4.88,2.63,5.06,2.93c0.03,0.05,4.56-2.69,4.58-2.65"/>
			<path class="st5" d="M606.47,355.9c0.03,0.05,4.57-2.7,4.6-2.66c0.18,0.3,4.88,2.63,5.06,2.93c0.03,0.05,4.56-2.69,4.58-2.65"/>
			<path class="st5" d="M585.52,355.9c0.03,0.05,4.57-2.7,4.6-2.66c0.18,0.3,4.88,2.63,5.06,2.93c0.03,0.05,4.56-2.69,4.58-2.65"/>
			<path class="st5" d="M564.56,355.9c0.03,0.05,4.57-2.7,4.6-2.66c0.18,0.3,4.88,2.63,5.06,2.93c0.03,0.05,4.56-2.69,4.58-2.65"/>
			<path class="st5" d="M543.6,355.9c0.03,0.05,4.57-2.7,4.6-2.66c0.11,0.19,2.16,2.75,2.27,2.94c0.05,0.08,5.08-3.04,5.13-2.96
				c0.13,0.23-3.43,2.72-3.3,2.95c0.05,0.08,5.08-3.04,5.13-2.96c0.15,0.27-4.32,2.69-4.17,2.96c0.03,0.05,4.56-2.69,4.58-2.65"/>
			<path class="st5" d="M522.65,355.9c0.03,0.05,4.57-2.7,4.6-2.66c0.18,0.3,4.88,2.63,5.06,2.93c0.03,0.05,4.56-2.69,4.58-2.65"/>
			<path class="st5" d="M501.69,355.9c0.03,0.05,4.57-2.7,4.6-2.66c0.18,0.3,4.88,2.63,5.06,2.93c0.03,0.05,4.56-2.69,4.58-2.65"/>
			<path class="st5" d="M480.74,355.9c0.03,0.05,4.57-2.7,4.6-2.66c0.18,0.3,4.88,2.63,5.06,2.93c0.03,0.05,4.56-2.69,4.58-2.65"/>
			<path class="st5" d="M459.78,355.9c0.03,0.05,4.57-2.7,4.6-2.66c0.18,0.3,4.88,2.63,5.06,2.93c0.03,0.05,4.56-2.69,4.58-2.65"/>
		</g>
	</g>
</g>
<g class="st4">
	<g>
		<g>
			<path class="st5" d="M694.32,366.56c0.03,0.05,4.57-2.7,4.6-2.66c0.18,0.3,4.88,2.63,5.06,2.93c0.03,0.05,4.56-2.69,4.58-2.65"/>
			<path class="st5" d="M673.36,366.56c0.03,0.05,4.57-2.7,4.6-2.66c0.18,0.3,4.88,2.63,5.06,2.93c0.03,0.05,4.56-2.69,4.58-2.65"/>
			<path class="st5" d="M652.4,366.56c0.03,0.05,4.57-2.7,4.6-2.66c0.18,0.3,4.88,2.63,5.06,2.93c0.03,0.05,4.56-2.69,4.58-2.65"/>
			<path class="st5" d="M631.45,366.56c0.03,0.05,4.57-2.7,4.6-2.66c0.18,0.3,4.88,2.63,5.06,2.93c0.03,0.05,4.56-2.69,4.58-2.65"/>
			<path class="st5" d="M610.49,366.56c0.03,0.05,4.57-2.7,4.6-2.66c0.1,0.18,1.66,2.76,1.76,2.94c0.05,0.08,5.08-3.04,5.13-2.96
				c0.1,0.18-1.94,2.77-1.83,2.95c0.03,0.05,4.56-2.69,4.58-2.65"/>
			<path class="st5" d="M589.53,366.56c0.03,0.05,4.57-2.7,4.6-2.66c0.18,0.3,4.88,2.63,5.06,2.93c0.03,0.05,4.56-2.69,4.58-2.65"/>
			<path class="st5" d="M568.58,366.56c0.03,0.05,4.57-2.7,4.6-2.66c0.18,0.3,4.88,2.63,5.06,2.93c0.03,0.05,4.56-2.69,4.58-2.65"/>
			<path class="st5" d="M547.62,366.56c0.03,0.05,4.57-2.7,4.6-2.66c0.18,0.3,4.88,2.63,5.06,2.93c0.03,0.05,4.56-2.69,4.58-2.65"/>
			<path class="st5" d="M526.66,366.56c0.03,0.05,4.57-2.7,4.6-2.66c0.18,0.3,4.88,2.63,5.06,2.93c0.03,0.05,4.56-2.69,4.58-2.65"/>
			<path class="st5" d="M505.71,366.56c0.03,0.05,4.57-2.7,4.6-2.66c0.1,0.17-1.51,2.78-1.41,2.95c0.05,0.08,5.08-3.04,5.13-2.96
				c0.1,0.17,1.24,2.77,1.34,2.94c0.03,0.05,4.56-2.69,4.58-2.65"/>
			<path class="st5" d="M484.75,366.56c0.03,0.05,4.57-2.7,4.6-2.66c0.18,0.3,4.88,2.63,5.06,2.93c0.03,0.05,4.56-2.69,4.58-2.65"/>
			<path class="st5" d="M463.79,366.56c0.03,0.05,4.57-2.7,4.6-2.66c0.18,0.3,4.88,2.63,5.06,2.93c0.03,0.05,4.56-2.69,4.58-2.65"/>
		</g>
	</g>
</g>
<g class="st4">
	<g>
		<g>
			<path class="st5" d="M694.32,377.22c0.03,0.05,4.57-2.7,4.6-2.66c0.18,0.3,4.88,2.63,5.06,2.93c0.03,0.05,4.56-2.69,4.58-2.65"/>
			<path class="st5" d="M673.36,377.22c0.03,0.05,4.57-2.7,4.6-2.66c0.13,0.23,3.19,2.7,3.33,2.94c0.05,0.08,5.08-3.04,5.13-2.96
				c0.14,0.23-3.53,2.72-3.4,2.95c0.03,0.05,4.56-2.69,4.58-2.65"/>
			<path class="st5" d="M652.4,377.22c0.03,0.05,4.57-2.7,4.6-2.66c0.18,0.3,4.88,2.63,5.06,2.93c0.03,0.05,4.56-2.69,4.58-2.65"/>
			<path class="st5" d="M631.45,377.22c0.03,0.05,4.57-2.7,4.6-2.66c0.18,0.3,4.88,2.63,5.06,2.93c0.03,0.05,4.56-2.69,4.58-2.65"/>
			<path class="st5" d="M610.49,377.22c0.03,0.05,4.57-2.7,4.6-2.66c0.18,0.3,4.88,2.63,5.06,2.93c0.03,0.05,4.56-2.69,4.58-2.65"/>
			<path class="st5" d="M589.53,377.22c0.03,0.05,4.57-2.7,4.6-2.66c0.18,0.3,4.88,2.63,5.06,2.93c0.03,0.05,4.56-2.69,4.58-2.65"/>
			<path class="st5" d="M568.58,377.22c0.03,0.05,4.57-2.7,4.6-2.66c0.09,0.15,0.06,2.79,0.15,2.94c0.05,0.08,5.08-3.04,5.13-2.96
				c0.12,0.21-2.84,2.74-2.72,2.95c0.05,0.08,5.08-3.04,5.13-2.96c0.12,0.21-2.75,2.75-2.63,2.95c0.03,0.05,4.56-2.69,4.58-2.65"/>
			<path class="st5" d="M547.62,377.22c0.03,0.05,4.57-2.7,4.6-2.66c0.18,0.3,4.88,2.63,5.06,2.93c0.03,0.05,4.56-2.69,4.58-2.65"/>
			<path class="st5" d="M526.66,377.22c0.03,0.05,4.57-2.7,4.6-2.66c0.18,0.3,4.88,2.63,5.06,2.93c0.03,0.05,4.56-2.69,4.58-2.65"/>
			<path class="st5" d="M505.71,377.22c0.03,0.05,4.57-2.7,4.6-2.66c0.18,0.3,4.88,2.63,5.06,2.93c0.03,0.05,4.56-2.69,4.58-2.65"/>
			<path class="st5" d="M484.75,377.22c0.03,0.05,4.57-2.7,4.6-2.66c0.18,0.3,4.88,2.63,5.06,2.93c0.03,0.05,4.56-2.69,4.58-2.65"/>
			<path class="st5" d="M463.79,377.22c0.03,0.05,4.57-2.7,4.6-2.66c0.13,0.22-3.15,2.73-3.02,2.95c0.05,0.08,5.08-3.04,5.13-2.96
				c0.12,0.22,2.83,2.72,2.95,2.94c0.03,0.05,4.56-2.69,4.58-2.65"/>
		</g>
	</g>
</g>
<g class="st4">
	<g>
		<g>
			<path class="st5" d="M694.32,387.88c0.03,0.05,4.57-2.7,4.6-2.66c0.11,0.2-2.49,2.75-2.38,2.95c0.05,0.08,5.08-3.04,5.13-2.96
				c0.11,0.19,2.2,2.74,2.31,2.94c0.03,0.05,4.56-2.69,4.58-2.65"/>
			<path class="st5" d="M673.36,387.88c0.03,0.05,4.57-2.7,4.6-2.66c0.18,0.3,4.88,2.63,5.06,2.93c0.03,0.05,4.56-2.69,4.58-2.65"/>
			<path class="st5" d="M652.4,387.88c0.03,0.05,4.57-2.7,4.6-2.66c0.18,0.3,4.88,2.63,5.06,2.93c0.03,0.05,4.56-2.69,4.58-2.65"/>
			<path class="st5" d="M631.45,387.88c0.03,0.05,4.57-2.7,4.6-2.66c0.18,0.3,4.88,2.63,5.06,2.93c0.03,0.05,4.56-2.69,4.58-2.65"/>
			<path class="st5" d="M610.49,387.88c0.03,0.05,4.57-2.7,4.6-2.66c0.18,0.3,4.88,2.63,5.06,2.93c0.03,0.05,4.56-2.69,4.58-2.65"/>
			<path class="st5" d="M589.53,387.88c0.03,0.05,4.57-2.7,4.6-2.66c0.18,0.3,4.88,2.63,5.06,2.93c0.03,0.05,4.56-2.69,4.58-2.65"/>
			<path class="st5" d="M568.58,387.88c0.03,0.05,4.57-2.7,4.6-2.66c0.18,0.3,4.88,2.63,5.06,2.93c0.03,0.05,4.56-2.69,4.58-2.65"/>
			<path class="st5" d="M547.62,387.88c0.03,0.05,4.57-2.7,4.6-2.66c0.18,0.3,4.88,2.63,5.06,2.93c0.03,0.05,4.56-2.69,4.58-2.65"/>
			<path class="st5" d="M526.66,387.88c0.03,0.05,4.57-2.7,4.6-2.66c0.18,0.3,4.88,2.63,5.06,2.93c0.03,0.05,4.56-2.69,4.58-2.65"/>
			<path class="st5" d="M505.71,387.88c0.03,0.05,4.57-2.7,4.6-2.66c0.11,0.19,1.91,2.75,2.01,2.94c0.05,0.08,5.08-3.04,5.13-2.96
				c0.18,0.3-5.24,2.65-5.07,2.96c0.05,0.08,5.08-3.04,5.13-2.96c0.12,0.2-2.62,2.75-2.5,2.95c0.04,0.07,4.89-2.91,4.93-2.85
				c0.16,0.28-4.74,2.57-4.58,2.85c0.03,0.05,4.56-2.69,4.58-2.65"/>
			<path class="st5" d="M484.75,387.88c0.03,0.05,4.57-2.7,4.6-2.66c0.18,0.3,4.88,2.63,5.06,2.93c0.03,0.05,4.56-2.69,4.58-2.65"/>
			<path class="st5" d="M463.79,387.88c0.03,0.05,4.57-2.7,4.6-2.66c0.18,0.3,4.88,2.63,5.06,2.93c0.03,0.05,4.56-2.69,4.58-2.65"/>
		</g>
	</g>
</g>
</svg>
