<?xml version="1.0" encoding="UTF-8"?>
<svg xmlns="http://www.w3.org/2000/svg" version="1.1" viewBox="0 0 1920 600">
  <defs>
    <style>
      .cls-1, .cls-2 {
        fill: #7fa6c2;
      }

      .cls-3 {
        fill: #cee3f0;
      }

      .cls-3, .cls-4, .cls-5, .cls-6, .cls-7, .cls-8, .cls-9, .cls-10, .cls-11, .cls-12, .cls-13, .cls-14, .cls-15, .cls-16, .cls-17, .cls-18, .cls-19, .cls-20, .cls-21, .cls-22, .cls-23, .cls-24, .cls-25, .cls-26, .cls-27, .cls-28, .cls-29, .cls-30, .cls-31, .cls-32, .cls-33, .cls-34, .cls-35, .cls-36, .cls-37, .cls-38, .cls-39, .cls-40, .cls-41, .cls-2, .cls-42, .cls-43, .cls-44, .cls-45, .cls-46, .cls-47 {
        fill-rule: evenodd;
      }

      .cls-4 {
        fill: #eb664c;
      }

      .cls-5 {
        fill: #63a9ba;
      }

      .cls-6 {
        fill: #010c28;
      }

      .cls-7, .cls-48 {
        fill: #dbdcdc;
      }

      .cls-49, .cls-12 {
        fill: #fff;
      }

      .cls-8 {
        fill: #ef8871;
      }

      .cls-9 {
        fill: #c9d7ee;
      }

      .cls-10 {
        fill: #51a5a5;
      }

      .cls-11 {
        fill: #f4ad85;
      }

      .cls-13 {
        fill: #f0f1f1;
      }

      .cls-14 {
        fill: #f29a47;
      }

      .cls-15, .cls-50 {
        fill: #e62952;
      }

      .cls-16 {
        fill: #131e3a;
      }

      .cls-51, .cls-24 {
        fill: #020516;
      }

      .cls-17 {
        fill: #a3c1d5;
      }

      .cls-18 {
        fill: #e5e5e6;
      }

      .cls-19 {
        fill: #3a7f80;
      }

      .cls-20 {
        fill: #afcadc;
      }

      .cls-21 {
        fill: #0f1630;
      }

      .cls-22 {
        fill: #f4a63d;
      }

      .cls-23 {
        fill: #eb6b5d;
      }

      .cls-25 {
        fill: #80b9c9;
      }

      .cls-26 {
        fill: #a0c0d5;
      }

      .cls-27 {
        fill: #010b1c;
      }

      .cls-28 {
        fill: #be865e;
      }

      .cls-29 {
        fill: #f8cab0;
      }

      .cls-30 {
        opacity: .15;
      }

      .cls-30, .cls-46 {
        fill: none;
        stroke: #fff;
        stroke-miterlimit: 10;
        stroke-width: 50px;
      }

      .cls-31 {
        stroke: #eb664c;
        stroke-miterlimit: 22.93;
        stroke-width: .3px;
      }

      .cls-31, .cls-36 {
        fill: #ec6d3b;
      }

      .cls-32 {
        fill: #020e28;
      }

      .cls-52 {
        fill: #ffc4b0;
      }

      .cls-33 {
        fill: #f2f9fc;
      }

      .cls-34 {
        fill: #fbc900;
      }

      .cls-35 {
        fill: #915e40;
      }

      .cls-38 {
        fill: #fffdf8;
      }

      .cls-39 {
        fill: #de9c00;
      }

      .cls-40 {
        fill: #f6af00;
      }

      .cls-41 {
        fill: #d10d49;
      }

      .cls-42 {
        fill: #f18f2f;
      }

      .cls-43 {
        fill: #e8685b;
      }

      .cls-44 {
        fill: #e84b6b;
      }

      .cls-45 {
        fill: #afb5ba;
      }

      .cls-46 {
        opacity: .22;
      }

      .cls-47 {
        fill: #ea745d;
      }
    </style>
  </defs>
  <!-- Generator: Adobe Illustrator 28.6.0, SVG Export Plug-In . SVG Version: 1.2.0 Build 709)  -->
  <g>
    <g id="Layer_1">
      <rect class="cls-52" x="-1.99" y="85.92" width="1921.92" height="435.62"/>
      <path class="cls-30" d="M-253.65,196.76s245.74-125.16,434.05,3.71c66.76,45.68,473.77,473.8,890.12,204.6,416.35-269.2,627.43-326.03,850.58-245.96"/>
      <g>
        <path class="cls-9" d="M952.25,394.04c-25.66,0-46.66,21-46.66,46.66h0c0,46.82-38.31,85.13-85.13,85.13H248.1c-60.82,0-110.59-49.76-110.59-110.59h0c0-60.82,49.77-110.59,110.59-110.59h2.91c12.21,0,22.19-9.99,22.19-22.19h0c0-12.21-9.99-22.19-22.19-22.19h-12.21c-29.67,0-53.95-24.28-53.95-53.95h0c0-29.64,24.22-53.9,53.85-53.95h52.64c25.66,0,46.66-20.99,46.66-46.65h0c0-46.82,38.31-85.13,85.13-85.13h435.03c60.82,0,110.59,49.77,110.59,110.59h0c0,60.82-49.76,110.59-110.59,110.59h0c-12.21,0-22.19,9.99-22.19,22.19h0c0,12.2,9.99,22.19,22.19,22.19h94.09c70.59,0,70.6,107.9,0,107.9Z"/>
        <path class="cls-26" d="M947.17,386.23c22.64,0,41.11-18.47,41.11-41.11s-18.47-41.11-41.11-41.11-41.11,18.47-41.11,41.11,18.47,41.11,41.11,41.11Z"/>
        <g>
          <g>
            <path class="cls-5" d="M254.33,327.85c14.74-32.39,43.2-8.43,51.85,22.87,8.19,29.68,19.37,137.68,39.13,177.63l-9.52,3.47c-42.72-44.9-100.33-162.51-81.46-203.97Z"/>
            <path class="cls-25" d="M339.29,530.55c-53.3-75.88-66.96-202.63-67.01-203.06-.09-.78.48-1.49,1.27-1.58.78-.09,1.5.48,1.58,1.27.05.43,13.72,127.32,66.91,202.37l-2.75,1Z"/>
          </g>
          <g>
            <path class="cls-19" d="M238.94,430.36c-27.73-1.74-21.68,26.68-3.29,44.13,12.45,11.81,51.82,39.32,80.73,64.4l19.92-7.26c-24.12-45.07-68.69-99.47-97.36-101.27Z"/>
            <path class="cls-10" d="M329.18,534.23c-37.97-51.42-96.86-91.46-97.1-91.62-.51-.35-1.2-.22-1.55.29-.35.51-.22,1.21.29,1.56.24.16,58.51,39.79,96.2,90.57l2.16-.79Z"/>
          </g>
        </g>
        <path class="cls-2" d="M202.04,521.54h767.98c8.94,0,16.26,7.32,16.26,16.26h0c0,8.94-7.32,16.26-16.26,16.26h-54.86c-4.97,0-9.03,4.07-9.03,9.03h0c0,4.97,4.06,9.03,9.03,9.03h20.07c6.21,0,11.29,5.08,11.29,11.29h0c0,6.21-5.08,11.29-11.29,11.29H238.62c-6.21,0-11.29-5.08-11.29-11.29h0c0-6.21,5.08-11.29,11.29-11.29h15.81c4.97,0,9.03-4.06,9.03-9.03h0c0-4.97-4.06-9.03-9.03-9.03h-52.39c-8.94,0-16.26-7.32-16.26-16.26h0c0-8.94,7.32-16.26,16.26-16.26h0ZM210.51,594.7c5.96,0,10.84-4.88,10.84-10.84v-.9c0-5.96-4.88-10.84-10.84-10.84h0c-5.96,0-10.84,4.88-10.84,10.84v.9c0,5.96,4.88,10.84,10.84,10.84h0Z"/>
        <g>
          <g>
            <path class="cls-36" d="M633.48,56.85h-82.08c-1.25,0-2.28,1.06-2.28,2.35v52.12c0,1.29,1.03,2.35,2.28,2.35h82.08c1.25,0,2.28-1.06,2.28-2.35v-52.12c0-1.29-1.02-2.35-2.28-2.35Z"/>
            <path class="cls-36" d="M633.48,56.85h-82.08c-1.25,0-2.28,1.06-2.28,2.35v2l37.84,36.01c6.11,5.82,4.31,6.33,10.27.66l38.53-36.66v-2c0-1.29-1.02-2.35-2.28-2.35Z"/>
            <path class="cls-36" d="M549.12,109.06v2.25c0,1.29,1.03,2.35,2.28,2.35h82.08c1.25,0,2.28-1.06,2.28-2.35v-2.25l-38.83-33.87c-5.59-4.88-3.9-4.44-9.63.57l-38.18,33.3Z"/>
            <path class="cls-22" d="M549.18,111.82c.22,1.05,1.14,1.84,2.22,1.84h82.08c1.09,0,2-.79,2.23-1.84l-39.21-34.2c-5.05-4.41-3.52-4.01-8.7.51l-38.62,33.69Z"/>
            <path class="cls-36" d="M607.98,87.63l-11.48-10.01c-5.05-4.41-3.52-4.01-8.7.51l-10.89,9.5,10.06,9.57c6.11,5.82,4.31,6.33,10.27.66l10.75-10.23Z"/>
            <path class="cls-22" d="M633.48,56.85h-82.08c-.75,0-1.43.38-1.84.97l38.24,36.38c5.18,4.93,3.65,5.37,8.7.56l38.82-36.94c-.42-.59-1.09-.97-1.84-.97Z"/>
          </g>
          <path class="cls-15" d="M633.42,44.41c8.38,0,15.17,6.79,15.17,15.17s-6.79,15.17-15.17,15.17-15.17-6.79-15.17-15.17,6.79-15.17,15.17-15.17Z"/>
          <path class="cls-12" d="M635.92,68.08h-4.26v-11.98c-1.55,1.46-3.38,2.54-5.5,3.24v-3.88c1.11-.36,2.32-1.05,3.62-2.07,1.31-1.01,2.2-2.2,2.68-3.55h3.45v18.24Z"/>
        </g>
        <path class="cls-37" d="M704.02,257.36c2.11,0,2.26-3.19.08-3.33-1.07-.02-1.97-.1-3.02-.33-1.97-.37-2.81,2.26-1.08,3.13.12.05.24.1.37.13,1.21.26,2.42.4,3.66.4h0ZM651.5,90.55c-2.11,0-2.26,3.19-.07,3.33h3.4c2.11,0,2.26-3.19.07-3.33h-3.4ZM664.82,90.55c-2.11,0-2.26,3.19-.07,3.33h3.4c2.11,0,2.26-3.19.07-3.33h-3.4ZM678.55,91.23c-.28-.09-.57-.09-.86-.03-1.66.44-1.73,2.67-.1,3.22.96.28,1.84.66,2.72,1.14,1.68.96,3.51-1.37,1.81-2.79-.98-.63-2.45-1.22-3.58-1.54h0ZM689.25,100.73c-.71-1.78-3.57-1.04-3.16,1.01.02.11.05.19.09.29.39.92.67,1.84.86,2.82.36,1.92,3.17,1.79,3.3-.22,0-.13,0-.24-.03-.37-.33-1.32-.53-2.25-1.07-3.53h0ZM690.6,114.53c0-2.11-3.19-2.26-3.33-.07v3.4c0,2.11,3.19,2.26,3.33.08v-3.4h0ZM690.6,127.84c0-2.11-3.19-2.26-3.33-.08v3.4c0,2.11,3.19,2.26,3.33.08v-3.4h0ZM690.6,141.15c0-2.11-3.19-2.26-3.33-.08v3.41c0,2.11,3.19,2.26,3.33.07v-3.4h0ZM690.6,154.47c0-2.11-3.19-2.26-3.33-.07v3.4c0,2.11,3.19,2.26,3.33.07v-3.4h0ZM690.6,167.78c0-2.11-3.19-2.26-3.33-.07v3.4c0,2.11,3.19,2.26,3.33.08v-3.4h0ZM690.6,181.09c0-2.11-3.19-2.26-3.33-.07v3.4c0,2.11,3.19,2.25,3.33.07v-3.4h0ZM690.6,194.41c0-2.11-3.19-2.26-3.33-.08v3.4c0,2.11,3.19,2.26,3.33.08v-3.4h0ZM690.6,207.72c0-2.11-3.19-2.26-3.33-.07v3.4c0,2.11,3.19,2.26,3.33.07v-3.4h0ZM690.6,221.03c0-2.11-3.19-2.26-3.33-.07v3.4c0,2.11,3.19,2.25,3.33.07v-3.41h0ZM690.6,234.34c0-2.11-3.19-2.26-3.33-.07v3.4c0,2.11,3.19,2.26,3.33.08v-3.4h0ZM692.04,246.64c-.17-.33-.44-.58-.76-.74-1.46-.67-2.92.83-2.21,2.26.56,1.09,1.24,2.14,2.02,3.08.58.7,1.59.8,2.3.25.75-.58.86-1.66.26-2.38-.62-.75-1.18-1.61-1.62-2.48Z"/>
        <g>
          <path class="cls-15" d="M261.36,166.93h70.85c6.68,0,12.15,5.47,12.15,12.15v85.7c0,.56-.32,1.04-.84,1.25-.52.22-1.08.1-1.48-.29l-20.7-20.7h-59.99c-6.68,0-12.15-5.47-12.15-12.15v-53.81c0-6.68,5.47-12.15,12.15-12.15Z"/>
          <path class="cls-12" d="M296.78,178.19c7.3,0,14.23,2.87,19.39,8.03,5.16,5.16,8.03,12.09,8.03,19.39s-2.87,14.23-8.03,19.39c-5.16,5.16-12.09,8.03-19.39,8.03s-14.23-2.87-19.39-8.03c-5.16-5.16-8.03-12.09-8.03-19.39s2.87-14.23,8.03-19.39c5.16-5.16,12.09-8.03,19.39-8.03h0ZM321.23,207.08h-11.19c-.07,2.97-.37,5.96-.94,8.89,2.81.66,5.66,1.62,8.21,3,2.32-3.56,3.66-7.64,3.91-11.89h0ZM307.12,207.08h-8.87v7.53c2.68.06,5.36.31,8,.77.52-2.73.8-5.52.87-8.3h0ZM295.32,207.08h-8.87c.07,2.78.34,5.57.87,8.3,2.64-.46,5.32-.7,8-.77v-7.53h0ZM283.53,207.08h-11.19c.25,4.24,1.59,8.33,3.91,11.89,2.55-1.38,5.4-2.34,8.21-3-.56-2.92-.86-5.91-.93-8.89h0ZM272.33,204.15h11.19c.06-2.52.28-5.06.69-7.55-2.95-.71-5.99-1.77-8.61-3.3-1.93,3.32-3.05,7.02-3.27,10.85h0ZM287.08,197.2c-.37,2.3-.57,4.62-.63,6.95h8.87v-6.14c-2.76-.07-5.52-.33-8.24-.81h0ZM306.49,197.2c-2.71.48-5.48.74-8.24.81v6.14h8.87c-.06-2.32-.27-4.65-.63-6.95h0ZM310.04,204.15h11.19c-.23-3.83-1.34-7.53-3.27-10.85-2.63,1.53-5.66,2.59-8.61,3.3.41,2.49.63,5.03.69,7.55h0ZM298.25,181.38v13.7c2.57-.07,5.15-.31,7.68-.76-.5-2.21-1.19-4.41-2.12-6.46-1.04-2.28-2.96-5.53-5.56-6.48h0ZM298.25,217.54v12.3c2.6-.95,4.52-4.19,5.56-6.48.75-1.64,1.33-3.38,1.79-5.13-2.43-.41-4.89-.63-7.35-.7h0ZM295.32,229.84v-12.3c-2.46.06-4.93.29-7.36.7.46,1.75,1.04,3.49,1.79,5.13,1.04,2.29,2.96,5.54,5.56,6.48h0ZM295.32,195.09v-13.7c-2.61.95-4.53,4.19-5.57,6.48-.93,2.05-1.62,4.26-2.12,6.46,2.53.45,5.11.69,7.69.76h0ZM277.23,190.86c2.31,1.32,4.97,2.24,7.55,2.87.55-2.41,1.3-4.82,2.32-7.07.71-1.56,1.6-3.15,2.71-4.52-3.9,1.16-7.45,3.27-10.34,6.17-.8.8-1.55,1.66-2.23,2.56h0ZM308.79,193.73c2.58-.63,5.24-1.55,7.55-2.87-.69-.9-1.43-1.76-2.23-2.56-2.89-2.89-6.45-5.01-10.34-6.17,1.11,1.38,2,2.96,2.71,4.52,1.02,2.25,1.77,4.66,2.32,7.07h0ZM315.56,221.34c-2.22-1.15-4.68-1.96-7.09-2.53-.51,1.97-1.16,3.91-2,5.76-.71,1.56-1.6,3.15-2.71,4.53,3.9-1.16,7.45-3.27,10.34-6.17.51-.51,1-1.04,1.46-1.59h0ZM285.1,218.81c-2.42.56-4.88,1.38-7.09,2.53.46.55.95,1.08,1.46,1.59,2.89,2.89,6.45,5.01,10.34,6.17-1.11-1.38-2-2.97-2.71-4.53-.84-1.85-1.49-3.79-2-5.76Z"/>
        </g>
        <path class="cls-20" d="M963.55,465.42h0ZM957.43,442.11c-2.13-2.13-5.07-3.45-8.33-3.45s-6.2,1.32-8.33,3.45c-2.13,2.13-3.45,5.07-3.45,8.32s1.32,6.2,3.45,8.33c2.13,2.13,5.07,3.45,8.33,3.45s6.2-1.32,8.33-3.45c2.13-2.13,3.45-5.07,3.45-8.33s-1.32-6.19-3.45-8.32h0ZM954.88,430.44c1.63.47,3.18,1.14,4.61,1.97,1.47.85,2.83,1.88,4.05,3.05.24.23.59.26.86.1l5.47-3.16.03-.02c.31-.17.67-.2,1-.11.34.09.64.31.83.63l.02.04,3.85,6.67c.18.32.22.69.13,1.03-.09.33-.31.64-.63.82l-.04.02-5.43,3.14c-.28.16-.41.49-.34.8h0c.2.81.35,1.64.46,2.49.1.83.15,1.68.15,2.54s-.05,1.71-.15,2.54c-.1.85-.26,1.68-.46,2.49-.08.34.08.67.38.82l5.43,3.13h0c.32.19.54.49.63.83.09.34.05.71-.13,1.03l-3.87,6.71h0c-.19.32-.49.54-.82.63-.34.09-.71.05-1.03-.13l-.04-.02-5.43-3.14c-.28-.16-.64-.11-.86.11-1.21,1.17-2.57,2.2-4.05,3.05-1.44.84-3,1.5-4.64,1.97-.32.09-.53.38-.53.7v6.31c0,.37-.16.71-.4.96-.25.25-.58.4-.96.4h-7.74c-.37,0-.71-.15-.96-.4-.24-.24-.4-.58-.4-.96v-6.31c0-.34-.24-.63-.56-.7-1.63-.47-3.18-1.14-4.61-1.97-1.47-.85-2.83-1.88-4.05-3.05-.25-.24-.62-.27-.9-.08l-5.43,3.14c-.32.19-.69.22-1.03.13-.34-.09-.64-.31-.83-.63l-.02-.04-3.85-6.67h0c-.19-.32-.22-.69-.13-1.03.09-.34.31-.64.63-.83l5.47-3.16c.29-.16.41-.49.34-.8h0c-.2-.81-.35-1.64-.46-2.49-.1-.83-.15-1.68-.15-2.54s.05-1.71.15-2.54c.1-.85.26-1.68.46-2.49.08-.33-.08-.67-.38-.82l-5.43-3.14c-.32-.18-.54-.49-.63-.82-.09-.34-.06-.71.13-1.03l.02-.04,3.85-6.67h0c.19-.32.49-.54.83-.63.33-.09.71-.06,1.03.13h0l5.47,3.16c.29.17.65.11.88-.12,1.21-1.17,2.57-2.19,4.04-3.04,1.44-.84,3-1.5,4.64-1.97.32-.09.53-.38.53-.7v-6.31c0-.37.15-.71.4-.96.25-.24.59-.4.96-.4h7.74c.37,0,.71.15.96.4.24.25.4.59.4.96v6.31c0,.34.24.63.56.7Z"/>
        <g>
          <path class="cls-12" d="M942.04,381.53c22.64,0,41.11-18.47,41.11-41.11s-18.47-41.11-41.11-41.11-41.11,18.47-41.11,41.11,18.47,41.11,41.11,41.11Z"/>
          <path class="cls-15" d="M942.04,351.13c1.83,0,3.57.72,4.86,2.01,1.3,1.29,2.02,3.04,2.02,4.87s-.72,3.57-2.02,4.86h0c-1.29,1.3-3.03,2.01-4.86,2.01s-3.57-.72-4.87-2.01c-1.29-1.29-2.01-3.04-2.01-4.86s.72-3.57,2.01-4.87c1.29-1.29,3.04-2.01,4.87-2.01h0ZM915.76,333.45c-1.15,1.22-3.07,1.29-4.3.15-1.23-1.14-1.3-3.07-.15-4.3,3.94-4.21,8.71-7.58,13.99-9.88,5.29-2.3,10.97-3.47,16.73-3.47s11.44,1.17,16.73,3.47c5.29,2.3,10.06,5.66,13.99,9.88,1.15,1.23,1.08,3.16-.15,4.3-1.23,1.14-3.15,1.07-4.3-.15-3.36-3.6-7.44-6.49-11.96-8.45-4.52-1.96-9.38-2.95-14.31-2.95s-9.79.99-14.31,2.95c-4.52,1.96-8.59,4.85-11.96,8.45h0ZM923.76,340.92c2.34-2.5,5.17-4.51,8.32-5.88,3.15-1.36,6.53-2.05,9.96-2.05s6.81.69,9.96,2.05c3.15,1.37,5.98,3.37,8.32,5.88,1.14,1.23,3.07,1.3,4.3.15,1.23-1.14,1.3-3.07.15-4.3-2.91-3.12-6.44-5.61-10.35-7.3-3.91-1.7-8.11-2.57-12.37-2.57s-8.46.87-12.37,2.57c-3.91,1.7-7.44,4.19-10.35,7.3-1.15,1.23-1.08,3.16.15,4.3,1.23,1.14,3.15,1.07,4.3-.15h0ZM932.92,349.48c-1.14,1.23-3.07,1.3-4.29.15-1.23-1.14-1.3-3.07-.16-4.3,1.74-1.86,3.85-3.35,6.18-4.36,2.34-1.01,4.84-1.54,7.38-1.54s5.05.52,7.38,1.54c2.34,1.01,4.44,2.5,6.18,4.36,1.14,1.23,1.07,3.15-.16,4.3-1.23,1.14-3.15,1.07-4.29-.15-1.17-1.25-2.57-2.25-4.14-2.93-1.57-.68-3.26-1.02-4.97-1.02s-3.4.34-4.97,1.02c-1.57.68-2.98,1.68-4.14,2.93Z"/>
        </g>
        <path class="cls-3" d="M288.98,66.7c-1.98-1.97-4.34-3.57-6.98-4.66-2.53-1.05-5.3-1.63-8.2-1.63s-5.67.58-8.2,1.63c-2.63,1.09-5,2.68-6.97,4.66-1.97,1.97-3.57,4.34-4.66,6.97-1.05,2.53-1.63,5.3-1.63,8.2s.58,5.67,1.63,8.21c1.09,2.63,2.68,5,4.66,6.97,1.97,1.97,4.34,3.57,6.97,4.66,2.53,1.05,5.31,1.63,8.21,1.63s5.67-.58,8.2-1.63c2.63-1.09,5-2.69,6.98-4.66,1.97-1.97,3.57-4.34,4.66-6.97,1.05-2.53,1.63-5.3,1.63-8.21s-.58-5.67-1.63-8.2c-1.09-2.64-2.69-5-4.66-6.97h0ZM281.25,63.87c2.38.99,4.52,2.43,6.32,4.23,1.8,1.8,3.25,3.94,4.23,6.32.95,2.29,1.47,4.81,1.47,7.45s-.52,5.16-1.47,7.45c-.99,2.38-2.43,4.52-4.23,6.32-1.8,1.8-3.94,3.25-6.32,4.23-2.29.95-4.81,1.47-7.45,1.47s-5.16-.53-7.45-1.47c-2.38-.98-4.53-2.43-6.32-4.23-1.8-1.8-3.25-3.94-4.23-6.32-.95-2.29-1.47-4.81-1.47-7.45s.53-5.16,1.47-7.45c.99-2.38,2.44-4.52,4.23-6.32,1.8-1.8,3.94-3.25,6.32-4.23,2.29-.95,4.81-1.47,7.45-1.47s5.16.52,7.45,1.47h0ZM283.62,48.08c1.34.39,2.67.86,3.96,1.41,1.31.56,2.58,1.19,3.8,1.9,1.24.72,2.44,1.51,3.58,2.37,1.15.87,2.24,1.8,3.27,2.79.36.35.82.56,1.29.61.47.06.97-.04,1.4-.29,3.15-1.82,6.47-3.62,9.55-5.52.15-.08.31-.13.46-.14.18-.02.36,0,.53.04.17.05.34.13.48.24.14.11.26.24.35.4,2.3,3.48,4.61,7.97,6.73,11.66.09.16.15.33.17.49.02.18,0,.37-.04.54-.05.18-.13.34-.24.48-.1.14-.24.26-.4.35-2.83,1.87-6.49,3.75-9.49,5.49-.44.25-.76.63-.95,1.06-.06.15-.11.31-.14.47l-.2.06.22.89c.17.7.32,1.39.45,2.09.12.68.23,1.38.32,2.12.09.72.15,1.43.19,2.13.04.69.06,1.41.06,2.16s-.02,1.47-.06,2.16c-.04.7-.11,1.42-.19,2.14-.09.73-.2,1.44-.32,2.11-.13.7-.28,1.39-.45,2.09-.13.52-.06,1.03.14,1.48.2.45.56.82,1.02,1.05l8.41,4.86h0s1,.58,1,.58c.16.09.29.21.4.35.11.14.19.31.24.48.05.18.06.37.04.54-.02.17-.08.34-.17.49l-6.22,10.79h0s-.5.87-.5.87c-.09.16-.21.29-.35.4-.14.11-.31.19-.48.23-.18.05-.36.06-.54.04-.17-.02-.34-.08-.49-.17-3.01-1.89-6.41-3.7-9.52-5.49-.44-.26-.93-.34-1.39-.29-.48.06-.93.27-1.29.61h0c-1.03,1-2.12,1.93-3.27,2.8-1.14.86-2.34,1.65-3.58,2.37-1.22.71-2.5,1.35-3.82,1.91-1.29.55-2.64,1.03-4.02,1.42-.49.14-.89.43-1.18.81-.29.38-.45.86-.45,1.36v10.97c0,.18-.04.36-.1.52-.07.16-.17.31-.3.44-.12.13-.28.23-.44.3-.16.06-.33.1-.52.1h-13.46c-.18,0-.36-.04-.52-.1-.17-.07-.32-.17-.44-.3-.13-.13-.23-.28-.3-.45-.07-.16-.1-.33-.1-.52v-10.97c0-.52-.18-1-.49-1.39-.31-.39-.75-.68-1.24-.8-1.34-.39-2.66-.86-3.96-1.41-1.31-.56-2.58-1.19-3.8-1.9-1.24-.72-2.44-1.51-3.58-2.37-1.15-.86-2.24-1.8-3.27-2.79-.38-.36-.86-.57-1.35-.61-.5-.05-1.01.08-1.44.36l-9.39,5.42c-.16.09-.33.14-.5.17-.18.02-.36,0-.54-.04-.17-.05-.34-.13-.48-.23-.14-.11-.26-.24-.35-.4-2.23-3.89-4.5-7.77-6.73-11.66-.09-.16-.14-.33-.17-.5-.02-.18,0-.36.04-.54.05-.18.13-.34.23-.48.11-.14.24-.26.39-.35l9.5-5.49c.44-.25.77-.63.95-1.06.05-.12.09-.24.12-.36l.25-.05-.25-1.01c-.17-.69-.32-1.39-.45-2.08-.13-.68-.23-1.38-.32-2.12-.09-.72-.15-1.43-.19-2.14-.04-.69-.06-1.41-.06-2.16s.02-1.47.06-2.15c.04-.7.11-1.42.19-2.13.09-.75.2-1.45.32-2.12.13-.69.28-1.39.45-2.08.13-.52.06-1.04-.14-1.48-.21-.45-.56-.82-1.01-1.05l-9.41-5.43c-.16-.09-.29-.21-.39-.35-.11-.14-.18-.3-.23-.48-.05-.18-.06-.36-.04-.54.02-.17.08-.34.17-.5,2.3-3.42,4.6-7.98,6.73-11.66.09-.16.21-.29.35-.4.14-.11.31-.19.48-.24.18-.05.37-.06.54-.04.17.02.33.08.5.17l9.51,5.49c.44.26.95.35,1.42.28.48-.06.93-.28,1.29-.63,1.03-1,2.12-1.92,3.25-2.78,1.13-.85,2.32-1.64,3.57-2.36,1.23-.71,2.5-1.35,3.82-1.91,1.3-.55,2.64-1.03,4.03-1.43.49-.14.89-.43,1.18-.81.29-.38.45-.86.46-1.36v-10.97c0-.18.04-.36.1-.52.07-.16.17-.31.3-.44.12-.13.28-.23.44-.3.16-.07.33-.1.52-.1h13.46c.19,0,.36.03.52.1.17.07.32.17.44.3.25.25.4.59.4.96v10.97c0,.53.18,1.01.48,1.39.32.39.75.68,1.25.8h0ZM288.36,47.66c1.39.59,2.73,1.26,4.02,2,1.32.76,2.58,1.6,3.78,2.51,1.2.91,2.36,1.89,3.45,2.94.04.04.1.06.15.07.06,0,.12,0,.17-.03,3.2-1.85,6.4-3.69,9.59-5.54.38-.2.79-.33,1.2-.38.42-.05.85-.02,1.26.09.42.11.82.31,1.17.58.34.26.63.59.86.98,2.32,3.75,4.52,7.82,6.73,11.65.22.39.36.81.42,1.24.06.44.03.89-.09,1.3-.11.42-.31.82-.58,1.17-.26.34-.59.64-.98.86-3.06,1.89-6.37,3.68-9.5,5.49-.05.03-.09.07-.11.12-.02.05-.03.11-.01.17l.22.88h-.01c.1.44.18.87.27,1.32.14.76.25,1.51.34,2.24.09.73.16,1.48.2,2.25.05.77.07,1.54.07,2.27s-.03,1.5-.07,2.27c-.05.77-.11,1.53-.2,2.26-.09.73-.21,1.48-.34,2.24-.14.76-.3,1.49-.47,2.21-.02.06,0,.12.02.17.03.06.07.1.12.13,3.49,1.86,7.04,4.06,10.49,6.05l-.12.15.11.13c.27.35.47.75.58,1.17.11.42.14.86.09,1.31-.05.43-.19.85-.42,1.24l-7.23,12.53-.14-.08c-.07.06-.15.13-.22.19-.35.27-.76.47-1.17.58-.42.11-.86.14-1.3.09-.42-.05-.83-.18-1.21-.4-3.16-1.68-6.42-3.71-9.55-5.51-.05-.02-.1-.03-.16-.03-.06,0-.12.03-.16.07-1.09,1.05-2.24,2.03-3.45,2.94-1.2.9-2.46,1.74-3.78,2.5-1.3.75-2.65,1.43-4.04,2.02-1.39.59-2.81,1.09-4.26,1.51-.06.02-.11.05-.14.09-.04.05-.06.11-.06.16v10.97c0,.45-.09.88-.26,1.28-.17.41-.42.78-.73,1.09-.31.31-.68.56-1.08.73-.4.16-.83.26-1.28.26h-13.46c-.45,0-.88-.09-1.28-.26-.41-.17-.78-.42-1.09-.73-.31-.31-.56-.67-.72-1.09-.17-.4-.26-.83-.26-1.28v-10.97c0-.06-.02-.12-.05-.17-.03-.04-.09-.08-.15-.09l-.04-.02c-1.46-.42-2.87-.92-4.23-1.5-1.38-.59-2.72-1.26-4.02-2.01-1.32-.76-2.58-1.6-3.78-2.5-1.21-.91-2.36-1.9-3.45-2.95-.05-.04-.1-.07-.16-.07-.06,0-.12,0-.17.04l-9.5,5.49c-.39.22-.81.36-1.23.42-.44.05-.89.02-1.31-.09-.42-.11-.82-.31-1.17-.58-.33-.25-.62-.57-.85-.95-2.5-4.01-4.85-8.41-7.24-12.53l.13-.08c-.03-.11-.04-.21-.06-.32-.05-.44-.02-.88.09-1.3.11-.42.31-.82.58-1.17.26-.34.59-.64.98-.86l9.5-5.49c.05-.03.09-.07.11-.12.02-.05.03-.11.01-.17l-.25-1h.02c-.08-.39-.17-.79-.24-1.19-.14-.76-.25-1.51-.34-2.24-.09-.73-.16-1.48-.2-2.26-.05-.77-.07-1.53-.07-2.27s.02-1.5.07-2.27c.05-.77.12-1.52.2-2.26.09-.73.21-1.48.34-2.24.14-.75.3-1.49.47-2.2.01-.06,0-.12-.02-.18-.03-.05-.07-.1-.12-.12l-9.49-5.48c-.39-.23-.72-.52-.98-.86-.27-.36-.47-.76-.58-1.17-.11-.42-.14-.86-.09-1.3.05-.42.19-.83.4-1.21,2.26-4.19,4.85-8.42,7.25-12.56l.14.08c.07-.06.15-.13.22-.18.35-.27.75-.47,1.17-.58.42-.11.86-.14,1.3-.09.43.06.85.19,1.23.41l.7.4h0s8.82,5.1,8.82,5.1c.05.03.11.04.17.03.06,0,.11-.03.15-.07l.02-.03c1.08-1.04,2.23-2.02,3.44-2.93,1.2-.91,2.46-1.74,3.76-2.49,1.3-.75,2.65-1.42,4.04-2.02,1.38-.59,2.8-1.09,4.26-1.51.06-.02.11-.05.14-.09.04-.05.06-.11.05-.16v-10.97c0-.45.09-.88.26-1.27.17-.41.42-.78.73-1.09.31-.31.68-.56,1.08-.73.4-.16.83-.25,1.28-.25h13.46c.45,0,.88.09,1.28.25.41.17.78.42,1.09.73.61.61.98,1.44.98,2.36v10.97c0,.06.02.12.06.17.03.04.09.08.15.09l.04.02c1.46.42,2.88.93,4.23,1.5Z"/>
        <g>
          <path class="cls-12" d="M653.98,179.41c2.72,0,4.93-2.22,4.93-4.93s-2.22-4.93-4.93-4.93-4.93,2.22-4.93,4.93,2.22,4.93,4.93,4.93Z"/>
          <g>
            <path class="cls-20" d="M209.26,398.58h0ZM203.13,375.27c-2.13-2.13-5.08-3.45-8.33-3.45s-6.2,1.32-8.32,3.45c-2.13,2.13-3.45,5.07-3.45,8.33s1.32,6.2,3.45,8.33c2.13,2.13,5.07,3.45,8.32,3.45s6.2-1.32,8.33-3.45c2.13-2.13,3.45-5.07,3.45-8.33s-1.32-6.2-3.45-8.33h0ZM200.59,363.6c1.63.47,3.18,1.13,4.62,1.96,1.47.85,2.83,1.88,4.05,3.05.24.23.59.26.86.11l5.47-3.16.03-.02c.31-.17.67-.2,1-.11.34.09.64.31.82.63l.02.04,3.85,6.67c.18.32.22.69.13,1.03-.09.34-.31.64-.63.82l-.04.02-5.43,3.13c-.29.16-.42.49-.34.8h0c.2.81.35,1.64.46,2.49.1.83.15,1.67.15,2.54s-.05,1.71-.15,2.54c-.11.85-.26,1.68-.46,2.49-.08.33.08.67.38.82l5.43,3.13h0c.32.19.54.49.63.83.09.34.05.71-.13,1.03l-3.87,6.71h0c-.18.32-.49.54-.82.63-.34.09-.71.05-1.03-.13l-.04-.02-5.43-3.14c-.28-.16-.63-.11-.86.11-1.22,1.17-2.57,2.2-4.05,3.05-1.44.83-3,1.5-4.65,1.97-.32.09-.53.38-.53.69v6.31c0,.37-.15.71-.4.95-.25.25-.58.4-.96.4h-7.74c-.37,0-.71-.15-.96-.4-.24-.24-.4-.58-.4-.95v-6.31c0-.34-.24-.63-.56-.7-1.63-.47-3.18-1.14-4.61-1.96-1.47-.85-2.83-1.88-4.05-3.05-.25-.24-.62-.26-.9-.08l-5.43,3.14c-.32.19-.69.22-1.03.13-.34-.09-.64-.31-.83-.63l-.02-.04-3.85-6.67h0c-.19-.32-.22-.69-.13-1.03.09-.34.31-.64.63-.82l5.47-3.16c.29-.16.42-.49.34-.8h0c-.2-.81-.35-1.64-.45-2.49-.1-.83-.16-1.67-.16-2.54s.05-1.71.16-2.54c.1-.85.26-1.68.45-2.49.08-.34-.08-.67-.38-.82l-5.43-3.13c-.32-.18-.53-.49-.63-.82-.09-.34-.06-.71.13-1.03l.02-.04,3.85-6.67h0c.19-.32.49-.54.83-.63.34-.09.71-.05,1.03.13h0l5.47,3.16c.29.17.65.11.88-.12,1.21-1.17,2.57-2.19,4.03-3.04,1.44-.83,3-1.5,4.65-1.97.32-.09.53-.38.53-.7v-6.31c0-.37.15-.71.4-.96.25-.25.59-.4.96-.4h7.74c.37,0,.71.15.96.4.25.25.4.58.4.96v6.31c0,.34.24.63.56.7Z"/>
            <g>
              <path class="cls-1" d="M409.39,99.33h5.69c1.37,0,2.49,1.12,2.49,2.49v5.7c0,1.37-1.12,2.49-2.49,2.49h-5.69c-1.37,0-2.49-1.12-2.49-2.49v-5.69c0-1.38,1.12-2.49,2.49-2.49Z"/>
              <path class="cls-49" d="M429.14,99.33h5.69c1.37,0,2.49,1.12,2.49,2.49v5.7c0,1.37-1.12,2.49-2.49,2.49h-5.69c-1.37,0-2.49-1.11-2.49-2.49v-5.7c0-1.38,1.12-2.49,2.49-2.49Z"/>
              <path class="cls-1" d="M448.89,99.33h5.69c1.38,0,2.49,1.12,2.49,2.49v5.69c0,1.37-1.12,2.49-2.49,2.49h-5.69c-1.37,0-2.49-1.12-2.49-2.49v-5.69c0-1.38,1.12-2.49,2.49-2.49Z"/>
              <path class="cls-49" d="M468.64,99.33h5.69c1.38,0,2.49,1.12,2.49,2.49v5.69c0,1.37-1.12,2.49-2.49,2.49h-5.7c-1.37,0-2.49-1.12-2.49-2.49v-5.69c0-1.38,1.12-2.49,2.49-2.49Z"/>
              <path class="cls-1" d="M488.39,99.33h5.69c1.38,0,2.49,1.12,2.49,2.49v5.69c0,1.37-1.12,2.49-2.49,2.49h-5.7c-1.37,0-2.49-1.12-2.49-2.49v-5.7c0-1.37,1.12-2.49,2.49-2.49Z"/>
              <rect class="cls-49" x="447.12" y="77.8" width="10.67" height="10.68" rx="2.49" ry="2.49"/>
              <rect class="cls-1" x="466.86" y="77.8" width="10.68" height="10.68" rx="2.49" ry="2.49"/>
              <rect class="cls-49" x="486.61" y="77.8" width="10.68" height="10.68" rx="2.49" ry="2.49"/>
            </g>
            <path class="cls-2" d="M911.43,92.94c0-.72.59-1.31,1.31-1.31s1.31.59,1.31,1.31v5.91c0,.72-.59,1.31-1.31,1.31s-1.31-.59-1.31-1.31v-5.91h0ZM902.47,97.74c-.51-.51-.51-1.35,0-1.86s1.35-.51,1.86,0l4.18,4.18c.51.51.51,1.35,0,1.86s-1.34.51-1.86,0l-4.18-4.18h0ZM899.53,107.47c-.73,0-1.32-.59-1.32-1.31s.59-1.31,1.32-1.31h5.91c.72,0,1.32.59,1.32,1.31s-.59,1.31-1.32,1.31h-5.91ZM904.33,116.43c-.51.51-1.35.51-1.86,0s-.51-1.35,0-1.86l4.18-4.18c.51-.51,1.34-.51,1.86,0,.51.51.51,1.35,0,1.86l-4.18,4.18h0ZM914.06,119.37c0,.72-.59,1.31-1.31,1.31s-1.31-.59-1.31-1.31v-5.91c0-.73.59-1.31,1.31-1.31s1.31.59,1.31,1.31v5.91h0ZM923.02,114.57c.51.51.51,1.35,0,1.86s-1.35.51-1.86,0l-4.18-4.18c-.51-.51-.51-1.35,0-1.86.51-.51,1.34-.51,1.86,0l4.18,4.18h0ZM925.97,104.84c.73,0,1.31.59,1.31,1.31s-.59,1.31-1.31,1.31h-5.91c-.72,0-1.32-.59-1.32-1.31s.59-1.31,1.32-1.31h5.91ZM921.17,95.88c.51-.51,1.35-.51,1.86,0s.51,1.35,0,1.86l-4.18,4.18c-.51.51-1.34.51-1.86,0s-.51-1.35,0-1.86l4.18-4.18Z"/>
            <path class="cls-2" d="M188.17,452.22c0-.72.59-1.31,1.32-1.31s1.32.59,1.32,1.31v5.91c0,.72-.59,1.31-1.32,1.31s-1.32-.59-1.32-1.31v-5.91h0ZM179.21,457.02c-.51-.51-.51-1.35,0-1.86.51-.51,1.35-.51,1.86,0l4.18,4.18c.51.51.51,1.35,0,1.86-.51.51-1.35.51-1.86,0l-4.18-4.18h0ZM176.27,466.75c-.72,0-1.31-.59-1.31-1.31s.59-1.31,1.31-1.31h5.91c.73,0,1.31.59,1.31,1.31s-.59,1.31-1.31,1.31h-5.91ZM181.07,475.71c-.51.51-1.35.51-1.86,0-.51-.51-.51-1.35,0-1.86l4.18-4.18c.51-.51,1.35-.51,1.86,0,.51.51.51,1.35,0,1.86l-4.18,4.18h0ZM190.81,478.65c0,.72-.59,1.31-1.32,1.31s-1.32-.59-1.32-1.31v-5.91c0-.73.59-1.31,1.32-1.31s1.32.59,1.32,1.31v5.91h0ZM199.77,473.85c.51.51.51,1.35,0,1.86-.51.51-1.35.51-1.86,0l-4.18-4.18c-.51-.51-.51-1.35,0-1.86.51-.51,1.35-.51,1.86,0l4.18,4.18h0ZM202.71,464.12c.72,0,1.31.59,1.31,1.31s-.59,1.31-1.31,1.31h-5.91c-.73,0-1.31-.59-1.31-1.31s.59-1.31,1.31-1.31h5.91ZM197.91,455.16c.51-.51,1.35-.51,1.86,0,.51.51.51,1.35,0,1.86l-4.18,4.18c-.51.51-1.35.51-1.86,0-.51-.51-.51-1.35,0-1.86l4.18-4.18Z"/>
            <path class="cls-12" d="M297.05,275.69c2.72,0,4.93-2.22,4.93-4.93s-2.21-4.93-4.93-4.93-4.93,2.22-4.93,4.93,2.22,4.93,4.93,4.93Z"/>
            <path class="cls-12" d="M390.98,50.26c2.72,0,4.93-2.21,4.93-4.93s-2.22-4.93-4.93-4.93-4.93,2.22-4.93,4.93,2.22,4.93,4.93,4.93Z"/>
            <path class="cls-12" d="M710.34,54.95c2.72,0,4.93-2.21,4.93-4.93s-2.22-4.93-4.93-4.93-4.93,2.22-4.93,4.93,2.22,4.93,4.93,4.93Z"/>
            <path class="cls-12" d="M919.33,188.8c2.72,0,4.93-2.22,4.93-4.93s-2.22-4.93-4.93-4.93-4.93,2.22-4.93,4.93,2.22,4.93,4.93,4.93Z"/>
            <path class="cls-12" d="M879.41,327.35c2.72,0,4.93-2.21,4.93-4.93s-2.21-4.93-4.93-4.93-4.93,2.22-4.93,4.93,2.22,4.93,4.93,4.93Z"/>
          </g>
        </g>
        <g>
          <polygon class="cls-39" points="315.2 521.54 696.11 521.54 696.11 302.6 505.65 191.16 315.2 302.6 315.2 521.54"/>
          <path class="cls-12" d="M380.6,460.89h250.1c6.37,0,11.59-5.21,11.59-11.58v-219.13l-68.39-72.06h-193.3c-6.37,0-11.59,5.21-11.59,11.58v279.61c0,6.37,5.21,11.58,11.59,11.58Z"/>
          <path class="cls-18" d="M380.6,467.39h250.1c6.37,0,11.59-5.21,11.59-11.59v-122.78l-101.17,71.46h0s-35.47,25.06-35.47,25.06l-35.47-25.06h0l-101.16-71.46v122.78c0,6.37,5.21,11.59,11.59,11.59Z"/>
          <path class="cls-13" d="M642.3,241.33v-11.15l-57.53-60.62v60.18c0,6.37,5.22,11.59,11.59,11.59h45.94Z"/>
          <path class="cls-17" d="M573.9,158.12v60.47c0,6.37,5.21,11.59,11.59,11.59h56.8l-68.39-72.06Z"/>
          <polygon class="cls-34" points="315.2 302.6 470.18 412.07 315.2 521.54 315.2 302.6"/>
          <polygon class="cls-34" points="696.11 302.6 541.13 412.07 696.11 521.54 696.11 302.6"/>
          <polygon class="cls-40" points="696.11 521.54 541.13 412.07 505.65 437.13 470.18 412.07 315.2 521.54 696.11 521.54"/>
          <path class="cls-7" d="M388.92,253.28h233.48c1.23,0,2.23,1,2.23,2.23h0c0,1.23-1,2.24-2.23,2.24h-233.48c-1.23,0-2.24-1-2.24-2.24h0c0-1.23,1-2.23,2.24-2.23Z"/>
          <path class="cls-7" d="M388.92,272.36h233.48c1.23,0,2.23,1,2.23,2.23h0c0,1.23-1,2.24-2.23,2.24h-233.48c-1.23,0-2.24-1-2.24-2.24h0c0-1.23,1-2.23,2.24-2.23Z"/>
          <path class="cls-7" d="M388.92,291.43h233.48c1.23,0,2.23,1,2.23,2.23h0c0,1.23-1,2.24-2.23,2.24h-233.48c-1.23,0-2.24-1.01-2.24-2.24h0c0-1.23,1-2.23,2.24-2.23Z"/>
          <path class="cls-7" d="M388.92,310.51h233.48c1.23,0,2.23,1,2.23,2.23h0c0,1.23-1,2.24-2.23,2.24h-233.48c-1.23,0-2.24-1-2.24-2.24h0c0-1.23,1-2.23,2.24-2.23Z"/>
          <path class="cls-7" d="M388.92,329.59h233.48c1.23,0,2.23,1,2.23,2.24h0c0,1.23-1,2.23-2.23,2.23h-233.48c-1.23,0-2.24-1-2.24-2.23h0c0-1.23,1-2.24,2.24-2.24Z"/>
          <path class="cls-7" d="M392.48,221.21h117.93c1.23,0,2.24,1,2.24,2.23h0c0,1.23-1.01,2.24-2.24,2.24h-117.93c-1.23,0-2.24-1-2.24-2.23h0c0-1.23,1.01-2.24,2.24-2.24Z"/>
          <path class="cls-48" d="M522.92,221.21h16.08c1.23,0,2.23,1,2.23,2.23h0c0,1.23-1,2.24-2.24,2.24h-16.08c-1.23,0-2.23-1-2.23-2.23h0c0-1.24,1-2.24,2.23-2.24Z"/>
          <path class="cls-7" d="M392.48,205.95h133.78c1.23,0,2.24,1,2.24,2.23h0c0,1.23-1.01,2.24-2.24,2.24h-133.78c-1.23,0-2.24-1-2.24-2.24h0c0-1.23,1.01-2.23,2.24-2.23Z"/>
          <path class="cls-7" d="M393.84,179.85h23.43c1.98,0,3.6,1.62,3.6,3.6h0c0,1.98-1.62,3.6-3.6,3.6h-23.43c-1.98,0-3.6-1.62-3.6-3.6h0c0-1.98,1.62-3.6,3.6-3.6Z"/>
          <path class="cls-7" d="M431,179.85h57.5c1.98,0,3.59,1.62,3.59,3.6h0c0,1.98-1.61,3.6-3.59,3.6h-57.5c-1.98,0-3.6-1.62-3.6-3.6h0c0-1.98,1.62-3.6,3.6-3.6Z"/>
        </g>
        <g>
          <path class="cls-35" d="M881.87,356h-202.04c-5.62,0-10.22,5.02-10.22,11.17v143.03c0,6.14,4.6,11.17,10.22,11.17h202.04c5.62,0,10.22-5.02,10.22-11.17v-143.03c0-6.14-4.6-11.17-10.22-11.17Z"/>
          <path class="cls-12" d="M865.74,367.49c-8.36,0-15.13,7.4-15.13,16.54s6.78,16.53,15.13,16.53,15.13-7.4,15.13-16.53-6.77-16.54-15.13-16.54Z"/>
          <path class="cls-12" d="M840.78,372.75h-44.42c-1.62,0-2.95,1.45-2.95,3.22h0c0,1.77,1.33,3.22,2.95,3.22h44.42c1.62,0,2.95-1.45,2.95-3.22h0c0-1.77-1.33-3.22-2.95-3.22Z"/>
          <path class="cls-12" d="M831.1,387.35h-22.9c-1.62,0-2.95,1.45-2.95,3.22h0c0,1.77,1.33,3.22,2.95,3.22h22.9c1.62,0,2.95-1.45,2.95-3.22h0c0-1.77-1.33-3.22-2.95-3.22Z"/>
          <path class="cls-12" d="M840.49,387.35h.3c1.62,0,2.95,1.45,2.95,3.22h0c0,1.77-1.33,3.22-2.95,3.22h-.3c-1.62,0-2.95-1.45-2.95-3.22h0c0-1.77,1.33-3.22,2.95-3.22Z"/>
          <path class="cls-12" d="M728.19,500.75h-44.42c-1.62,0-2.95,1.45-2.95,3.22h0c0,1.77,1.33,3.22,2.95,3.22h44.42c1.62,0,2.95-1.45,2.95-3.22h0c0-1.77-1.33-3.22-2.95-3.22Z"/>
          <path class="cls-28" d="M875.28,408.73h-188.86c-3.08,0-5.59,2.75-5.59,6.11v71.3c0,3.36,2.52,6.11,5.59,6.11h188.86c3.08,0,5.59-2.75,5.59-6.11v-71.3c0-3.36-2.51-6.11-5.59-6.11Z"/>
          <path class="cls-13" d="M700.03,467.02l.69,3.44s-.58,9.44-.58,10.56,1.12,6.4,1.12,6.4c0,0-3.14,9.48-12.84,8.09-9.7-1.39-19.72-17.42-19.72-17.42,0,0,6.77-6.82,9.8-20.11,3.03-13.28,21.53,9.04,21.53,9.04Z"/>
          <path class="cls-24" d="M801.45,302.75l-8.15-11.32-63.91,25.38-4.24,4.24,3.51,9.22s62.3-4.53,72.78-27.51Z"/>
          <path class="cls-24" d="M847.54,311.69s12.21-3.47,12.21,7.68c0,15.99-12.86,36.97-40.08,36.97-19.63,0-68.98,1.6-87.27,1.6,0,0-3.79,0-5.58,5.35-1.78,5.35-24.45,117.67-24.45,117.67,0,0,2.23,5.62-1.56,5.29-1.91-.17-5.64-3.6-10.39-5.5-1.94-.77-10.55-2.6-16.32-3.52-2.79-.45-5.53.6-5.36-.37.04-.22-.59-.74-.29-2.05.09-.41,1.16-2.07,1.26-2.56,4.26-21.42,26.02-129.51,27.45-133.98,1.56-4.91,6.69-9.59,19.85-12.05,13.16-2.45,57.56-10.93,66.26-13.61,8.7-2.68,10.04-16.51,10.04-21.19s23.02-10.97,54.25,20.26Z"/>
          <path class="cls-16" d="M705.56,521.24s-88.53.77-91.25,0c-2.72-.77-3.91-2.25-3.91-5.57v-7.11c0-1.57.36-3.56,2.63-5.14,1.33-.93,3.33-1.46,6.29-2.38,8.03-2.49,18.85-3.56,24.87-4.86,6.02-1.3,16.84-16.23,18.29-17.18,1.45-.95,5.69-.95,10.04-.95s11.38.24,13.5,5.21c2.12,4.97,11.12,5.67,14.54,4.14,0,0,3.31-.23,4.09,2.02.78,2.25.35,17.89.57,19.54.22,1.66-.5,2.43-.5,2.43,0,0,1.5,1.13,1.78,1.66.28.54.39,2.02.39,3.56s.2,4.5-1.33,4.62Z"/>
          <path class="cls-16" d="M613.31,503.63c1.33-.87,3.25-1.73,6.02-2.59,8.03-2.49,18.85-3.56,24.87-4.86,1.3-.28,2.82-1.19,4.42-2.46l12.05-.47.39,3.79s3.63.66,2.23,3.08c-1.39,2.43-12.6,5.74-22.53,5.74h-24.21c-2.11,0-3.11-.81-3.24-2.23Z"/>
          <path class="cls-16" d="M705.56,521.24s-4.72.06-14.53.13c-8.26-2.2-15.53-4.66-15.53-4.66,0,0,13.83-19.19,13.05-20.97-.78-1.78-10.6-10.43-10.6-10.43,0,0,1.43-2.59,3.43-6.11,2.03.75,3.76,2.01,4.64,4.07,2.12,4.97,11.12,5.67,14.54,4.14,0,0,3.31-.23,4.09,2.02.78,2.25.35,17.89.57,19.54.22,1.66-.5,2.43-.5,2.43,0,0,1.5,1.13,1.78,1.66.28.54.39,2.02.39,3.56s.2,4.5-1.33,4.62Z"/>
          <path class="cls-27" d="M642.98,496.43c.43-.08.83-.16,1.22-.25,6.02-1.3,16.84-16.23,18.29-17.18,1.45-.95,5.69-.95,10.04-.95,3.26,0,8.03.13,11.1,2.29h0c.54.41,2.66,2.44-2.89,6.02-6.25,4.03-14.72,9.24-17.96,10.3-3.23,1.07-10.83.09-19.8-.25Z"/>
          <path class="cls-45" d="M614.23,511.4c2.51.73,81.52.08,90.45,0,0,0,1.48,1.13,1.75,1.66.27.54.38,2.02.38,3.56s.19,4.5-1.31,4.62c0,0-88.61.77-91.27,0-2.66-.77-3.82-2.25-3.82-5.57v-7.11c0-.41.02-.82.1-1.23.33,2.28,1.5,3.42,3.72,4.06Z"/>
          <path class="cls-33" d="M614.23,511.4c2.25.65,65.48.2,85.35.05,0,1.53-.15,3.36-1.32,3.45,0,0-71.17.62-87.86.19v-6.53c0-.41.02-.82.1-1.23.33,2.28,1.5,3.42,3.72,4.06Z"/>
          <path class="cls-12" d="M665.72,479.74c-.24-.2-.17-.64.16-.98.33-.34.79-.46,1.03-.26l3.6,2.98,8.88-1.68c.39-.07.65.18.56.57-.09.39-.48.77-.88.84l-7.23,1.37,2.6,2.15c.24.2.17.64-.16.98-.08.09-.17.16-.26.21-.17.27-.46.5-.76.55l-7.23,1.37,2.6,2.15c.24.2.17.64-.16.98-.21.22-.48.35-.71.36l-7.82,1.48,2.09,2.07h0s0,.01,0,.01h0s0,0,0,0h0s0,.01,0,.01h0s0,.01,0,.01h0s0,.01,0,.01h0s0,0,0,0h0s0,.01,0,.01h0s0,.01,0,.01h0s0,.01,0,.01h0s0,.01,0,.01h0s0,.01,0,.01h0s0,.01,0,.01h0s0,.03,0,.03h0s0,.03,0,.03h0s0,.02,0,.02h0s0,.03,0,.03v.02s0,.01,0,.01h0v.02s0,.05,0,.05v.03h0v.02h0v.02h0v.02h0s-.01.07-.02.1h0s-.01.03-.01.03h0s0,.02,0,.02h0s0,.02,0,.02c-.01.03-.03.07-.04.1h0s0,.02,0,.02h0s0,.02,0,.02h0s-.04.07-.04.07h0v.02s0,0,0,0l-.02.03h0v.02s-.01,0-.01,0h-.01v.03s-.04.03-.04.03h0s0,.02,0,.02h0s-.01.02-.01.02h0s-.01.02-.01.02h0s-.01.01-.01.01h0s0,.01,0,.01h0s0,.02,0,.02h0s0,.01,0,.01h0s0,.01,0,.01h0s0,.01,0,.01h-.01s0,.01,0,.01h-.01s0,.01,0,.01h-.01s-.02.02-.02.02h0s-.01.01-.01.01h0s-.01.01-.01.01h0s-.01.01-.01.01h-.02s0,.01,0,.01h-.01s0,.01,0,.01h-.02s-.02.02-.02.02h-.02s-.01.02-.01.02h-.02s-.02.02-.02.02h0s-.02,0-.02,0h0s-.02,0-.02,0h-.02s0,0,0,0h-.02s-.02.01-.02.01h-.02s0,0,0,0h-.02s-.02.01-.02.01h-.02s-.02.01-.02.01h-.02s0,0,0,0h-.03s-.02.01-.02.01h-.02s-.02,0-.02,0h-.02s0,0,0,0h-.01s0,0,0,0h-.02s-.01,0-.01,0h-.02s-.01,0-.01,0h0s0,0,0,0h0s-.01,0-.01,0h-.03s0,0,0,0h-.02s-11.65-1.41-11.65-1.41h-.02c-.05,0-.1-.01-.15-.03h0s-.01,0-.01,0h0l-.04-.02h0s0,0,0,0l-.02-.02h0s0,0,0,0h0s-.03-.04-.05-.05h0c-.08-.1-.11-.24-.08-.4h0s0-.04,0-.04c.03-.12.09-.24.17-.35h0v-.02s.01,0,.01,0l.04-.05h0s0-.02,0-.02l.05-.06h0s.05-.05.07-.07h0c.14-.13.31-.22.48-.27h.04s6.88-1.31,6.88-1.31l-2.27-2.24c-.22-.22-.12-.66.22-.99.21-.2.45-.31.67-.32l7.15-1.36-2.6-2.15c-.24-.2-.17-.64.16-.98.08-.09.17-.16.26-.21.17-.27.46-.5.76-.55l7.23-1.37-2.6-2.15h0ZM659.15,494.46l-1.27-1.26-3.57.67,4.84.59h0ZM666.25,490.27l-2.43-2.01-7.14,1.35,2.09,2.08,7.47-1.42h0ZM672.41,485.29l-2.77-2.3-7.72,1.46,2.77,2.3,7.72-1.46Z"/>
          <path class="cls-13" d="M720.22,429.98c.22-.67,1.25-6.55,1.25-6.55,0,0-1.51-5.27-1.61-8.01-.09-2.73-1.54-7.97-1.54-7.97l-11.04-.56-9.8,9.19s-.02,5.43-.91,7.88c-.89,2.45,16.53,6.58,16.53,6.58l7.12-.56Z"/>
          <path class="cls-32" d="M762.73,294.11c-27.66,1.19-79.16-20.8-76.29,26.18,1.84,30.12,7.37,80.44,8.92,95.32.28,2.74-.79,4.34-.79,4.34,0,0,.45,1.62,2.12,1.51,0,0,14.73-1.78,24.33,1.67,0,0,2.88.43,3.22-1.58.05-.28-.99-3.06-.76-6.42,1.41-20.84,5.72-89.88,5.72-89.88,26.32-5.04,64.09-2.55,64.09-33.82l-30.56,2.68Z"/>
          <path class="cls-16" d="M671.05,472.11s19.94-2.35,28.36-3.34c8.42-.99,11.25-3.68,15.84-8.6,4.59-4.92,10.22-11.43,11.19-12.77.96-1.35.82-4.03.64-5.52-.18-1.5-1.7-2.94-1.7-2.94,0,0-.95-8.09-1.24-10.58-.29-2.49-1.66-4.52-2.66-4.91,0,0-2.86,1.91-7.89,1.15-5.03-.75-4.51-3.96-9.27-3.4-4.77.56-4.88.58-8.31.98-3.43.4-6.4,2.89-7.21,6.46-.82,3.58-.84,7.18-3.82,11.46-2.98,4.28-14.05,18.05-15.4,19.9-1.36,1.84-2.46,3.44-2.21,5.54.25,2.11.32,2.71.46,3.93.14,1.22,1.15,2.89,3.23,2.65Z"/>
          <path class="cls-16" d="M671.05,472.11s19.94-2.35,28.36-3.34c2.43-.29,4.39-.71,6.06-1.29-.66-3.98-1.47-8.72-1.47-8.72,0,0-.18-1.57-.48-4.07-.29-2.49-.6-4.05-10.24-2.91l-12.4,1.49s-1.73.2-3.73.44c-1.96.23-3.58,1.18-4.35,2.12l-.04.04c-1.6,2.03-2.82,3.59-3.22,4.13-1.36,1.84-2.46,3.44-2.21,5.54.25,2.11.32,2.71.46,3.93.14,1.22,1.15,2.89,3.23,2.65Z"/>
          <path class="cls-16" d="M719.54,455.45c3.28-3.67,6.22-7.12,6.9-8.06.96-1.35.82-4.03.64-5.52-.18-1.5-1.7-2.94-1.7-2.94,0,0-.95-8.09-1.24-10.58-.29-2.49-1.66-4.52-2.66-4.91,0,0-2.86,1.91-7.89,1.15-4.37-.66-4.55-3.16-7.65-3.44l-2.51,6.6s10.98,3.14,12.04,3.52c1.06.38,2.05,1.67,1.68,5.64-.38,3.97-1.54,18.83-1.54,18.83,0,0,1.58-.11,3.94-.28Z"/>
          <path class="cls-27" d="M708.89,422.43l-.11-.09h0s0,0,0,0h0c-1.07-.8-2.13-1.42-4.46-1.15-4.77.56-4.88.58-8.31.98-3.43.4-6.4,2.89-7.21,6.46-.25,1.08-.42,2.17-.63,3.28,0,0-.3,5.85-1.3,7.37-1,1.52-5.68,9.65-7.22,11.63-1.54,1.98,1.26,2.35,1.26,2.35,0,0,4.65-.55,10.08-1.19,5.43-.64,7.05-1.17,8.64-2.93,1.59-1.76,6.16-8.76,7.64-10.95,1.49-2.19,1.89-6.34,2.76-10.43.74-3.48-.68-4.97-1.13-5.33Z"/>
          <path class="cls-45" d="M714.2,451.3c-4.59,4.92-7.41,7.61-15.83,8.6-8.42.99-28.36,3.34-28.36,3.34-.92.11-1.63-.16-2.15-.6-.42.89-.63,1.82-.51,2.87.25,2.11.32,2.71.46,3.93.14,1.22,1.15,2.89,3.23,2.65,0,0,19.94-2.35,28.36-3.34,8.42-.99,11.25-3.68,15.84-8.6,4.59-4.92,10.22-11.43,11.19-12.77.96-1.35.82-4.03.64-5.52-.18-1.5-1.7-2.94-1.7-2.94,0,0-.01-.12-.04-.33-1.09,1.48-6.62,7.86-11.14,12.71Z"/>
          <path class="cls-33" d="M714.2,451.3c-4.59,4.92-7.41,7.61-15.83,8.6-8.42.99-28.36,3.34-28.36,3.34-.92.11-1.63-.16-2.15-.6-.42.89-.63,1.82-.51,2.87l.24,2.04c38.07-4.74,39.44-4.13,45.88-11.01,2.91-3.11,6.57-7.14,9.62-10.99,1.62-2.04.87-5.21-1.59-2.38-2.16,2.49-4.88,5.52-7.3,8.12Z"/>
          <path class="cls-12" d="M691.73,430.43c-.44-.14-.68-.62-.54-1.06.14-.44.62-.68,1.06-.54l6.6,2.14,9.54-4.08c.43-.18.92.02,1.1.44.18.43-.02.92-.44,1.1l-7.78,3.33,4.76,1.55c.44.14.68.62.54,1.06-.04.11-.09.2-.16.29,0,.33-.19.64-.51.77l-7.77,3.33,4.76,1.55c.44.14.68.62.54,1.06-.09.29-.33.49-.6.56l-8.41,3.6,4.08,1.59h.02s0,0,0,0h.01s0,0,0,0h.01s0,0,0,0h0s0,0,0,0h0s0,0,0,0h0s0,0,0,0h0s.01.01.01.01h0s.01,0,.01,0h0s.01.01.01.01h0s.01.01.01.01h0s.02.01.02.01h.01s0,.01,0,.01h.01s.01.02.01.02h0s.02.01.02.01h.01s.01.03.01.03h.01s.01.03.01.03h.02s.01.03.01.03h0v.02s.05.05.05.05l.02.03h0v.02s0,0,0,0v.02h.01v.02h.01s.03.07.05.11h0s.01.04.01.04h0s0,.02,0,.02h0s0,.02,0,.02c0,.04.02.07.02.11h0v.02h0v.02h0s0,.08,0,.08h0v.02h0s0,.04,0,.04h0v.02h0s0,.02,0,.02h0s0,.02,0,.02v.04s0,0,0,0v.02s0,0,0,0v.02s0,0,0,0h0s0,.02,0,.02h0s0,.02,0,.02h0s0,.02,0,.02h0s0,.02,0,.02h0s0,.02,0,.02h0s0,.02,0,.02h0s0,.02,0,.02h0s0,.02,0,.02h0s0,.02,0,.02v.02s-.01,0-.01,0h0s0,.02,0,.02v.02s-.01,0-.01,0h0v.02h-.01v.02h-.01s0,.02,0,.02h-.01s-.01.03-.01.03v.02s-.03.01-.03.01h-.01s0,.02,0,.02h-.01s0,.01,0,.01h-.01s-.01.03-.01.03h0s-.02.01-.02.01h-.01s-.02.03-.02.03h-.02s0,.01,0,.01h-.02s-.02.02-.02.02h0s-.02.01-.02.01h-.02s0,.01,0,.01h-.02s-.04.03-.04.03h-.02s-.02.02-.02.02h-.02s0,0,0,0h-.02s0,0,0,0h-.02s0,0,0,0h-.02s0,0,0,0h-.01s0,0,0,0h-.01s0,0,0,0h-.01s0,0,0,0h-.01s0,0,0,0h-.01s0,0,0,0h-.01s0,0,0,0h-.02s0,0,0,0h-.02s-15.22,1.61-15.22,1.61h-.02c-.07.01-.14.02-.2,0h-.02s-.06-.01-.06-.01h-.02s0,0,0,0h-.04s-.01-.01-.01-.01h0s-.01,0-.01,0h0s-.06-.02-.09-.04h0c-.17-.08-.31-.21-.4-.39h0s-.02-.04-.02-.04c-.06-.13-.08-.27-.06-.41h0v-.02h0v-.06s0-.02,0-.02h0s.02-.08.02-.08h0s.02-.06.04-.09h0c.08-.17.21-.31.39-.4h0s.04-.02.04-.02l7.39-3.16-4.43-1.73c-.43-.17-.64-.66-.48-1.09.1-.26.32-.44.58-.51l7.69-3.29-4.77-1.55c-.44-.14-.68-.62-.54-1.06.03-.11.09-.2.16-.29,0-.33.19-.64.51-.77l7.77-3.33-4.76-1.55h0ZM694.7,447.43l-2.48-.97-3.83,1.64,6.32-.67h0ZM700.22,441.2l-4.45-1.44-7.68,3.29,4.09,1.6,8.04-3.44h0ZM704,434.41l-5.08-1.65-8.3,3.55,5.07,1.65,8.3-3.55Z"/>
          <path class="cls-42" d="M869.06,181.91c1.1,20.74,1.42,45.73,1.42,45.73,0,0-8.17,38.31-8.17,56.6,0,11.13,5.37,23.18,3.53,31.01-5.75,24.5-27.59-21.13-74.34-21.13h-28.77s-4.24-3.11-4.58-8.57c-.29-4.78,7.1-29.58,9.1-39.6-1.85,2.7-3.1,4.37-3.1,4.37,0,0-14.96,2.6-15.55-13.54-.59-16.14,12.62-67.22,17.47-73.24,9.06-11.25,17.3-16.97,31.76-20.26,0,0,19.37-4.27,38.72-1.89.65.15,19.56,2.66,32.55,14.96.62,5.49-.39,17.43,0,25.54l-.04.02Z"/>
          <path class="cls-4" d="M870.42,223.82c.04,2.41.06,3.81.06,3.81,0,0-8.17,38.31-8.17,56.6,0,11.13,5.37,23.18,3.53,31.01-4.78,20.33-20.63-7.64-52.61-17.74,7.19-7.23,21.84-23.2,29.62-40.31,10.57-23.25,9.86-50.72,8.81-75.73,4.61,18.96,11.52,32.25,18.76,42.36Z"/>
          <path class="cls-31" d="M776.01,209.02c3.52-32.05.35-40.86.35-40.86,0,0-7.47,47.39-14.16,63.24-6.69,15.85-9.44,10.38-6.97,10.38s21.49,3.87,21.49-.35-.71-32.41-.71-32.41Z"/>
          <path class="cls-12" d="M777.07,193.52c7.75,7.22,55.65,9.16,70.09,7.4l14.44-1.76,1.76,32.41c.17,3.1-32.46,4.53-59.09,1.44-16.9-1.96-32.54-7.52-32.14-9.9l4.93-29.59Z"/>
          <path class="cls-7" d="M852.21,200.3l5.16-.63c1.52,3.87,3.15,7.42,4.84,10.72l1.15,21.17c.07,1.26-5.34,2.25-13.57,2.77,2.02-11.12,2.51-22.65,2.41-34.03Z"/>
          <path class="cls-11" d="M825.4,276.82c-1.05,1.42-4.36-.3-5.36.71-9.21,9.35-16.31,3.18-26.7,12.41-4.85,4.31,25.71,2.57,28.88,2.99l19.02-12.5-15.85-3.61Z"/>
          <path class="cls-47" d="M819.67,277.91c-1.61,1.57-3.15,2.67-4.65,3.47,4.58,3.38,5.27,6.77,2.56,7.86-3.08,1.23-10.48,2.2-19.02,1.23-2.04-.23-2.82.54-2.59,1.81,7.1,1.19,23.96.35,26.27.66l12.43-8.17c-4.12-3.43-9.76-6.72-15-6.85Z"/>
          <path class="cls-12" d="M839.6,141.9c2.53.6-.1,8.69-2.78,13.83-11.7,22.35-36.87,15.33-36.87-12.15v-.79c2.76-.7,3.22-.93,5.25-1.38,12.64-.91,22.07-2.45,34.4.49Z"/>
          <path class="cls-23" d="M820.48,106.41h0c-8.63,0-15.7,7.06-15.7,15.7v20.76c0,8.63,4.07,20.45,12.7,20.45s18.69-11.82,18.69-20.45v-20.76c0-8.63-7.06-15.7-15.7-15.7Z"/>
          <path class="cls-32" d="M806.57,318.39s-59.65,13.28-62.35,14.18c-2.7.9-5.18,4.73-4.5,12.6.67,7.88,4.5,1.51,21.16,2.63,16.66,1.13,52.89.39,62.57-4.08,9.68-4.47,13.51-6.2,9.9-17.23-3.6-11.03-18.01-10.13-26.79-8.1Z"/>
          <path class="cls-42" d="M882.01,201.33c.71,11.76,1.52,24.2.37,34.5-.91,8.2-3.51,15.17-5.12,18.42-1.71,3.47-33.99,30.16-45.3,39.1-1.36,1.07-3.1,3.21-3.08,2.38.26-10.53-3.44-9.33-11.81-15.6,9.78-9.13,33.97-31.14,37.45-42.17,0,0,1.47-3.23.59-13.21-.88-9.98-2.42-44.09-2.29-49.32.12-5.23.99-15.05,4.77-19.78,4.32-2.09,8.15-2.07,11.14.42,9.46,7.88,12.61,34.2,13.28,45.26Z"/>
          <path class="cls-14" d="M819.87,282.08c-.87-.57-1.8-1.21-2.81-1.96,9.78-9.13,33.97-31.14,37.45-42.17,0,0,1.47-3.23.59-13.21-.88-9.98-2.42-44.09-2.29-49.32.04-1.59.14-3.6.38-5.77,1.31-1.43,2.06-2.21,2.06-2.21,0,0,8.81,53.54,8.45,62.7-.34,8.77-13.61,26.6-43.84,51.93Z"/>
          <path class="cls-50" d="M712.48,292.38h108.69c2.04,0,3.7,1.66,3.7,3.7h0c0,2.04-1.66,3.7-3.7,3.7h-108.69c-2.04,0-3.7-1.66-3.7-3.7h0c0-2.04,1.66-3.7,3.7-3.7Z"/>
          <path class="cls-15" d="M712.48,299.77h108.69c1.32,0,2.48-.7,3.13-1.74-.65-1.05-1.82-1.74-3.13-1.74h-108.69c-1.32,0-2.48.7-3.13,1.74.65,1.04,1.82,1.74,3.13,1.74Z"/>
          <path class="cls-41" d="M709.6,292.38h93.08c2.66,0,4.57-2.18,4.24-4.84l-7.42-60.29c-.33-2.66-2.77-4.83-5.43-4.83h-93.08c-2.66,0-4.57,2.18-4.24,4.83l7.42,60.29c.33,2.66,2.77,4.84,5.43,4.84Z"/>
          <path class="cls-15" d="M709.6,292.38h90.34c2.66,0,4.57-2.18,4.24-4.84l-7.42-60.29c-.33-2.66-2.77-4.83-5.43-4.83h-90.34c-2.66,0-4.57,2.18-4.24,4.83l7.42,60.29c.33,2.66,2.77,4.84,5.43,4.84Z"/>
          <path class="cls-44" d="M714.52,292.38h9.29l73.37-61.59-.43-3.54c-.13-1.05-.59-2.04-1.27-2.83l-80.96,67.96h0ZM784.93,222.42l-80.04,67.19c-.38-.63-.63-1.33-.72-2.06l-1.15-9.38,66.42-55.75h15.49Z"/>
          <path class="cls-41" d="M807.7,299.77h13.47c2.03,0,3.7-1.66,3.7-3.7h0c0-2.03-1.66-3.7-3.7-3.7h-13.47c-2.03,0-3.69,1.66-3.69,3.69h0c0,2.03,1.66,3.7,3.69,3.7Z"/>
          <path class="cls-41" d="M710.63,294.23h96.84c1.02,0,1.85-.83,1.85-1.85h0c0-1.02-.83-1.85-1.85-1.85h-96.84c-1.02,0-1.85.83-1.85,1.85h0c0,1.02.83,1.85,1.85,1.85Z"/>
          <path class="cls-38" d="M748.56,248.11c5.13,0,9.72,4.16,10.24,9.29.53,5.13-3.21,9.29-8.34,9.29s-9.72-4.16-10.25-9.29c-.08-.8-.06-1.58.05-2.32.92.87,2.15,1.41,3.45,1.41,2.54,0,4.38-2.05,4.12-4.59-.14-1.35-.85-2.57-1.87-3.41.81-.25,1.67-.38,2.58-.38Z"/>
          <path class="cls-43" d="M851.35,97.7c.24.03.47.07.7.12h0s0,0,0,0c4.26.89,7.5,4.63,7.58,9.17.1,5.28-4.1,9.64-9.37,9.73-5.28.1-9.64-4.1-9.74-9.37-.06-3.07,1.33-5.82,3.55-7.61-.24,2.82.2,6.31,3.8,6.66l-.1-5.51c-.04-2.23,2.04-3.26,3.57-3.2Z"/>
          <path class="cls-43" d="M782.39,97.7c-.23.03-.47.07-.7.12h0s0,0,0,0c-4.26.89-7.5,4.63-7.59,9.17-.1,5.28,4.1,9.64,9.38,9.73,5.27.1,9.63-4.1,9.73-9.37.06-3.07-1.33-5.82-3.55-7.61.24,2.82-.21,6.31-3.81,6.66l.11-5.51c.04-2.23-2.04-3.26-3.57-3.2Z"/>
          <path class="cls-11" d="M816.87,49.97h0c17.99,0,32.71,14.72,32.71,32.71v29.75c0,17.99-14.72,32.71-32.71,32.71h0c-17.99,0-32.71-14.72-32.71-32.71v-29.75c0-17.99,14.73-32.71,32.71-32.71Z"/>
          <path class="cls-8" d="M816.87,49.97h0c17.99,0,32.71,14.72,32.71,32.71v29.75c0,17.99-14.72,32.71-32.71,32.71,25.1-2.78,25.97-25.29,25.97-37.84s-10.79-16.76-13.32-16.76h-12.23c-13.49,10.36-29.69,11.83-29.69,11.83l-3.44,1.99,1.06-8.31,23.19-8.22s-11.35.42-24.25.19v-5.34c0-17.99,14.73-32.71,32.71-32.71h0ZM816.87,145.15"/>
          <path class="cls-12" d="M823.98,121.33c.18,4.67-3.45,8.61-8.12,8.79-4.67.18-8.61-3.45-8.79-8.13h.02c-.03-.8.6-1.49,1.4-1.52l13.97-.55c.8-.03,1.49.6,1.52,1.4h.01Z"/>
          <path class="cls-12" d="M821.08,128.04c-1.41,1.23-3.22,2-5.24,2.08-1.64.06-3.19-.35-4.52-1.1.58-1.76,2.43-3.14,4.71-3.31,2.18-.17,4.13.81,5.04,2.33Z"/>
          <path class="cls-12" d="M808.29,120.5l13.13-.52c.27,1.44-.35,2.94-1.31,3.3-1.17.43-10.68.56-11.38-.16-.34-.35-.43-1.51-.43-2.62Z"/>
          <path class="cls-43" d="M798.32,114.05c2.38-.05,4.34,1.84,4.38,4.22.05,2.38-1.84,4.34-4.22,4.38-2.38.05-4.34-1.84-4.38-4.22-.04-2.38,1.85-4.34,4.22-4.38Z"/>
          <path class="cls-43" d="M835.33,113.35c2.38-.04,4.34,1.85,4.38,4.22.04,2.38-1.84,4.34-4.22,4.38-2.38.04-4.34-1.85-4.38-4.22-.05-2.37,1.84-4.34,4.22-4.38Z"/>
          <path class="cls-6" d="M787.6,98.15v4.22c0,2.03-1.89,4.3-3.44,4.3v-4.61s-.66-3.4-4.85-3.4c-12.88-14.8-11.18-38.3,2.57-50.48,13.74-12.18,43.27-12.96,48.42-11.25,5.15,1.72,10.46,10.46,10.46,10.46,0,0,4.38-3.9,8.43-1.88,4.06,2.03,14.75,24.56,14.75,30.97s-9.49,22.17-9.49,22.17c-4.2,0-4.86,3.4-4.86,3.4v4.61c-1.56,0-3.44-2.27-3.44-4.3v-4.22c-12.93-5.74-17.02-22.96-17.02-22.96,0,0-20.42,26.05-41.52,22.96Z"/>
          <path class="cls-21" d="M770.58,72.87c.35-7.44,2.84-14.69,7.33-20.46,11.02,7.46,34.17,16.94,56.91-12.46,1.45,1.38,2.77,2.97,3.79,4.34-8.2,15.35-28.34,40.9-68.03,28.59Z"/>
          <path class="cls-24" d="M787.6,98.15c-2.23.96-1.23,14.77-3.75,14.77-.71-3.64-.31-14.26-4.55-14.26-5.1-5.86-7.91-13.07-8.6-20.41,15.07,15.13,50.89,1.49,59.72-9.79,0,0,14.94,15.96,33.46,7.91.08.47.13.9.13,1.26,0,6.41-9.58,21.03-9.58,21.03-2.56,0-3.11,9.22-4.86,13.82-1.56,0-3.44-8.08-3.44-10.11v-4.22c-12.93-5.74-17.02-22.96-17.02-22.96,0,0-20.42,26.05-41.52,22.96Z"/>
          <path class="cls-24" d="M795.99,99.79c-.57.29-1.27.05-1.56-.52-.29-.57-.05-1.27.52-1.56,3.08-1.59,7.19-1.77,10.21.04.55.33.73,1.04.4,1.59-.33.55-1.05.73-1.59.4-2.45-1.46-5.51-1.14-7.98.04Z"/>
          <path class="cls-24" d="M837.76,99.79c-2.48-1.18-5.54-1.51-7.99-.04-.55.33-1.27.15-1.59-.4-.33-.55-.15-1.27.4-1.59,3.02-1.81,7.14-1.63,10.21-.04.57.29.81.98.52,1.56-.29.57-.98.81-1.55.52Z"/>
          <path class="cls-51" d="M834.2,103.7h0c1.56,0,2.82,1.26,2.82,2.82v3.69c0,1.56-1.26,2.82-2.82,2.82h0c-1.56,0-2.82-1.27-2.82-2.82v-3.68c0-1.56,1.27-2.82,2.82-2.82Z"/>
          <path class="cls-24" d="M799.55,103.7h0c-1.56,0-2.83,1.27-2.83,2.82v3.69c0,1.55,1.27,2.82,2.83,2.82h0c1.55,0,2.82-1.27,2.82-2.82v-3.69c0-1.55-1.27-2.82-2.82-2.82Z"/>
          <path class="cls-29" d="M812.96,110.55s-1.79,3.88-2,5.08c-.21,1.19.95,1.86,3.37,1.47,2.42-.39.27-8.92-1.38-6.55Z"/>
          <path class="cls-24" d="M847.68,98.24c-1.05-1.21-3.03-2.77-4.22-3.67-.31-.24-.62-.48-.95-.7-.01,0-.02-.02-.02-.02h0c-2.3-1.54-5.07-2.44-8.05-2.44-4.01,0-7.65,1.63-10.27,4.27-1.27,1.19-2.37,2.49-3.5,3.76-1.44,1.62-2.29.82-3.72.82s-2.29.79-3.72-.82c-1.13-1.27-2.23-2.57-3.5-3.76-2.63-2.64-6.31-4.27-10.32-4.27-2.98,0-5.93.9-8.1,2.44h0s.04,0,.02.01c-.33.22-.62.45-.92.7-1.19.89-3.23,2.46-4.28,3.67-.51.59-1.23,1-1.96,1.29v5.64c.31.92.68,2.6,1.19,4.33.21.82.51,1.62.85,2.38.32.76.7,1.46,1.12,2.03h0c2.6,3.93,7.05,6.52,12.11,6.52,5.88,0,10.94-3.5,13.22-8.52,0,0,0,0,.01-.02.01-.02.02-.04.03-.06,1.04-1.77,2.09-6.61,2.56-7.38.48-.78,1.68-.84,1.68-.84,0,0,1.19.06,1.67.84.47.77,1.52,5.61,2.56,7.38.01.02.02.04.03.06,0,0,0,0,0,.02,2.28,5.02,7.34,8.52,13.21,8.52,5.06,0,9.52-2.6,12.11-6.53h0c.43-.57.8-1.27,1.11-2.03.34-.76.63-1.55.83-2.38.47-1.6.8-3.15,1.09-4.1v-5.88c-.71-.28-1.4-.69-1.91-1.27h0ZM799.44,118.46h0c-6.92,0-12.53-5.61-12.53-12.53s5.61-12.53,12.53-12.53,12.53,5.61,12.53,12.53-5.61,12.53-12.53,12.53h0ZM834.43,118.46h0c-6.92,0-12.53-5.61-12.53-12.53s5.61-12.53,12.53-12.53,12.53,5.61,12.53,12.53-5.61,12.53-12.53,12.53Z"/>
        </g>
      </g>
      <path class="cls-46" d="M1305.7-10.13s-234.78,252.2-68.87,344.55,345.13-74.15,474.26,7.47c118.96,75.19,136.17,255.29-17.22,383.63"/>
    </g>
  </g>
</svg>