<?xml version="1.0" encoding="UTF-8"?>
<svg xmlns="http://www.w3.org/2000/svg" version="1.1" xmlns:xlink="http://www.w3.org/1999/xlink" viewBox="0 0 500 500">
  <defs>
    <style>
      .cls-1 {
        font-size: 10.72px;
      }

      .cls-1, .cls-2, .cls-3, .cls-4, .cls-5, .cls-6, .cls-7, .cls-8, .cls-9, .cls-10, .cls-11, .cls-12, .cls-13, .cls-14, .cls-15 {
        fill: #fff;
      }

      .cls-1, .cls-16, .cls-4, .cls-7, .cls-10, .cls-11, .cls-12 {
        font-family: OpenSans-Bold, 'Open Sans';
      }

      .cls-1, .cls-4, .cls-7, .cls-17, .cls-10, .cls-11, .cls-12 {
        font-weight: 700;
      }

      .cls-18 {
        fill: url(#Degradado_sin_nombre_36);
      }

      .cls-2 {
        font-size: 11.2px;
      }

      .cls-2, .cls-8, .cls-9, .cls-13, .cls-14, .cls-15 {
        font-family: OpenSans-Semibold, 'Open Sans';
        font-weight: 600;
      }

      .cls-16 {
        fill: #3559a0;
      }

      .cls-19 {
        fill: url(#Degradado_sin_nombre_24);
      }

      .cls-20 {
        fill: url(#Degradado_sin_nombre_16);
      }

      .cls-21 {
        fill: url(#Degradado_sin_nombre_14-3);
      }

      .cls-21, .cls-3, .cls-22, .cls-23, .cls-24, .cls-25, .cls-26, .cls-27, .cls-28, .cls-29, .cls-30, .cls-31, .cls-32, .cls-33, .cls-34, .cls-35, .cls-36, .cls-37, .cls-38, .cls-39, .cls-40 {
        stroke-miterlimit: 10;
      }

      .cls-21, .cls-22, .cls-24, .cls-26, .cls-27, .cls-29, .cls-30, .cls-31, .cls-33, .cls-35, .cls-36, .cls-37, .cls-38, .cls-40 {
        stroke: #fff;
      }

      .cls-21, .cls-27, .cls-29, .cls-31, .cls-33, .cls-35 {
        stroke-width: 1.14px;
      }

      .cls-3 {
        stroke: #eaeaea;
      }

      .cls-41 {
        fill: url(#Degradado_sin_nombre_28);
      }

      .cls-22 {
        fill: url(#Degradado_sin_nombre_34);
      }

      .cls-22, .cls-24, .cls-30, .cls-36, .cls-38, .cls-40 {
        stroke-width: .96px;
      }

      .cls-23 {
        stroke: #3ac12f;
      }

      .cls-23, .cls-42, .cls-25, .cls-28, .cls-32, .cls-34, .cls-39 {
        fill: none;
      }

      .cls-23, .cls-25, .cls-28, .cls-32, .cls-34, .cls-39 {
        stroke-linecap: round;
        stroke-width: .48px;
      }

      .cls-43 {
        fill: #617ce0;
      }

      .cls-4 {
        font-size: 10.97px;
      }

      .cls-6 {
        fill-rule: evenodd;
      }

      .cls-7 {
        font-size: 11.35px;
      }

      .cls-44, .cls-45 {
        fill: #ef7d30;
      }

      .cls-8 {
        font-size: 11.54px;
      }

      .cls-9 {
        font-size: 11.55px;
      }

      .cls-46 {
        fill: url(#Degradado_sin_nombre_20-2);
      }

      .cls-47 {
        fill: #ff70ff;
      }

      .cls-17 {
        font-size: 28.39px;
      }

      .cls-48 {
        fill: #e02d71;
      }

      .cls-49 {
        fill: url(#Degradado_sin_nombre_41);
      }

      .cls-50 {
        isolation: isolate;
      }

      .cls-51 {
        fill: url(#Degradado_sin_nombre_32);
      }

      .cls-52 {
        fill: url(#Degradado_sin_nombre_20-3);
      }

      .cls-53 {
        fill: #0a42a5;
      }

      .cls-24 {
        fill: url(#Degradado_sin_nombre_14);
      }

      .cls-25 {
        stroke: #ff70ff;
      }

      .cls-26 {
        filter: url(#drop-shadow-1);
        stroke-width: .72px;
      }

      .cls-26, .cls-37 {
        fill: #dee7ff;
      }

      .cls-10 {
        font-size: 10.81px;
      }

      .cls-27 {
        fill: url(#Degradado_sin_nombre_14-7);
      }

      .cls-11 {
        font-size: 12.79px;
      }

      .cls-54 {
        fill: #f3feff;
      }

      .cls-28 {
        stroke: #ef7d30;
      }

      .cls-29 {
        fill: url(#Degradado_sin_nombre_14-5);
      }

      .cls-30 {
        fill: url(#Degradado_sin_nombre_18);
      }

      .cls-31 {
        fill: url(#Degradado_sin_nombre_14-8);
      }

      .cls-32 {
        stroke: #e02d71;
      }

      .cls-33 {
        fill: url(#Degradado_sin_nombre_14-2);
      }

      .cls-34 {
        stroke: #0a42a5;
      }

      .cls-55 {
        fill: url(#Degradado_sin_nombre_37);
      }

      .cls-35 {
        fill: url(#Degradado_sin_nombre_14-6);
      }

      .cls-56 {
        display: none;
      }

      .cls-36 {
        fill: url(#Degradado_sin_nombre_30);
      }

      .cls-57 {
        mix-blend-mode: multiply;
        opacity: .1;
      }

      .cls-58 {
        fill: #3ac12f;
      }

      .cls-37 {
        filter: url(#drop-shadow-2);
        stroke-width: .82px;
      }

      .cls-12 {
        font-size: 11.98px;
      }

      .cls-59 {
        fill: url(#Degradado_sin_nombre_20-4);
      }

      .cls-60 {
        fill: url(#Degradado_sin_nombre_39);
      }

      .cls-38 {
        fill: url(#Degradado_sin_nombre_22);
      }

      .cls-39 {
        stroke: #b485ff;
      }

      .cls-61 {
        fill: url(#Degradado_sin_nombre_20);
      }

      .cls-62 {
        fill: url(#Degradado_sin_nombre_40);
      }

      .cls-13 {
        font-size: 11.22px;
      }

      .cls-40 {
        fill: url(#Degradado_sin_nombre_26);
      }

      .cls-63 {
        fill: #b485ff;
      }

      .cls-64 {
        fill: url(#Degradado_sin_nombre_14-4);
      }

      .cls-14 {
        font-size: 11.4px;
      }

      .cls-65 {
        fill: url(#Degradado_sin_nombre_38);
      }

      .cls-15 {
        font-size: 10.73px;
      }

      .cls-45 {
        font-family: Congenial-Bold, Congenial;
      }
    </style>
    <linearGradient id="Degradado_sin_nombre_18" data-name="Degradado sin nombre 18" x1="120.76" y1="111.11" x2="190.66" y2="111.11" gradientTransform="translate(124.18 -77.56) rotate(45)" gradientUnits="userSpaceOnUse">
      <stop offset="0" stop-color="#ffce55"/>
      <stop offset="1" stop-color="#ef7d30"/>
    </linearGradient>
    <linearGradient id="Degradado_sin_nombre_14" data-name="Degradado sin nombre 14" x1="252.97" y1="293.11" x2="322.9" y2="293.11" gradientTransform="translate(90.67 -67.31) rotate(15.8)" gradientUnits="userSpaceOnUse">
      <stop offset="0" stop-color="#52bdff"/>
      <stop offset="1" stop-color="#2b46aa"/>
    </linearGradient>
    <linearGradient id="Degradado_sin_nombre_26" data-name="Degradado sin nombre 26" x1="252.97" y1="207.18" x2="322.9" y2="207.18" gradientTransform="translate(341.82 -143.43) rotate(63)" gradientUnits="userSpaceOnUse">
      <stop offset="0" stop-color="#3ac12f"/>
      <stop offset="1" stop-color="#158732"/>
    </linearGradient>
    <linearGradient id="Degradado_sin_nombre_22" data-name="Degradado sin nombre 22" x1="202.47" y1="137.67" x2="272.39" y2="137.67" gradientTransform="translate(111.62 -106.25) rotate(32.61)" gradientUnits="userSpaceOnUse">
      <stop offset="0" stop-color="#b485ff"/>
      <stop offset="1" stop-color="#4a3596"/>
    </linearGradient>
    <linearGradient id="Degradado_sin_nombre_30" data-name="Degradado sin nombre 30" x1="202.47" y1="362.63" x2="272.39" y2="362.63" gradientTransform="translate(4.23 -2.74) rotate(.67)" gradientUnits="userSpaceOnUse">
      <stop offset="0" stop-color="#f487ef"/>
      <stop offset="1" stop-color="#a02d9a"/>
    </linearGradient>
    <linearGradient id="Degradado_sin_nombre_34" data-name="Degradado sin nombre 34" x1="120.76" y1="389.18" x2="190.66" y2="389.18" gradientTransform="translate(498.7 148.22) rotate(76.72)" gradientUnits="userSpaceOnUse">
      <stop offset="0" stop-color="#ff6494"/>
      <stop offset="1" stop-color="#e02d71"/>
    </linearGradient>
    <linearGradient id="Degradado_sin_nombre_14-2" data-name="Degradado sin nombre 14" x1="340.51" y1="215.51" x2="458.84" y2="215.51" gradientTransform="matrix(1,0,0,1,0,0)" xlink:href="#Degradado_sin_nombre_14"/>
    <linearGradient id="Degradado_sin_nombre_41" data-name="Degradado sin nombre 41" x1="340.51" y1="215.51" x2="458.84" y2="215.51" gradientUnits="userSpaceOnUse">
      <stop offset="0" stop-color="#3ac12f"/>
      <stop offset="1" stop-color="#158732"/>
    </linearGradient>
    <linearGradient id="Degradado_sin_nombre_28" data-name="Degradado sin nombre 28" x1="338.64" y1="213.71" x2="373.63" y2="213.71" gradientUnits="userSpaceOnUse">
      <stop offset="0" stop-color="#29af1b"/>
      <stop offset="1" stop-color="#0c681f"/>
    </linearGradient>
    <linearGradient id="Degradado_sin_nombre_14-3" data-name="Degradado sin nombre 14" x1="340.51" y1="291.98" x2="458.84" y2="291.98" gradientTransform="matrix(1,0,0,1,0,0)" xlink:href="#Degradado_sin_nombre_14"/>
    <linearGradient id="Degradado_sin_nombre_14-4" data-name="Degradado sin nombre 14" x1="340.51" y1="291.98" x2="458.84" y2="291.98" gradientTransform="matrix(1,0,0,1,0,0)" xlink:href="#Degradado_sin_nombre_14"/>
    <linearGradient id="Degradado_sin_nombre_16" data-name="Degradado sin nombre 16" x1="338.66" y1="290.22" x2="372.17" y2="290.22" gradientUnits="userSpaceOnUse">
      <stop offset="0" stop-color="#2691ea"/>
      <stop offset="1" stop-color="#1f41a0"/>
    </linearGradient>
    <linearGradient id="Degradado_sin_nombre_14-5" data-name="Degradado sin nombre 14" x1="329.01" y1="368.46" x2="447.34" y2="368.46" gradientTransform="matrix(1,0,0,1,0,0)" xlink:href="#Degradado_sin_nombre_14"/>
    <linearGradient id="Degradado_sin_nombre_40" data-name="Degradado sin nombre 40" x1="329.01" y1="368.46" x2="447.34" y2="368.46" gradientUnits="userSpaceOnUse">
      <stop offset="0" stop-color="#f487ef"/>
      <stop offset="1" stop-color="#a02d9a"/>
    </linearGradient>
    <linearGradient id="Degradado_sin_nombre_32" data-name="Degradado sin nombre 32" x1="326.43" y1="366.66" x2="361.48" y2="366.66" gradientUnits="userSpaceOnUse">
      <stop offset="0" stop-color="#dd5fdd"/>
      <stop offset="1" stop-color="#8c228c"/>
    </linearGradient>
    <linearGradient id="Degradado_sin_nombre_14-6" data-name="Degradado sin nombre 14" x1="297.73" y1="444.94" x2="416.06" y2="444.94" gradientTransform="matrix(1,0,0,1,0,0)" xlink:href="#Degradado_sin_nombre_14"/>
    <linearGradient id="Degradado_sin_nombre_39" data-name="Degradado sin nombre 39" x1="297.73" y1="444.94" x2="416.06" y2="444.94" gradientUnits="userSpaceOnUse">
      <stop offset="0" stop-color="#ff6494"/>
      <stop offset="1" stop-color="#e02d71"/>
    </linearGradient>
    <linearGradient id="Degradado_sin_nombre_36" data-name="Degradado sin nombre 36" x1="295.25" y1="443.13" x2="330.85" y2="443.13" gradientUnits="userSpaceOnUse">
      <stop offset="0" stop-color="#e83174"/>
      <stop offset="1" stop-color="#bc1559"/>
    </linearGradient>
    <linearGradient id="Degradado_sin_nombre_14-7" data-name="Degradado sin nombre 14" x1="326.82" y1="139.03" x2="445.15" y2="139.03" gradientTransform="matrix(1,0,0,1,0,0)" xlink:href="#Degradado_sin_nombre_14"/>
    <linearGradient id="Degradado_sin_nombre_38" data-name="Degradado sin nombre 38" x1="326.82" y1="139.03" x2="445.15" y2="139.03" gradientUnits="userSpaceOnUse">
      <stop offset="0" stop-color="#b485ff"/>
      <stop offset="1" stop-color="#4a3596"/>
    </linearGradient>
    <linearGradient id="Degradado_sin_nombre_24" data-name="Degradado sin nombre 24" x1="325.48" y1="136.85" x2="361.51" y2="136.85" gradientUnits="userSpaceOnUse">
      <stop offset="0" stop-color="#8854ed"/>
      <stop offset="1" stop-color="#31227a"/>
    </linearGradient>
    <linearGradient id="Degradado_sin_nombre_14-8" data-name="Degradado sin nombre 14" x1="295.54" y1="62.55" x2="413.87" y2="62.55" gradientTransform="matrix(1,0,0,1,0,0)" xlink:href="#Degradado_sin_nombre_14"/>
    <linearGradient id="Degradado_sin_nombre_37" data-name="Degradado sin nombre 37" x1="295.54" y1="62.55" x2="413.87" y2="62.55" gradientUnits="userSpaceOnUse">
      <stop offset="0" stop-color="#ffce55"/>
      <stop offset="1" stop-color="#ef7d30"/>
    </linearGradient>
    <linearGradient id="Degradado_sin_nombre_20" data-name="Degradado sin nombre 20" x1="293.9" y1="60.67" x2="328.64" y2="60.67" gradientUnits="userSpaceOnUse">
      <stop offset="0" stop-color="#ef9620"/>
      <stop offset="1" stop-color="#d85d09"/>
    </linearGradient>
    <filter id="drop-shadow-1" filterUnits="userSpaceOnUse">
      <feOffset dx=".96" dy=".96"/>
      <feGaussianBlur result="blur" stdDeviation="4.8"/>
      <feFlood flood-color="#a2b7f2" flood-opacity=".75"/>
      <feComposite in2="blur" operator="in"/>
      <feComposite in="SourceGraphic"/>
    </filter>
    <filter id="drop-shadow-2" filterUnits="userSpaceOnUse">
      <feOffset dx=".78" dy=".78"/>
      <feGaussianBlur result="blur-2" stdDeviation="3.9"/>
      <feFlood flood-color="#a2b7f2" flood-opacity=".75"/>
      <feComposite in2="blur-2" operator="in"/>
      <feComposite in="SourceGraphic"/>
    </filter>
    <linearGradient id="Degradado_sin_nombre_20-2" data-name="Degradado sin nombre 20" x1="641.36" y1="211.1" x2="679.21" y2="211.1" xlink:href="#Degradado_sin_nombre_20"/>
    <linearGradient id="Degradado_sin_nombre_20-3" data-name="Degradado sin nombre 20" x1="643.35" y1="216.95" x2="677.18" y2="216.95" xlink:href="#Degradado_sin_nombre_20"/>
    <linearGradient id="Degradado_sin_nombre_20-4" data-name="Degradado sin nombre 20" x1="649.05" y1="194.88" x2="671.42" y2="194.88" xlink:href="#Degradado_sin_nombre_20"/>
  </defs>
  <!-- Generator: Adobe Illustrator 28.6.0, SVG Export Plug-In . SVG Version: 1.2.0 Build 709)  -->
  <g class="cls-50">
    <g id="BACKGROUND" class="cls-56">
      <rect class="cls-54" width="500" height="500"/>
    </g>
    <g id="OBJECTS">
      <g>
        <circle class="cls-43" cx="155.71" cy="250.15" r="126.43" transform="translate(-131.27 183.37) rotate(-45)"/>
        <circle class="cls-30" cx="155.71" cy="111.11" r="34.95" transform="translate(-32.96 142.65) rotate(-45)"/>
        <circle class="cls-24" cx="287.94" cy="293.11" r="34.95" transform="translate(-68.92 89.45) rotate(-15.8)"/>
        <circle class="cls-40" cx="287.94" cy="207.18" r="34.95" transform="translate(-27.39 369.68) rotate(-63)"/>
        <circle class="cls-38" cx="237.43" cy="137.67" r="34.95" transform="translate(-36.76 149.65) rotate(-32.61)"/>
        <circle class="cls-36" cx="237.43" cy="362.63" r="34.95" transform="translate(-4.2 2.79) rotate(-.67)"/>
        <circle class="cls-22" cx="155.71" cy="389.18" r="34.95" transform="translate(-258.83 451.31) rotate(-76.72)"/>
        <g>
          <rect class="cls-33" x="340.51" y="197.46" width="118.33" height="36.08" rx="8.41" ry="8.41"/>
          <rect class="cls-49" x="340.51" y="197.46" width="118.33" height="36.08" rx="8.41" ry="8.41"/>
          <path class="cls-57" d="M373,207.02h-24.95c-2.94,0-5.54,1.48-7.09,3.74v12.25c0,.12.01.24.02.35.32.14.67.22,1.04.22h30.98c1.17,0,2.12-.95,2.12-2.12v-12.33c0-1.17-.95-2.12-2.12-2.12Z"/>
          <path class="cls-41" d="M347.24,205.43h24.27c1.17,0,2.12.95,2.12,2.12v12.33c0,1.17-.95,2.12-2.12,2.12h-30.3c-1.42,0-2.56-1.15-2.56-2.56v-5.41c0-4.75,3.85-8.6,8.6-8.6Z"/>
          <text class="cls-2" transform="translate(352.32 217.4)"><tspan x="0" y="0">03</tspan></text>
        </g>
        <g>
          <rect class="cls-21" x="340.51" y="273.94" width="118.33" height="36.08" rx="8.41" ry="8.41"/>
          <rect class="cls-64" x="340.51" y="273.94" width="118.33" height="36.08" rx="8.41" ry="8.41"/>
          <path class="cls-57" d="M371.57,283.82h-23.9c-2.82,0-5.31,1.42-6.79,3.58v11.74c0,.11.01.23.02.34.3.14.64.21.99.21h29.67c1.12,0,2.03-.91,2.03-2.03v-11.81c0-1.12-.91-2.03-2.03-2.03Z"/>
          <path class="cls-20" d="M346.9,282.29h23.25c1.12,0,2.03.91,2.03,2.03v11.81c0,1.12-.91,2.03-2.03,2.03h-29.02c-1.36,0-2.46-1.1-2.46-2.46v-5.18c0-4.54,3.69-8.23,8.23-8.23Z"/>
          <text class="cls-15" transform="translate(351.77 294.12)"><tspan x="0" y="0">04</tspan></text>
        </g>
        <g>
          <rect class="cls-29" x="329.01" y="350.42" width="118.33" height="36.08" rx="8.41" ry="8.41"/>
          <rect class="cls-62" x="329.01" y="350.42" width="118.33" height="36.08" rx="8.41" ry="8.41"/>
          <path class="cls-57" d="M360.85,359.96h-25c-2.95,0-5.55,1.48-7.1,3.74v12.28c0,.12.01.24.02.35.32.14.67.22,1.04.22h31.04c1.17,0,2.12-.95,2.12-2.12v-12.35c0-1.17-.95-2.12-2.12-2.12Z"/>
          <path class="cls-51" d="M335.04,358.36h24.31c1.17,0,2.12.95,2.12,2.12v12.35c0,1.17-.95,2.12-2.12,2.12h-30.36c-1.42,0-2.57-1.15-2.57-2.57v-5.42c0-4.75,3.86-8.61,8.61-8.61Z"/>
          <text class="cls-13" transform="translate(340.5 371.1)"><tspan x="0" y="0">05</tspan></text>
        </g>
        <g>
          <rect class="cls-35" x="297.73" y="426.9" width="118.33" height="36.09" rx="8.41" ry="8.41"/>
          <rect class="cls-60" x="297.73" y="426.9" width="118.33" height="36.09" rx="8.41" ry="8.41"/>
          <path class="cls-57" d="M330.22,436.32h-25.39c-3,0-5.64,1.51-7.21,3.8v12.47c0,.12.01.24.02.36.32.14.68.23,1.06.23h31.53c1.19,0,2.16-.97,2.16-2.16v-12.55c0-1.19-.97-2.16-2.16-2.16Z"/>
          <path class="cls-18" d="M304,434.7h24.7c1.19,0,2.16.97,2.16,2.16v12.55c0,1.19-.97,2.16-2.16,2.16h-30.84c-1.44,0-2.61-1.17-2.61-2.61v-5.5c0-4.83,3.92-8.75,8.75-8.75Z"/>
          <text class="cls-14" transform="translate(310 447.11)"><tspan x="0" y="0">06</tspan></text>
        </g>
        <g>
          <rect class="cls-27" x="326.82" y="120.99" width="118.33" height="36.08" rx="8.41" ry="8.41"/>
          <rect class="cls-65" x="326.82" y="120.99" width="118.33" height="36.08" rx="8.41" ry="8.41"/>
          <path class="cls-57" d="M360.87,129.96h-25.69c-3.03,0-5.71,1.53-7.3,3.85v12.62c0,.12.01.24.02.36.33.15.69.23,1.07.23h31.91c1.21,0,2.18-.98,2.18-2.18v-12.7c0-1.21-.98-2.18-2.18-2.18Z"/>
          <path class="cls-19" d="M334.34,128.31h24.99c1.21,0,2.18.98,2.18,2.18v12.7c0,1.21-.98,2.18-2.18,2.18h-31.21c-1.46,0-2.64-1.18-2.64-2.64v-5.57c0-4.89,3.97-8.85,8.85-8.85Z"/>
          <text class="cls-8" transform="translate(339.84 141.11)"><tspan x="0" y="0">02</tspan></text>
        </g>
        <g>
          <rect class="cls-31" x="295.54" y="44.51" width="118.33" height="36.08" rx="8.41" ry="8.41"/>
          <rect class="cls-55" x="295.54" y="44.51" width="118.33" height="36.08" rx="8.41" ry="8.41"/>
          <path class="cls-57" d="M328.02,54.03h-24.77c-2.92,0-5.5,1.47-7.04,3.71v12.17c0,.12.01.23.02.35.32.14.66.22,1.03.22h30.76c1.16,0,2.11-.94,2.11-2.11v-12.24c0-1.16-.94-2.11-2.11-2.11Z"/>
          <path class="cls-61" d="M302.43,52.44h24.1c1.16,0,2.11.94,2.11,2.11v12.24c0,1.16-.94,2.11-2.11,2.11h-30.09c-1.41,0-2.55-1.14-2.55-2.55v-5.37c0-4.71,3.83-8.54,8.54-8.54Z"/>
          <text class="cls-9" transform="translate(306.89 64.74)"><tspan x="0" y="0">01</tspan></text>
        </g>
        <g>
          <polyline class="cls-28" points="285.71 62.55 155.71 62.55 155.71 71.94"/>
          <line class="cls-39" x1="273.69" y1="137.67" x2="321.28" y2="137.67"/>
          <line class="cls-23" x1="324.85" y1="214.97" x2="334.54" y2="214.97"/>
          <polyline class="cls-32" points="285.71 437.74 155.71 437.74 155.71 428.35"/>
          <line class="cls-25" x1="273.69" y1="362.63" x2="321.28" y2="362.63"/>
          <line class="cls-34" x1="324.85" y1="285.33" x2="334.54" y2="285.33"/>
          <path class="cls-44" d="M156.8,72.56c0,.6-.49,1.09-1.09,1.09s-1.09-.49-1.09-1.09.49-1.09,1.09-1.09,1.09.49,1.09,1.09Z"/>
          <path class="cls-44" d="M287.4,62.55c0,.6-.49,1.09-1.09,1.09s-1.09-.49-1.09-1.09.49-1.09,1.09-1.09,1.09.49,1.09,1.09Z"/>
          <path class="cls-63" d="M274.78,137.67c0,.6-.49,1.09-1.09,1.09s-1.09-.49-1.09-1.09.49-1.09,1.09-1.09,1.09.49,1.09,1.09Z"/>
          <path class="cls-63" d="M322.37,137.67c0,.6-.49,1.09-1.09,1.09s-1.09-.49-1.09-1.09.49-1.09,1.09-1.09,1.09.49,1.09,1.09Z"/>
          <circle class="cls-58" cx="334.54" cy="214.96" r="1.09"/>
          <circle class="cls-58" cx="324.85" cy="214.96" r="1.09"/>
          <circle class="cls-53" cx="324.53" cy="285.35" r="1.09"/>
          <circle class="cls-53" cx="334.94" cy="285.35" r="1.09"/>
          <path class="cls-47" d="M322.37,362.63c0,.6-.49,1.09-1.09,1.09s-1.09-.49-1.09-1.09.49-1.09,1.09-1.09,1.09.49,1.09,1.09Z"/>
          <path class="cls-47" d="M274.78,362.63c0,.6-.49,1.09-1.09,1.09s-1.09-.49-1.09-1.09.49-1.09,1.09-1.09,1.09.49,1.09,1.09Z"/>
          <path class="cls-48" d="M156.8,427.99c0,.6-.49,1.09-1.09,1.09s-1.09-.49-1.09-1.09.49-1.09,1.09-1.09,1.09.49,1.09,1.09Z"/>
          <path class="cls-48" d="M286.8,437.74c0,.6-.49,1.09-1.09,1.09s-1.09-.49-1.09-1.09.49-1.09,1.09-1.09,1.09.49,1.09,1.09Z"/>
        </g>
        <g>
          <circle class="cls-26" cx="155.71" cy="250.15" r="111.57"/>
          <circle class="cls-37" cx="155.71" cy="250.15" r="90.53"/>
        </g>
        <text class="cls-17" transform="translate(121.89 227.58)"><tspan class="cls-45"><tspan x="0" y="0">Teks</tspan></tspan><tspan class="cls-16"><tspan x="-42.32" y="34.07" xml:space="preserve"> Franchise</tspan></tspan><tspan class="cls-16"><tspan x="-9.66" y="68.13">Gains</tspan></tspan></text>
      </g>
      <g>
        <g>
          <path class="cls-5" d="M169.47,112.93l2.88-7.71c.73-1.7,2.21-1.39,2.21-1.39,1.15.21,1.76,1.15,1.63,2.2l-2.64,10.61c-.68,2.73-2.58,5.38-4.79,7.1l-4.56,3.26v1.92c0,.46-.37.83-.83.83h-7.65v-4.84s-.5-5.51,4.73-8.69l6.25-4.01c.32-.2.68-.3,1.03-.3.49,0,.98.19,1.35.56.73.73.75,1.92.03,2.67l-4.21,3.32"/>
          <path class="cls-5" d="M146.5,118.47l-4.21-3.32c-.71-.75-.7-1.94.03-2.67.37-.37.86-.56,1.35-.56.36,0,.72.1,1.03.3l6.25,4.01c5.23,3.18,4.73,8.69,4.73,8.69v4.84h-7.65c-.46,0-.83-.37-.83-.83v-1.92l-4.56-3.26c-2.21-1.72-4.11-4.37-4.79-7.1l-2.64-10.61c-.13-1.05.49-1.99,1.63-2.2,0,0,1.48-.32,2.21,1.39l2.88,7.71"/>
          <path class="cls-5" d="M167.13,106.3h-10.52v-5.3c0-1.81,1.47-3.27,3.27-3.27h4.81c1.81,0,3.27,1.47,3.27,3.27v4.47c0,.46-.37.83-.83.83Z"/>
          <path class="cls-5" d="M154.82,106.3h-10.52c-.46,0-.83-.37-.83-.83v-4.47c0-1.81,1.47-3.27,3.27-3.27h4.81c1.81,0,3.27,1.47,3.27,3.27v5.3Z"/>
          <path class="cls-5" d="M160.55,111.57h-9.69c-.46,0-.83-.37-.83-.83v-4.47c0-1.81,1.47-3.27,3.27-3.27h4.81c1.81,0,3.27,1.47,3.27,3.27v4.47c0,.46-.37.83-.83.83Z"/>
          <circle class="cls-5" cx="155.71" cy="99.13" r="3.86"/>
          <circle class="cls-5" cx="162.28" cy="93.86" r="3.86"/>
          <circle class="cls-5" cx="149.14" cy="93.86" r="3.86"/>
        </g>
        <g>
          <path class="cls-5" d="M169.47,112.93l2.88-7.71c.73-1.7,2.21-1.39,2.21-1.39,1.15.21,1.76,1.15,1.63,2.2l-2.64,10.61c-.68,2.73-2.58,5.38-4.79,7.1l-4.56,3.26v1.92c0,.46-.37.83-.83.83h-7.65v-4.84s-.5-5.51,4.73-8.69l6.25-4.01c.32-.2.68-.3,1.03-.3.49,0,.98.19,1.35.56.73.73.75,1.92.03,2.67l-4.21,3.32"/>
          <path class="cls-5" d="M146.5,118.47l-4.21-3.32c-.71-.75-.7-1.94.03-2.67.37-.37.86-.56,1.35-.56.36,0,.72.1,1.03.3l6.25,4.01c5.23,3.18,4.73,8.69,4.73,8.69v4.84h-7.65c-.46,0-.83-.37-.83-.83v-1.92l-4.56-3.26c-2.21-1.72-4.11-4.37-4.79-7.1l-2.64-10.61c-.13-1.05.49-1.99,1.63-2.2,0,0,1.48-.32,2.21,1.39l2.88,7.71"/>
          <path class="cls-3" d="M151.92,111.57h-1.05c-.46,0-.83-.37-.83-.83v-4.47c0-1.81,1.47-3.27,3.27-3.27h4.81c1.81,0,3.27,1.47,3.27,3.27v4.47c0,.46-.37.83-.83.83h-1.04"/>
          <circle class="cls-3" cx="155.71" cy="99.13" r="3.86"/>
          <path class="cls-42" d="M159.69,97.73h5c1.81,0,3.27,1.47,3.27,3.27v4.41c0,.49-.4.89-.89.89h-5.69"/>
          <circle class="cls-5" cx="162.28" cy="93.86" r="3.86"/>
          <path class="cls-5" d="M150.04,106.3h-5.69c-.49,0-.89-.4-.89-.89v-4.41c0-1.81,1.47-3.27,3.27-3.27h5.11"/>
          <circle class="cls-5" cx="149.14" cy="93.86" r="3.86"/>
          <line class="cls-5" x1="155.71" y1="111.57" x2="155.71" y2="111.57"/>
        </g>
      </g>
      <path class="cls-5" d="M244.8,151.49h-2.28v-2.28h-11.42v2.28h-2.28c-1.26,0-2.28,1.02-2.28,2.28v1.14c0,.63.51,1.14,1.14,1.14h18.27c.63,0,1.14-.51,1.14-1.14v-1.14c0-1.26-1.02-2.28-2.28-2.28Z"/>
      <path class="cls-5" d="M226.53,124.35v12.87c.91-.22,1.84-.33,2.77-.33,2.24,0,4.45.64,6.36,1.88v-12.39c-3.09-2.46-6.17-2.94-9.13-2.03Z"/>
      <path class="cls-5" d="M237.95,126.38v12.39c2.7-1.75,6.02-2.3,9.13-1.55v-12.87c-2.99-.92-6.06-.43-9.13,2.03Z"/>
      <path class="cls-5" d="M252.79,117.09h-32.12c-1.89,0-3.42,1.54-3.42,3.42v22.98c0,1.89,1.54,3.42,3.42,3.42h32.12c1.89,0,3.42-1.54,3.42-3.42v-22.98c0-1.89-1.54-3.42-3.42-3.42ZM249.36,138.78c0,.38-.19.73-.5.95-.31.21-.71.26-1.06.11-3.14-1.26-6.73-.72-9.37,1.39-1.01.81-1.16.98-1.62.98s-.61-.17-1.62-.98c-2.64-2.11-6.23-2.64-9.37-1.39-.35.14-.75.09-1.06-.11-.31-.21-.5-.57-.5-.95v-15.23c0-.47.28-.89.72-1.06,3.73-1.49,8.15-1.07,11.84,1.88,3.64-2.91,8.06-3.39,11.84-1.88.43.17.72.59.72,1.06v15.23h0Z"/>
      <path class="cls-5" d="M299.3,222.25c-.3-.06-.52-.33-.52-.64v-2.67c0-.31.22-.58.52-.64l1.31-.28.39-.94-.73-1.13c-.17-.26-.13-.6.09-.83l1.89-1.89c.22-.22.56-.26.83-.09l1.13.73.94-.39.28-1.32c.06-.3.33-.52.64-.52h2.67c.31,0,.58.22.64.52l.28,1.32.94.39.14-.09v-17.84h-42.71v26.42c0,.69.56,1.25,1.25,1.25h31.64l.09-.14-.39-.94-1.31-.28ZM299.4,201.99c0-.28.17-.52.43-.62.26-.1.55-.02.73.19l2.14,2.53,2.14-2.53c.18-.21.47-.29.73-.19.26.1.43.34.43.62v6.25c0,.36-.29.66-.66.66s-.66-.29-.66-.66v-4.46l-1.49,1.76c-.13.15-.31.23-.5.23s-.38-.09-.5-.23l-1.49-1.76v4.46c0,.36-.29.66-.66.66s-.66-.29-.66-.66v-6.25ZM277.36,221.2h-6.13c-.36,0-.66-.29-.66-.66s.29-.66.66-.66h6.13c.36,0,.66.29.66.66s-.29.66-.66.66ZM277.36,218.12h-6.13c-.36,0-.66-.29-.66-.66s.29-.66.66-.66h6.13c.36,0,.66.29.66.66s-.29.66-.66.66ZM277.36,215.05h-6.13c-.36,0-.66-.29-.66-.66s.29-.66.66-.66h6.13c.36,0,.66.29.66.66s-.29.66-.66.66ZM277.36,211.98h-6.13c-.36,0-.66-.29-.66-.66s.29-.66.66-.66h6.13c.36,0,.66.29.66.66s-.29.66-.66.66ZM277.36,208.9h-6.13c-.36,0-.66-.29-.66-.66s.29-.66.66-.66h6.13c.36,0,.66.29.66.66s-.29.66-.66.66ZM277.36,205.83h-6.13c-.36,0-.66-.29-.66-.66s.29-.66.66-.66h6.13c.36,0,.66.29.66.66s-.29.66-.66.66ZM277.36,202.75h-6.13c-.36,0-.66-.29-.66-.66s.29-.66.66-.66h6.13c.36,0,.66.29.66.66s-.29.66-.66.66ZM277.36,199.68h-6.13c-.36,0-.66-.29-.66-.66s.29-.66.66-.66h6.13c.36,0,.66.29.66.66s-.29.66-.66.66ZM281.89,221.63c0,.36-.29.66-.66.66s-.66-.29-.66-.66v-23.7c0-.36.29-.66.66-.66s.66.29.66.66v23.7ZM288.78,207.59h1.06c.48,0,.87-.39.87-.87,0-.36.29-.66.66-.66s.66.29.66.66c0,1.2-.98,2.18-2.18,2.18h-1.06c-1.2,0-2.18-.98-2.18-2.18v-3.21c0-1.2.98-2.18,2.18-2.18h1.06c1.2,0,2.18.98,2.18,2.18,0,.36-.29.66-.66.66s-.66-.29-.66-.66c0-.48-.39-.86-.87-.86h-1.06c-.48,0-.87.39-.87.86v3.21c0,.48.39.87.87.87h0ZM298.47,203.74c0,.99-.7,1.81-1.64,2l1.23,2.19c.18.32.06.72-.25.9-.1.06-.21.08-.32.08-.23,0-.45-.12-.58-.34l-1.56-2.79h-.82v2.47c0,.36-.29.66-.66.66s-.66-.29-.66-.66v-6.25c0-.36.29-.66.66-.66h2.56c1.13,0,2.04.92,2.04,2.04v.36ZM297.16,203.38v.36c0,.4-.33.73-.73.73h-1.9v-1.81h1.9c.4,0,.73.33.73.73h0ZM310.73,191.52c0-.69-.56-1.25-1.25-1.25h-40.22c-.69,0-1.25.56-1.25,1.25v3.11h42.71v-3.11ZM271.23,193.15c-.38,0-.7-.31-.7-.69s.31-.7.7-.7.69.31.69.7-.31.69-.69.69ZM273.66,193.15c-.38,0-.7-.31-.7-.69s.31-.7.7-.7.7.31.7.7-.31.69-.7.69ZM276.09,193.15c-.38,0-.7-.31-.7-.69s.31-.7.7-.7.7.31.7.7-.31.69-.7.69ZM310.15,220.27c0,1.52-1.24,2.76-2.76,2.76s-2.76-1.24-2.76-2.76,1.24-2.75,2.76-2.75,2.76,1.24,2.76,2.75ZM313.56,219.23c-.21-.04-.39-.19-.47-.39l-.65-1.58c-.08-.2-.06-.43.06-.61l.63-.97-1.13-1.14-.97.63c-.18.12-.41.14-.61.06l-1.58-.65c-.2-.08-.35-.26-.39-.47l-.24-1.13h-1.6l-.24,1.13c-.05.21-.19.39-.39.47l-1.58.65c-.2.08-.43.06-.61-.06l-.97-.63-1.13,1.14.63.97c.12.18.14.41.06.61l-.65,1.58c-.08.2-.26.35-.47.39l-1.13.24v1.61l1.13.24c.21.04.39.19.47.39l.65,1.58c.08.2.06.43-.06.61l-.63.97,1.13,1.14.97-.63c.18-.12.41-.14.61-.06l1.58.65c.2.08.35.26.39.47l.24,1.13h1.6l.24-1.13c.05-.21.19-.39.39-.47l1.58-.65c.2-.08.43-.06.61.06l.97.63,1.13-1.14-.63-.97c-.12-.18-.14-.41-.06-.61l.65-1.58c.08-.2.26-.35.47-.39l1.13-.24v-1.61l-1.13-.24ZM307.39,224.35c-2.25,0-4.07-1.83-4.07-4.07s1.83-4.07,4.07-4.07,4.07,1.83,4.07,4.07-1.83,4.07-4.07,4.07h0Z"/>
      <path class="cls-6" d="M298.83,287.02h-8.27v-1.16c0-.34-.28-.62-.62-.62-.34,0-.62.28-.62.62v1.16h-8.28c-.34,0-.62.28-.62.62,0,0,0,0,0,0v12.73c0,.34.28.62.62.62h17.8c.34,0,.62-.28.62-.62v-12.73c0-.34-.28-.62-.62-.62h0ZM298.21,299.74h-16.55v-11.49h16.55v11.49ZM286.28,297.57c0-2.01,1.61-3.65,3.63-3.66,2.01,0,3.65,1.61,3.66,3.63,0,.01,0,.02,0,.04,0,.34-.28.62-.62.62s-.62-.28-.62-.62c-.02-1.33-1.11-2.39-2.44-2.37-1.3.02-2.35,1.07-2.37,2.37,0,.34-.28.62-.62.62-.34,0-.62-.28-.62-.62h0ZM289.93,293.42c-.99,0-1.8-.81-1.8-1.8,0-.99.81-1.8,1.8-1.8.99,0,1.8.81,1.8,1.8,0,.99-.81,1.8-1.8,1.8h0ZM289.93,291.06c.31,0,.56.25.56.56,0,.31-.25.56-.56.56-.31,0-.56-.25-.56-.56h0c0-.31.25-.56.55-.56,0,0,0,0,0,0ZM303.33,270.37c1.73,0,3.13,1.4,3.13,3.13v39.21c0,1.73-1.4,3.13-3.13,3.13h-26.81c-1.73,0-3.13-1.4-3.13-3.13v-39.21c0-1.73,1.4-3.13,3.13-3.13h26.81ZM295.61,312.75c0-.34-.28-.62-.62-.62h-10.12c-.34,0-.62.28-.62.62s.28.62.62.62h10.12c.34,0,.62-.28.62-.62Z"/>
      <g>
        <path class="cls-5" d="M249.77,366.69c-5.84,0-10.58,4.75-10.58,10.58.58,14.04,20.59,14.04,21.17,0,0-5.84-4.75-10.58-10.58-10.58ZM251.13,382.63v.65c-.07,1.65-2.43,1.65-2.49,0v-.67c-1.46-.44-2.45-1.62-2.45-3.08,0-.69.56-1.25,1.25-1.25s1.25.56,1.25,1.25c0,.53.74.77,1.26.78.41,0,1.08-.1,1.09-.8,0-.37-.16-.57-1.11-.93-.17-.06-.78-.27-.81-.28-.98-.35-3.02-1.07-3-3.39.01-1.51.97-2.68,2.39-3.1v-.61c.07-1.65,2.43-1.65,2.49,0v.64c1.46.44,2.45,1.62,2.45,3.08,0,.69-.56,1.25-1.25,1.25s-1.25-.56-1.25-1.25c0-.53-.74-.77-1.26-.78-.4,0-1.08.1-1.09.8,0,.32.08.56,1.17.96.8.28,1.73.56,2.45,1.08,2.19,1.55,1.46,5-1.09,5.67h0Z"/>
        <path class="cls-5" d="M249.77,364.2c2.37,0,4.6.63,6.52,1.74v-19.34c0-.69-.56-1.25-1.25-1.25h-26.07c-.69,0-1.25.56-1.25,1.25v32.46c0,.69.56,1.25,1.25,1.25h8.08c-2.02-8.05,4.4-16.22,12.72-16.11h0ZM233.96,350.33h16.1c1.65.07,1.65,2.43,0,2.49h-16.1c-1.65-.07-1.65-2.43,0-2.49h0ZM233.96,355.31h16.1c1.65.07,1.65,2.43,0,2.49h-16.1c-1.65-.07-1.65-2.43,0-2.49h0ZM233.96,360.29h16.1c1.65.07,1.65,2.43,0,2.49h-16.1c-1.65-.07-1.65-2.43,0-2.49h0ZM232.71,366.52c0-.69.56-1.25,1.25-1.25h3.96c1.65.07,1.65,2.43,0,2.49h-3.96c-.69,0-1.25-.56-1.25-1.25Z"/>
        <path class="cls-5" d="M217.85,356.72h7.47v15.27h-7.47v-15.27Z"/>
        <path class="cls-5" d="M221.59,349.42c-2.06,0-3.74,1.68-3.74,3.74v1.08h7.47v-1.08c0-2.06-1.68-3.74-3.74-3.74Z"/>
        <path class="cls-5" d="M220.44,379.7c.42,1.02,1.88,1.01,2.3,0l2.17-5.21h-6.64l2.17,5.21Z"/>
      </g>
      <path class="cls-5" d="M136.12,406.26c0,2.32,1.89,4.21,4.21,4.21h30.76c2.32,0,4.21-1.89,4.21-4.21v-23.42h-39.18v23.42ZM159.15,402.36h-6.89c-1.27,0-2.3-1.03-2.3-2.3s1.03-2.3,2.3-2.3h6.89c1.27,0,2.3,1.03,2.3,2.3s-1.03,2.3-2.3,2.3ZM148.82,387.43h13.77c.63,0,1.15.51,1.15,1.15s-.51,1.15-1.15,1.15h-13.77c-.63,0-1.15-.51-1.15-1.15s.51-1.15,1.15-1.15ZM144.23,392.03h22.96c.63,0,1.15.51,1.15,1.15s-.51,1.15-1.15,1.15h-22.96c-.63,0-1.15-.51-1.15-1.15s.51-1.15,1.15-1.15Z"/>
      <path class="cls-5" d="M171.09,371.29h-30.76c-2.32,0-4.21,1.89-4.21,4.21v5.05h39.18v-5.05c0-2.32-1.89-4.21-4.21-4.21ZM160.3,378.25c-.63,0-1.15-.51-1.15-1.15s.51-1.15,1.15-1.15,1.15.51,1.15,1.15-.51,1.15-1.15,1.15ZM164.89,378.25c-.63,0-1.15-.51-1.15-1.15s.51-1.15,1.15-1.15,1.15.51,1.15,1.15-.51,1.15-1.15,1.15ZM169.48,378.25c-.63,0-1.15-.51-1.15-1.15s.51-1.15,1.15-1.15,1.15.51,1.15,1.15-.51,1.15-1.15,1.15Z"/>
      <text class="cls-7" transform="translate(344.09 60.5)"><tspan x="0" y="0">Branding </tspan><tspan x="0" y="13.62">Support</tspan></text>
      <text class="cls-12" transform="translate(381.23 219.88)"><tspan x="0" y="0">CRM Tool</tspan></text>
      <text class="cls-4" transform="translate(366.43 366.48)"><tspan x="0" y="0">Fee Handling</tspan><tspan x="0" y="13.16">Tool</tspan></text>
      <text class="cls-10" transform="translate(337.41 442.94)"><tspan x="0" y="0">Web Landing</tspan><tspan x="0" y="12.97">Page</tspan></text>
      <text class="cls-11" transform="translate(378.83 289.56)"><tspan x="0" y="0">Admission</tspan><tspan x="0" y="15.35">Tool</tspan></text>
      <text class="cls-1" transform="translate(364.58 142.58)"><tspan x="0" y="0">Advanced LMS</tspan></text>
      <g>
        <path class="cls-46" d="M661.77,227.58c3.72-13.73,11.11-15.52,14.15-20.19,4.41-6.76,3.11-12.77,3.11-12.77-1.33,10.6-8.6,12.25-15.25,20.91-1.63,2.12-2.75,4.93-3.5,8.05-.75-3.14-1.88-5.95-3.5-8.05-6.65-8.66-13.91-10.32-15.25-20.91,0,0-1.3,5.99,3.11,12.77,3.04,4.67,10.42,6.53,14.15,20.19"/>
        <path class="cls-52" d="M677.02,192.99c-1.19,9.48-7.67,10.95-13.62,18.68-1.44,1.88-2.45,4.39-3.14,7.2-.67-2.79-1.68-5.3-3.14-7.2-5.95-7.73-12.42-9.21-13.62-18.68,0,0-1.16,5.37,2.78,11.4,3.72,5.71,12.22,6.59,13.98,36.51,1.77-29.92,10.26-30.79,13.98-36.51,3.94-6.04,2.78-11.4,2.78-11.4h0Z"/>
        <path class="cls-59" d="M651.81,194.22c-.14.09-.25.25-.25.44,0,.22.14.41.33.49l-.71,1.98h1.8l-.71-1.98c.19-.08.33-.27.33-.49,0-.19-.09-.35-.25-.44v-2.57l3.39-1.36-2.86,1.6,2.42,1.07v1.47c-.78,1.07-1.26,2.4-1.26,3.83,0,3.58,2.9,6.48,6.48,6.48s6.48-2.9,6.48-6.48c0-1.44-.47-2.78-1.27-3.84v-1.44l5.68-2.7-10.68-5.22-11.69,5.18,2.73,1.21v2.82l.03-.03Z"/>
      </g>
    </g>
  </g>
</svg>